<?xml version="1.0" encoding="utf-8"?>
<svg xmlns="http://www.w3.org/2000/svg" xmlns:xlink="http://www.w3.org/1999/xlink" width="600" height="400" viewBox="0 0 2400 1600">
<defs>
  <clipPath id="clip120">
    <rect x="0" y="0" width="2400" height="1600"/>
  </clipPath>
</defs>
<path clip-path="url(#clip120)" d="M0 1600 L2400 1600 L2400 0 L0 0  Z" fill="#ffffff" fill-rule="evenodd" fill-opacity="1"/>
<defs>
  <clipPath id="clip121">
    <rect x="480" y="0" width="1681" height="1600"/>
  </clipPath>
</defs>
<path clip-path="url(#clip120)" d="M617.012 1423.18 L1992.95 1423.18 L1992.95 47.2441 L617.012 47.2441  Z" fill="#ffffff" fill-rule="evenodd" fill-opacity="1"/>
<defs>
  <clipPath id="clip122">
    <rect x="617" y="47" width="1377" height="1377"/>
  </clipPath>
</defs>
<polyline clip-path="url(#clip120)" style="stroke:#000000; stroke-linecap:round; stroke-linejoin:round; stroke-width:4; stroke-opacity:1; fill:none" points="617.012,1423.18 1992.95,1423.18 "/>
<polyline clip-path="url(#clip120)" style="stroke:#000000; stroke-linecap:round; stroke-linejoin:round; stroke-width:4; stroke-opacity:1; fill:none" points="617.012,47.2441 1992.95,47.2441 "/>
<polyline clip-path="url(#clip120)" style="stroke:#000000; stroke-linecap:round; stroke-linejoin:round; stroke-width:4; stroke-opacity:1; fill:none" points="640.277,1423.18 640.277,1404.28 "/>
<polyline clip-path="url(#clip120)" style="stroke:#000000; stroke-linecap:round; stroke-linejoin:round; stroke-width:4; stroke-opacity:1; fill:none" points="972.628,1423.18 972.628,1404.28 "/>
<polyline clip-path="url(#clip120)" style="stroke:#000000; stroke-linecap:round; stroke-linejoin:round; stroke-width:4; stroke-opacity:1; fill:none" points="1304.98,1423.18 1304.98,1404.28 "/>
<polyline clip-path="url(#clip120)" style="stroke:#000000; stroke-linecap:round; stroke-linejoin:round; stroke-width:4; stroke-opacity:1; fill:none" points="1637.33,1423.18 1637.33,1404.28 "/>
<polyline clip-path="url(#clip120)" style="stroke:#000000; stroke-linecap:round; stroke-linejoin:round; stroke-width:4; stroke-opacity:1; fill:none" points="1969.68,1423.18 1969.68,1404.28 "/>
<polyline clip-path="url(#clip120)" style="stroke:#000000; stroke-linecap:round; stroke-linejoin:round; stroke-width:4; stroke-opacity:1; fill:none" points="640.277,47.2441 640.277,66.1417 "/>
<polyline clip-path="url(#clip120)" style="stroke:#000000; stroke-linecap:round; stroke-linejoin:round; stroke-width:4; stroke-opacity:1; fill:none" points="972.628,47.2441 972.628,66.1417 "/>
<polyline clip-path="url(#clip120)" style="stroke:#000000; stroke-linecap:round; stroke-linejoin:round; stroke-width:4; stroke-opacity:1; fill:none" points="1304.98,47.2441 1304.98,66.1417 "/>
<polyline clip-path="url(#clip120)" style="stroke:#000000; stroke-linecap:round; stroke-linejoin:round; stroke-width:4; stroke-opacity:1; fill:none" points="1637.33,47.2441 1637.33,66.1417 "/>
<polyline clip-path="url(#clip120)" style="stroke:#000000; stroke-linecap:round; stroke-linejoin:round; stroke-width:4; stroke-opacity:1; fill:none" points="1969.68,47.2441 1969.68,66.1417 "/>
<path clip-path="url(#clip120)" d="M586.805 1468.75 L616.481 1468.75 L616.481 1472.69 L586.805 1472.69 L586.805 1468.75 Z" fill="#000000" fill-rule="nonzero" fill-opacity="1" /><path clip-path="url(#clip120)" d="M627.383 1481.64 L635.022 1481.64 L635.022 1455.28 L626.712 1456.95 L626.712 1452.69 L634.976 1451.02 L639.652 1451.02 L639.652 1481.64 L647.291 1481.64 L647.291 1485.58 L627.383 1485.58 L627.383 1481.64 Z" fill="#000000" fill-rule="nonzero" fill-opacity="1" /><path clip-path="url(#clip120)" d="M656.735 1479.7 L661.619 1479.7 L661.619 1485.58 L656.735 1485.58 L656.735 1479.7 Z" fill="#000000" fill-rule="nonzero" fill-opacity="1" /><path clip-path="url(#clip120)" d="M681.804 1454.1 Q678.193 1454.1 676.364 1457.66 Q674.559 1461.2 674.559 1468.33 Q674.559 1475.44 676.364 1479.01 Q678.193 1482.55 681.804 1482.55 Q685.439 1482.55 687.244 1479.01 Q689.073 1475.44 689.073 1468.33 Q689.073 1461.2 687.244 1457.66 Q685.439 1454.1 681.804 1454.1 M681.804 1450.39 Q687.614 1450.39 690.67 1455 Q693.749 1459.58 693.749 1468.33 Q693.749 1477.06 690.67 1481.67 Q687.614 1486.25 681.804 1486.25 Q675.994 1486.25 672.915 1481.67 Q669.86 1477.06 669.86 1468.33 Q669.86 1459.58 672.915 1455 Q675.994 1450.39 681.804 1450.39 Z" fill="#000000" fill-rule="nonzero" fill-opacity="1" /><path clip-path="url(#clip120)" d="M919.654 1468.75 L949.33 1468.75 L949.33 1472.69 L919.654 1472.69 L919.654 1468.75 Z" fill="#000000" fill-rule="nonzero" fill-opacity="1" /><path clip-path="url(#clip120)" d="M969.422 1454.1 Q965.811 1454.1 963.983 1457.66 Q962.177 1461.2 962.177 1468.33 Q962.177 1475.44 963.983 1479.01 Q965.811 1482.55 969.422 1482.55 Q973.057 1482.55 974.862 1479.01 Q976.691 1475.44 976.691 1468.33 Q976.691 1461.2 974.862 1457.66 Q973.057 1454.1 969.422 1454.1 M969.422 1450.39 Q975.232 1450.39 978.288 1455 Q981.367 1459.58 981.367 1468.33 Q981.367 1477.06 978.288 1481.67 Q975.232 1486.25 969.422 1486.25 Q963.612 1486.25 960.533 1481.67 Q957.478 1477.06 957.478 1468.33 Q957.478 1459.58 960.533 1455 Q963.612 1450.39 969.422 1450.39 Z" fill="#000000" fill-rule="nonzero" fill-opacity="1" /><path clip-path="url(#clip120)" d="M989.584 1479.7 L994.468 1479.7 L994.468 1485.58 L989.584 1485.58 L989.584 1479.7 Z" fill="#000000" fill-rule="nonzero" fill-opacity="1" /><path clip-path="url(#clip120)" d="M1004.7 1451.02 L1023.06 1451.02 L1023.06 1454.96 L1008.98 1454.96 L1008.98 1463.43 Q1010 1463.08 1011.02 1462.92 Q1012.04 1462.73 1013.06 1462.73 Q1018.84 1462.73 1022.22 1465.9 Q1025.6 1469.08 1025.6 1474.49 Q1025.6 1480.07 1022.13 1483.17 Q1018.66 1486.25 1012.34 1486.25 Q1010.16 1486.25 1007.89 1485.88 Q1005.65 1485.51 1003.24 1484.77 L1003.24 1480.07 Q1005.32 1481.2 1007.55 1481.76 Q1009.77 1482.32 1012.25 1482.32 Q1016.25 1482.32 1018.59 1480.21 Q1020.93 1478.1 1020.93 1474.49 Q1020.93 1470.88 1018.59 1468.77 Q1016.25 1466.67 1012.25 1466.67 Q1010.37 1466.67 1008.5 1467.08 Q1006.64 1467.5 1004.7 1468.38 L1004.7 1451.02 Z" fill="#000000" fill-rule="nonzero" fill-opacity="1" /><path clip-path="url(#clip120)" d="M1282.36 1454.1 Q1278.75 1454.1 1276.92 1457.66 Q1275.12 1461.2 1275.12 1468.33 Q1275.12 1475.44 1276.92 1479.01 Q1278.75 1482.55 1282.36 1482.55 Q1286 1482.55 1287.8 1479.01 Q1289.63 1475.44 1289.63 1468.33 Q1289.63 1461.2 1287.8 1457.66 Q1286 1454.1 1282.36 1454.1 M1282.36 1450.39 Q1288.17 1450.39 1291.23 1455 Q1294.31 1459.58 1294.31 1468.33 Q1294.31 1477.06 1291.23 1481.67 Q1288.17 1486.25 1282.36 1486.25 Q1276.55 1486.25 1273.48 1481.67 Q1270.42 1477.06 1270.42 1468.33 Q1270.42 1459.58 1273.48 1455 Q1276.55 1450.39 1282.36 1450.39 Z" fill="#000000" fill-rule="nonzero" fill-opacity="1" /><path clip-path="url(#clip120)" d="M1302.53 1479.7 L1307.41 1479.7 L1307.41 1485.58 L1302.53 1485.58 L1302.53 1479.7 Z" fill="#000000" fill-rule="nonzero" fill-opacity="1" /><path clip-path="url(#clip120)" d="M1327.6 1454.1 Q1323.98 1454.1 1322.16 1457.66 Q1320.35 1461.2 1320.35 1468.33 Q1320.35 1475.44 1322.16 1479.01 Q1323.98 1482.55 1327.6 1482.55 Q1331.23 1482.55 1333.04 1479.01 Q1334.86 1475.44 1334.86 1468.33 Q1334.86 1461.2 1333.04 1457.66 Q1331.23 1454.1 1327.6 1454.1 M1327.6 1450.39 Q1333.41 1450.39 1336.46 1455 Q1339.54 1459.58 1339.54 1468.33 Q1339.54 1477.06 1336.46 1481.67 Q1333.41 1486.25 1327.6 1486.25 Q1321.79 1486.25 1318.71 1481.67 Q1315.65 1477.06 1315.65 1468.33 Q1315.65 1459.58 1318.71 1455 Q1321.79 1450.39 1327.6 1450.39 Z" fill="#000000" fill-rule="nonzero" fill-opacity="1" /><path clip-path="url(#clip120)" d="M1615.21 1454.1 Q1611.6 1454.1 1609.77 1457.66 Q1607.97 1461.2 1607.97 1468.33 Q1607.97 1475.44 1609.77 1479.01 Q1611.6 1482.55 1615.21 1482.55 Q1618.85 1482.55 1620.65 1479.01 Q1622.48 1475.44 1622.48 1468.33 Q1622.48 1461.2 1620.65 1457.66 Q1618.85 1454.1 1615.21 1454.1 M1615.21 1450.39 Q1621.02 1450.39 1624.08 1455 Q1627.16 1459.58 1627.16 1468.33 Q1627.16 1477.06 1624.08 1481.67 Q1621.02 1486.25 1615.21 1486.25 Q1609.4 1486.25 1606.32 1481.67 Q1603.27 1477.06 1603.27 1468.33 Q1603.27 1459.58 1606.32 1455 Q1609.4 1450.39 1615.21 1450.39 Z" fill="#000000" fill-rule="nonzero" fill-opacity="1" /><path clip-path="url(#clip120)" d="M1635.38 1479.7 L1640.26 1479.7 L1640.26 1485.58 L1635.38 1485.58 L1635.38 1479.7 Z" fill="#000000" fill-rule="nonzero" fill-opacity="1" /><path clip-path="url(#clip120)" d="M1650.49 1451.02 L1668.85 1451.02 L1668.85 1454.96 L1654.77 1454.96 L1654.77 1463.43 Q1655.79 1463.08 1656.81 1462.92 Q1657.83 1462.73 1658.85 1462.73 Q1664.63 1462.73 1668.01 1465.9 Q1671.39 1469.08 1671.39 1474.49 Q1671.39 1480.07 1667.92 1483.17 Q1664.45 1486.25 1658.13 1486.25 Q1655.95 1486.25 1653.69 1485.88 Q1651.44 1485.51 1649.03 1484.77 L1649.03 1480.07 Q1651.12 1481.2 1653.34 1481.76 Q1655.56 1482.32 1658.04 1482.32 Q1662.04 1482.32 1664.38 1480.21 Q1666.72 1478.1 1666.72 1474.49 Q1666.72 1470.88 1664.38 1468.77 Q1662.04 1466.67 1658.04 1466.67 Q1656.16 1466.67 1654.29 1467.08 Q1652.44 1467.5 1650.49 1468.38 L1650.49 1451.02 Z" fill="#000000" fill-rule="nonzero" fill-opacity="1" /><path clip-path="url(#clip120)" d="M1936.84 1481.64 L1944.48 1481.64 L1944.48 1455.28 L1936.16 1456.95 L1936.16 1452.69 L1944.43 1451.02 L1949.1 1451.02 L1949.1 1481.64 L1956.74 1481.64 L1956.74 1485.58 L1936.84 1485.58 L1936.84 1481.64 Z" fill="#000000" fill-rule="nonzero" fill-opacity="1" /><path clip-path="url(#clip120)" d="M1966.19 1479.7 L1971.07 1479.7 L1971.07 1485.58 L1966.19 1485.58 L1966.19 1479.7 Z" fill="#000000" fill-rule="nonzero" fill-opacity="1" /><path clip-path="url(#clip120)" d="M1991.26 1454.1 Q1987.65 1454.1 1985.82 1457.66 Q1984.01 1461.2 1984.01 1468.33 Q1984.01 1475.44 1985.82 1479.01 Q1987.65 1482.55 1991.26 1482.55 Q1994.89 1482.55 1996.7 1479.01 Q1998.53 1475.44 1998.53 1468.33 Q1998.53 1461.2 1996.7 1457.66 Q1994.89 1454.1 1991.26 1454.1 M1991.26 1450.39 Q1997.07 1450.39 2000.12 1455 Q2003.2 1459.58 2003.2 1468.33 Q2003.2 1477.06 2000.12 1481.67 Q1997.07 1486.25 1991.26 1486.25 Q1985.45 1486.25 1982.37 1481.67 Q1979.31 1477.06 1979.31 1468.33 Q1979.31 1459.58 1982.37 1455 Q1985.45 1450.39 1991.26 1450.39 Z" fill="#000000" fill-rule="nonzero" fill-opacity="1" /><path clip-path="url(#clip120)" d="M1321.59 1532.4 L1308.7 1549.74 L1322.26 1568.04 L1315.36 1568.04 L1304.98 1554.04 L1294.6 1568.04 L1287.7 1568.04 L1301.54 1549.39 L1288.87 1532.4 L1295.78 1532.4 L1305.23 1545.1 L1314.69 1532.4 L1321.59 1532.4 Z" fill="#000000" fill-rule="nonzero" fill-opacity="1" /><polyline clip-path="url(#clip120)" style="stroke:#000000; stroke-linecap:round; stroke-linejoin:round; stroke-width:4; stroke-opacity:1; fill:none" points="617.012,1423.18 617.012,47.2441 "/>
<polyline clip-path="url(#clip120)" style="stroke:#000000; stroke-linecap:round; stroke-linejoin:round; stroke-width:4; stroke-opacity:1; fill:none" points="1992.95,1423.18 1992.95,47.2441 "/>
<polyline clip-path="url(#clip120)" style="stroke:#000000; stroke-linecap:round; stroke-linejoin:round; stroke-width:4; stroke-opacity:1; fill:none" points="617.012,1399.92 629.42,1399.92 "/>
<polyline clip-path="url(#clip120)" style="stroke:#000000; stroke-linecap:round; stroke-linejoin:round; stroke-width:4; stroke-opacity:1; fill:none" points="617.012,1067.56 629.42,1067.56 "/>
<polyline clip-path="url(#clip120)" style="stroke:#000000; stroke-linecap:round; stroke-linejoin:round; stroke-width:4; stroke-opacity:1; fill:none" points="617.012,735.212 629.42,735.212 "/>
<polyline clip-path="url(#clip120)" style="stroke:#000000; stroke-linecap:round; stroke-linejoin:round; stroke-width:4; stroke-opacity:1; fill:none" points="617.012,402.86 629.42,402.86 "/>
<polyline clip-path="url(#clip120)" style="stroke:#000000; stroke-linecap:round; stroke-linejoin:round; stroke-width:4; stroke-opacity:1; fill:none" points="617.012,70.5087 629.42,70.5087 "/>
<polyline clip-path="url(#clip120)" style="stroke:#000000; stroke-linecap:round; stroke-linejoin:round; stroke-width:4; stroke-opacity:1; fill:none" points="1992.95,1399.92 1980.54,1399.92 "/>
<polyline clip-path="url(#clip120)" style="stroke:#000000; stroke-linecap:round; stroke-linejoin:round; stroke-width:4; stroke-opacity:1; fill:none" points="1992.95,1067.56 1980.54,1067.56 "/>
<polyline clip-path="url(#clip120)" style="stroke:#000000; stroke-linecap:round; stroke-linejoin:round; stroke-width:4; stroke-opacity:1; fill:none" points="1992.95,735.212 1980.54,735.212 "/>
<polyline clip-path="url(#clip120)" style="stroke:#000000; stroke-linecap:round; stroke-linejoin:round; stroke-width:4; stroke-opacity:1; fill:none" points="1992.95,402.86 1980.54,402.86 "/>
<polyline clip-path="url(#clip120)" style="stroke:#000000; stroke-linecap:round; stroke-linejoin:round; stroke-width:4; stroke-opacity:1; fill:none" points="1992.95,70.5087 1980.54,70.5087 "/>
<path clip-path="url(#clip120)" d="M474.068 1400.37 L503.744 1400.37 L503.744 1404.3 L474.068 1404.3 L474.068 1400.37 Z" fill="#000000" fill-rule="nonzero" fill-opacity="1" /><path clip-path="url(#clip120)" d="M514.647 1413.26 L522.286 1413.26 L522.286 1386.89 L513.975 1388.56 L513.975 1384.3 L522.239 1382.64 L526.915 1382.64 L526.915 1413.26 L534.554 1413.26 L534.554 1417.2 L514.647 1417.2 L514.647 1413.26 Z" fill="#000000" fill-rule="nonzero" fill-opacity="1" /><path clip-path="url(#clip120)" d="M543.998 1411.32 L548.883 1411.32 L548.883 1417.2 L543.998 1417.2 L543.998 1411.32 Z" fill="#000000" fill-rule="nonzero" fill-opacity="1" /><path clip-path="url(#clip120)" d="M569.068 1385.71 Q565.457 1385.71 563.628 1389.28 Q561.822 1392.82 561.822 1399.95 Q561.822 1407.06 563.628 1410.62 Q565.457 1414.16 569.068 1414.16 Q572.702 1414.16 574.507 1410.62 Q576.336 1407.06 576.336 1399.95 Q576.336 1392.82 574.507 1389.28 Q572.702 1385.71 569.068 1385.71 M569.068 1382.01 Q574.878 1382.01 577.933 1386.62 Q581.012 1391.2 581.012 1399.95 Q581.012 1408.68 577.933 1413.28 Q574.878 1417.87 569.068 1417.87 Q563.258 1417.87 560.179 1413.28 Q557.123 1408.68 557.123 1399.95 Q557.123 1391.2 560.179 1386.62 Q563.258 1382.01 569.068 1382.01 Z" fill="#000000" fill-rule="nonzero" fill-opacity="1" /><path clip-path="url(#clip120)" d="M475.064 1068.01 L504.739 1068.01 L504.739 1071.95 L475.064 1071.95 L475.064 1068.01 Z" fill="#000000" fill-rule="nonzero" fill-opacity="1" /><path clip-path="url(#clip120)" d="M524.832 1053.36 Q521.221 1053.36 519.392 1056.93 Q517.587 1060.47 517.587 1067.6 Q517.587 1074.7 519.392 1078.27 Q521.221 1081.81 524.832 1081.81 Q528.466 1081.81 530.272 1078.27 Q532.1 1074.7 532.1 1067.6 Q532.1 1060.47 530.272 1056.93 Q528.466 1053.36 524.832 1053.36 M524.832 1049.66 Q530.642 1049.66 533.698 1054.27 Q536.776 1058.85 536.776 1067.6 Q536.776 1076.33 533.698 1080.93 Q530.642 1085.51 524.832 1085.51 Q519.022 1085.51 515.943 1080.93 Q512.887 1076.33 512.887 1067.6 Q512.887 1058.85 515.943 1054.27 Q519.022 1049.66 524.832 1049.66 Z" fill="#000000" fill-rule="nonzero" fill-opacity="1" /><path clip-path="url(#clip120)" d="M544.994 1078.96 L549.878 1078.96 L549.878 1084.84 L544.994 1084.84 L544.994 1078.96 Z" fill="#000000" fill-rule="nonzero" fill-opacity="1" /><path clip-path="url(#clip120)" d="M560.109 1050.28 L578.466 1050.28 L578.466 1054.22 L564.392 1054.22 L564.392 1062.69 Q565.41 1062.34 566.429 1062.18 Q567.447 1062 568.466 1062 Q574.253 1062 577.632 1065.17 Q581.012 1068.34 581.012 1073.76 Q581.012 1079.33 577.54 1082.44 Q574.068 1085.51 567.748 1085.51 Q565.572 1085.51 563.304 1085.14 Q561.058 1084.77 558.651 1084.03 L558.651 1079.33 Q560.734 1080.47 562.957 1081.02 Q565.179 1081.58 567.656 1081.58 Q571.66 1081.58 573.998 1079.47 Q576.336 1077.37 576.336 1073.76 Q576.336 1070.14 573.998 1068.04 Q571.66 1065.93 567.656 1065.93 Q565.781 1065.93 563.906 1066.35 Q562.054 1066.76 560.109 1067.64 L560.109 1050.28 Z" fill="#000000" fill-rule="nonzero" fill-opacity="1" /><path clip-path="url(#clip120)" d="M523.836 721.011 Q520.225 721.011 518.397 724.575 Q516.591 728.117 516.591 735.247 Q516.591 742.353 518.397 745.918 Q520.225 749.46 523.836 749.46 Q527.471 749.46 529.276 745.918 Q531.105 742.353 531.105 735.247 Q531.105 728.117 529.276 724.575 Q527.471 721.011 523.836 721.011 M523.836 717.307 Q529.647 717.307 532.702 721.913 Q535.781 726.497 535.781 735.247 Q535.781 743.973 532.702 748.58 Q529.647 753.163 523.836 753.163 Q518.026 753.163 514.948 748.58 Q511.892 743.973 511.892 735.247 Q511.892 726.497 514.948 721.913 Q518.026 717.307 523.836 717.307 Z" fill="#000000" fill-rule="nonzero" fill-opacity="1" /><path clip-path="url(#clip120)" d="M543.998 746.612 L548.883 746.612 L548.883 752.492 L543.998 752.492 L543.998 746.612 Z" fill="#000000" fill-rule="nonzero" fill-opacity="1" /><path clip-path="url(#clip120)" d="M569.068 721.011 Q565.457 721.011 563.628 724.575 Q561.822 728.117 561.822 735.247 Q561.822 742.353 563.628 745.918 Q565.457 749.46 569.068 749.46 Q572.702 749.46 574.507 745.918 Q576.336 742.353 576.336 735.247 Q576.336 728.117 574.507 724.575 Q572.702 721.011 569.068 721.011 M569.068 717.307 Q574.878 717.307 577.933 721.913 Q581.012 726.497 581.012 735.247 Q581.012 743.973 577.933 748.58 Q574.878 753.163 569.068 753.163 Q563.258 753.163 560.179 748.58 Q557.123 743.973 557.123 735.247 Q557.123 726.497 560.179 721.913 Q563.258 717.307 569.068 717.307 Z" fill="#000000" fill-rule="nonzero" fill-opacity="1" /><path clip-path="url(#clip120)" d="M524.832 388.659 Q521.221 388.659 519.392 392.224 Q517.587 395.765 517.587 402.895 Q517.587 410.002 519.392 413.566 Q521.221 417.108 524.832 417.108 Q528.466 417.108 530.272 413.566 Q532.1 410.002 532.1 402.895 Q532.1 395.765 530.272 392.224 Q528.466 388.659 524.832 388.659 M524.832 384.955 Q530.642 384.955 533.698 389.562 Q536.776 394.145 536.776 402.895 Q536.776 411.622 533.698 416.228 Q530.642 420.812 524.832 420.812 Q519.022 420.812 515.943 416.228 Q512.887 411.622 512.887 402.895 Q512.887 394.145 515.943 389.562 Q519.022 384.955 524.832 384.955 Z" fill="#000000" fill-rule="nonzero" fill-opacity="1" /><path clip-path="url(#clip120)" d="M544.994 414.261 L549.878 414.261 L549.878 420.14 L544.994 420.14 L544.994 414.261 Z" fill="#000000" fill-rule="nonzero" fill-opacity="1" /><path clip-path="url(#clip120)" d="M560.109 385.58 L578.466 385.58 L578.466 389.516 L564.392 389.516 L564.392 397.988 Q565.41 397.64 566.429 397.478 Q567.447 397.293 568.466 397.293 Q574.253 397.293 577.632 400.465 Q581.012 403.636 581.012 409.052 Q581.012 414.631 577.54 417.733 Q574.068 420.812 567.748 420.812 Q565.572 420.812 563.304 420.441 Q561.058 420.071 558.651 419.33 L558.651 414.631 Q560.734 415.765 562.957 416.321 Q565.179 416.876 567.656 416.876 Q571.66 416.876 573.998 414.77 Q576.336 412.664 576.336 409.052 Q576.336 405.441 573.998 403.335 Q571.66 401.228 567.656 401.228 Q565.781 401.228 563.906 401.645 Q562.054 402.062 560.109 402.941 L560.109 385.58 Z" fill="#000000" fill-rule="nonzero" fill-opacity="1" /><path clip-path="url(#clip120)" d="M514.647 83.8535 L522.286 83.8535 L522.286 57.4879 L513.975 59.1546 L513.975 54.8954 L522.239 53.2287 L526.915 53.2287 L526.915 83.8535 L534.554 83.8535 L534.554 87.7887 L514.647 87.7887 L514.647 83.8535 Z" fill="#000000" fill-rule="nonzero" fill-opacity="1" /><path clip-path="url(#clip120)" d="M543.998 81.9091 L548.883 81.9091 L548.883 87.7887 L543.998 87.7887 L543.998 81.9091 Z" fill="#000000" fill-rule="nonzero" fill-opacity="1" /><path clip-path="url(#clip120)" d="M569.068 56.3074 Q565.457 56.3074 563.628 59.8722 Q561.822 63.4138 561.822 70.5434 Q561.822 77.6499 563.628 81.2147 Q565.457 84.7563 569.068 84.7563 Q572.702 84.7563 574.507 81.2147 Q576.336 77.6499 576.336 70.5434 Q576.336 63.4138 574.507 59.8722 Q572.702 56.3074 569.068 56.3074 M569.068 52.6037 Q574.878 52.6037 577.933 57.2102 Q581.012 61.7935 581.012 70.5434 Q581.012 79.2702 577.933 83.8767 Q574.878 88.46 569.068 88.46 Q563.258 88.46 560.179 83.8767 Q557.123 79.2702 557.123 70.5434 Q557.123 61.7935 560.179 57.2102 Q563.258 52.6037 569.068 52.6037 Z" fill="#000000" fill-rule="nonzero" fill-opacity="1" /><path clip-path="url(#clip120)" d="M427.122 733.525 Q433.488 736.008 435.43 738.363 Q437.371 740.718 437.371 744.665 L437.371 749.344 L432.47 749.344 L432.47 745.906 Q432.47 743.487 431.324 742.151 Q430.178 740.814 425.913 739.191 L423.239 738.14 L388.164 752.559 L388.164 746.352 L416.046 735.212 L388.164 724.072 L388.164 717.865 L427.122 733.525 Z" fill="#000000" fill-rule="nonzero" fill-opacity="1" /><polyline clip-path="url(#clip122)" style="stroke:#0b0726; stroke-linecap:round; stroke-linejoin:round; stroke-width:4; stroke-opacity:1; fill:none" points="617.012,1327.76 623.659,1327.86 630.306,1327.97 636.953,1328.07 643.6,1328.19 650.247,1328.3 656.894,1328.42 663.541,1328.54 670.188,1328.66 676.835,1328.79 683.482,1328.92 690.129,1329.05 696.776,1329.19 703.424,1329.33 710.071,1329.48 716.718,1329.63 723.365,1329.78 730.012,1329.94 736.659,1330.1 737.546,1330.12 743.306,1330.26 749.953,1330.43 756.6,1330.61 763.247,1330.78 769.894,1330.96 776.541,1331.15 783.188,1331.34 789.835,1331.53 796.482,1331.73 803.129,1331.93 809.776,1332.14 816.423,1332.35 823.07,1332.57 829.717,1332.79 836.364,1333.01 843.011,1333.24 849.658,1333.48 856.305,1333.71 862.952,1333.96 869.599,1334.21 876.246,1334.46 882.893,1334.72 889.54,1334.98 896.187,1335.25 902.834,1335.52 909.482,1335.8 916.129,1336.08 922.776,1336.37 929.423,1336.66 931.838,1336.77 936.07,1336.96 942.717,1337.26 949.364,1337.56 956.011,1337.88 962.658,1338.19 969.305,1338.51 975.952,1338.84 982.599,1339.17 989.246,1339.5 995.893,1339.84 1002.54,1340.18 1009.19,1340.53 1015.83,1340.88 1022.48,1341.24 1029.13,1341.6 1035.78,1341.97 1042.42,1342.34 1049.07,1342.71 1055.72,1343.09 1061.43,1343.42 1062.36,1343.47 1069.01,1343.85 1075.66,1344.24 1082.3,1344.64 1088.95,1345.03 1095.6,1345.43 1102.25,1345.83 1108.89,1346.24 1115.54,1346.65 1122.19,1347.06 1128.83,1347.47 1135.48,1347.89 1142.13,1348.31 1148.77,1348.73 1155.42,1349.15 1162.07,1349.58 1168.72,1350 1169.62,1350.06 1175.36,1350.43 1182.01,1350.86 1188.66,1351.29 1195.3,1351.73 1201.95,1352.16 1208.6,1352.59 1215.25,1353.03 1221.89,1353.46 1228.54,1353.9 1235.19,1354.33 1241.83,1354.77 1248.48,1355.2 1255.13,1355.64 1261.77,1356.07 1268.42,1356.5 1271.64,1356.71 1275.07,1356.93 1281.72,1357.36 1288.36,1357.79 1295.01,1358.21 1301.66,1358.64 1308.3,1359.06 1314.95,1359.48 1321.6,1359.89 1328.24,1360.3 1334.89,1360.71 1341.54,1361.12 1348.19,1361.52 1354.83,1361.92 1361.48,1362.32 1368.13,1362.71 1374.77,1363.09 1379.37,1363.36 1381.42,1363.47 1388.07,1363.85 1394.71,1364.22 1401.36,1364.59 1408.01,1364.95 1414.66,1365.31 1421.3,1365.66 1427.95,1366 1434.6,1366.34 1441.24,1366.67 1447.89,1367 1454.54,1367.32 1461.19,1367.63 1467.83,1367.94 1474.48,1368.24 1481.13,1368.53 1487.77,1368.82 1494.42,1369.1 1501.07,1369.37 1507.71,1369.63 1514.36,1369.89 1517.44,1370 1521.01,1370.14 1527.66,1370.38 1534.3,1370.61 1540.95,1370.84 1547.6,1371.06 1554.24,1371.27 1560.89,1371.47 1567.54,1371.67 1574.18,1371.85 1580.83,1372.03 1587.48,1372.21 1594.13,1372.37 1600.77,1372.53 1607.42,1372.67 1614.07,1372.81 1620.71,1372.95 1627.36,1373.07 1634.01,1373.19 1640.66,1373.3 1647.3,1373.4 1653.95,1373.5 1660.6,1373.59 1667.24,1373.67 1673.89,1373.74 1680.54,1373.81 1687.18,1373.87 1693.83,1373.92 1700.48,1373.96 1707.13,1374 1713.77,1374.04 1720.42,1374.06 1727.07,1374.08 1733.71,1374.1 1740.36,1374.11 1747.01,1374.11 1753.65,1374.1 1760.3,1374.09 1766.95,1374.08 1773.6,1374.06 1780.24,1374.03 1786.89,1374 1793.54,1373.97 1800.18,1373.93 1806.83,1373.88 1813.48,1373.83 1820.12,1373.78 1826.77,1373.72 1833.42,1373.66 1840.07,1373.6 1846.71,1373.53 1853.36,1373.45 1860.01,1373.37 1866.65,1373.29 1873.3,1373.21 1879.95,1373.12 1886.6,1373.03 1893.24,1372.94 1899.89,1372.84 1906.54,1372.75 1913.18,1372.64 1919.83,1372.54 1926.48,1372.44 1933.12,1372.33 1939.77,1372.22 1946.42,1372.1 1953.07,1371.99 1959.71,1371.87 1966.36,1371.76 1973.01,1371.64 1979.65,1371.52 1986.3,1371.39 1992.95,1371.27 "/>
<polyline clip-path="url(#clip122)" style="stroke:#240b4e; stroke-linecap:round; stroke-linejoin:round; stroke-width:4; stroke-opacity:1; fill:none" points="1992.95,1281.63 1986.3,1281.81 1979.65,1281.99 1973.01,1282.17 1966.36,1282.35 1959.71,1282.53 1953.07,1282.71 1946.42,1282.89 1939.77,1283.06 1933.12,1283.23 1926.48,1283.41 1919.83,1283.58 1919.2,1283.59 1913.18,1283.74 1906.54,1283.91 1899.89,1284.07 1893.24,1284.24 1886.6,1284.39 1879.95,1284.55 1873.3,1284.7 1866.65,1284.85 1860.01,1285 1853.36,1285.14 1846.71,1285.28 1840.07,1285.42 1833.42,1285.55 1826.77,1285.68 1820.12,1285.8 1813.48,1285.92 1806.83,1286.03 1800.18,1286.14 1793.54,1286.24 1786.89,1286.33 1780.24,1286.42 1773.6,1286.51 1766.95,1286.58 1760.3,1286.66 1753.65,1286.72 1747.01,1286.78 1740.36,1286.83 1733.71,1286.87 1727.07,1286.9 1720.42,1286.93 1713.77,1286.94 1707.13,1286.95 1700.48,1286.95 1693.83,1286.94 1687.18,1286.92 1680.54,1286.89 1673.89,1286.86 1667.24,1286.81 1660.6,1286.75 1653.95,1286.68 1647.3,1286.6 1640.66,1286.51 1634.01,1286.41 1627.36,1286.3 1620.71,1286.18 1614.07,1286.05 1607.42,1285.9 1600.77,1285.74 1594.13,1285.58 1587.48,1285.4 1580.83,1285.21 1574.18,1285 1567.54,1284.79 1560.89,1284.56 1554.24,1284.32 1547.6,1284.07 1540.95,1283.81 1535.57,1283.59 1534.3,1283.54 1527.66,1283.26 1521.01,1282.96 1514.36,1282.65 1507.71,1282.34 1501.07,1282.01 1494.42,1281.67 1487.77,1281.31 1481.13,1280.95 1474.48,1280.58 1467.83,1280.2 1461.19,1279.8 1454.54,1279.4 1447.89,1278.99 1441.24,1278.57 1434.6,1278.13 1427.95,1277.69 1421.3,1277.24 1416.96,1276.95 1414.66,1276.79 1408.01,1276.32 1401.36,1275.85 1394.71,1275.37 1388.07,1274.88 1381.42,1274.38 1374.77,1273.88 1368.13,1273.37 1361.48,1272.86 1354.83,1272.34 1348.19,1271.81 1341.54,1271.28 1334.89,1270.74 1329.39,1270.3 1328.24,1270.2 1321.6,1269.66 1314.95,1269.11 1308.3,1268.56 1301.66,1268.01 1295.01,1267.45 1288.36,1266.89 1281.72,1266.33 1275.07,1265.77 1268.42,1265.2 1261.77,1264.64 1255.13,1264.07 1250.18,1263.65 1248.48,1263.51 1241.83,1262.94 1235.19,1262.37 1228.54,1261.81 1221.89,1261.24 1215.25,1260.68 1208.6,1260.12 1201.95,1259.56 1195.3,1259 1188.66,1258.44 1182.01,1257.89 1175.36,1257.34 1171.34,1257 1168.72,1256.79 1162.07,1256.24 1155.42,1255.7 1148.77,1255.16 1142.13,1254.63 1135.48,1254.1 1128.83,1253.58 1122.19,1253.06 1115.54,1252.54 1108.89,1252.03 1102.25,1251.53 1095.6,1251.03 1088.95,1250.53 1086.57,1250.36 1082.3,1250.04 1075.66,1249.56 1069.01,1249.08 1062.36,1248.61 1055.72,1248.15 1049.07,1247.69 1042.42,1247.24 1035.78,1246.79 1029.13,1246.35 1022.48,1245.92 1015.83,1245.5 1009.19,1245.08 1002.54,1244.67 995.893,1244.26 989.246,1243.87 986.58,1243.71 982.599,1243.48 975.952,1243.09 969.305,1242.72 962.658,1242.35 956.011,1241.98 949.364,1241.63 942.717,1241.28 936.07,1240.94 929.423,1240.61 922.776,1240.28 916.129,1239.96 909.482,1239.65 902.834,1239.34 896.187,1239.04 889.54,1238.75 882.893,1238.47 876.246,1238.19 869.599,1237.92 862.952,1237.65 856.305,1237.39 849.658,1237.14 847.542,1237.06 843.011,1236.9 836.364,1236.66 829.717,1236.42 823.07,1236.2 816.423,1235.97 809.776,1235.76 803.129,1235.55 796.482,1235.35 789.835,1235.15 783.188,1234.96 776.541,1234.77 769.894,1234.59 763.247,1234.42 756.6,1234.25 749.953,1234.08 743.306,1233.92 736.659,1233.77 730.012,1233.62 723.365,1233.47 716.718,1233.33 710.071,1233.2 703.424,1233.07 696.776,1232.94 690.129,1232.82 683.482,1232.7 676.835,1232.59 670.188,1232.48 663.541,1232.37 656.894,1232.27 650.247,1232.17 643.6,1232.08 636.953,1231.99 630.306,1231.9 623.659,1231.82 617.012,1231.73 "/>
<polyline clip-path="url(#clip122)" style="stroke:#410967; stroke-linecap:round; stroke-linejoin:round; stroke-width:4; stroke-opacity:1; fill:none" points="617.012,1135.03 623.659,1135.07 630.306,1135.12 636.953,1135.17 643.6,1135.22 650.247,1135.28 656.894,1135.34 663.541,1135.4 670.188,1135.47 676.835,1135.54 683.482,1135.62 690.129,1135.7 696.776,1135.79 703.424,1135.88 710.071,1135.97 716.718,1136.07 723.365,1136.18 730.012,1136.29 736.659,1136.41 743.306,1136.53 749.953,1136.66 756.6,1136.8 763.247,1136.94 769.894,1137.09 776.541,1137.24 781.208,1137.36 783.188,1137.41 789.835,1137.57 796.482,1137.75 803.129,1137.93 809.776,1138.12 816.423,1138.32 823.07,1138.52 829.717,1138.74 836.364,1138.96 843.011,1139.19 849.658,1139.43 856.305,1139.67 862.952,1139.93 869.599,1140.19 876.246,1140.47 882.893,1140.75 889.54,1141.04 896.187,1141.34 902.834,1141.65 909.482,1141.98 916.129,1142.31 922.776,1142.65 929.423,1143 936.07,1143.36 942.717,1143.73 947.441,1144 949.364,1144.11 956.011,1144.51 962.658,1144.91 969.305,1145.32 975.952,1145.75 982.599,1146.18 989.246,1146.63 995.893,1147.09 1002.54,1147.56 1009.19,1148.04 1015.83,1148.53 1022.48,1149.03 1029.13,1149.54 1035.78,1150.06 1042.42,1150.59 1043.11,1150.65 1049.07,1151.14 1055.72,1151.69 1062.36,1152.26 1069.01,1152.83 1075.66,1153.42 1082.3,1154.01 1088.95,1154.62 1095.6,1155.23 1102.25,1155.86 1108.89,1156.49 1115.54,1157.13 1117.23,1157.3 1122.19,1157.78 1128.83,1158.44 1135.48,1159.11 1142.13,1159.79 1148.77,1160.47 1155.42,1161.16 1162.07,1161.86 1168.72,1162.57 1175.36,1163.28 1181.51,1163.95 1182.01,1164 1188.66,1164.72 1195.3,1165.45 1201.95,1166.19 1208.6,1166.92 1215.25,1167.67 1221.89,1168.41 1228.54,1169.16 1235.19,1169.92 1241.12,1170.59 1241.83,1170.67 1248.48,1171.43 1255.13,1172.19 1261.77,1172.95 1268.42,1173.71 1275.07,1174.47 1281.72,1175.23 1288.36,1175.98 1295.01,1176.74 1299.4,1177.24 1301.66,1177.49 1308.3,1178.25 1314.95,1178.99 1321.6,1179.74 1328.24,1180.48 1334.89,1181.21 1341.54,1181.94 1348.19,1182.67 1354.83,1183.38 1359.53,1183.89 1361.48,1184.09 1368.13,1184.8 1374.77,1185.49 1381.42,1186.18 1388.07,1186.85 1394.71,1187.52 1401.36,1188.17 1408.01,1188.82 1414.66,1189.45 1421.3,1190.07 1426.33,1190.53 1427.95,1190.68 1434.6,1191.28 1441.24,1191.86 1447.89,1192.43 1454.54,1192.98 1461.19,1193.52 1467.83,1194.05 1474.48,1194.56 1481.13,1195.05 1487.77,1195.52 1494.42,1195.98 1501.07,1196.42 1507.71,1196.85 1513.12,1197.18 1514.36,1197.26 1521.01,1197.65 1527.66,1198.02 1534.3,1198.37 1540.95,1198.71 1547.6,1199.03 1554.24,1199.33 1560.89,1199.61 1567.54,1199.87 1574.18,1200.11 1580.83,1200.34 1587.48,1200.55 1594.13,1200.74 1600.77,1200.91 1607.42,1201.06 1614.07,1201.19 1620.71,1201.31 1627.36,1201.41 1634.01,1201.5 1640.66,1201.56 1647.3,1201.61 1653.95,1201.65 1660.6,1201.67 1667.24,1201.67 1673.89,1201.66 1680.54,1201.64 1687.18,1201.6 1693.83,1201.54 1700.48,1201.48 1707.13,1201.4 1713.77,1201.31 1720.42,1201.21 1727.07,1201.09 1733.71,1200.97 1740.36,1200.84 1747.01,1200.69 1753.65,1200.54 1760.3,1200.38 1766.95,1200.21 1773.6,1200.03 1780.24,1199.84 1786.89,1199.65 1793.54,1199.45 1800.18,1199.25 1806.83,1199.03 1813.48,1198.82 1820.12,1198.6 1826.77,1198.37 1833.42,1198.14 1840.07,1197.9 1846.71,1197.66 1853.36,1197.42 1859.95,1197.18 1860.01,1197.18 1866.65,1196.93 1873.3,1196.68 1879.95,1196.43 1886.6,1196.18 1893.24,1195.92 1899.89,1195.66 1906.54,1195.41 1913.18,1195.15 1919.83,1194.89 1926.48,1194.63 1933.12,1194.37 1939.77,1194.11 1946.42,1193.84 1953.07,1193.58 1959.71,1193.32 1966.36,1193.06 1973.01,1192.8 1979.65,1192.55 1986.3,1192.29 1992.95,1192.03 "/>
<polyline clip-path="url(#clip122)" style="stroke:#5d126e; stroke-linecap:round; stroke-linejoin:round; stroke-width:4; stroke-opacity:1; fill:none" points="1992.95,1102.15 1986.3,1102.5 1979.65,1102.85 1973.01,1103.21 1966.36,1103.56 1959.71,1103.92 1956.11,1104.12 1953.07,1104.29 1946.42,1104.66 1939.77,1105.03 1933.12,1105.4 1926.48,1105.78 1919.83,1106.16 1913.18,1106.54 1906.54,1106.93 1899.89,1107.31 1893.24,1107.7 1886.6,1108.09 1879.95,1108.48 1873.3,1108.88 1866.65,1109.27 1860.01,1109.67 1853.36,1110.06 1846.71,1110.46 1841.49,1110.77 1840.07,1110.85 1833.42,1111.25 1826.77,1111.64 1820.12,1112.03 1813.48,1112.42 1806.83,1112.81 1800.18,1113.19 1793.54,1113.57 1786.89,1113.94 1780.24,1114.31 1773.6,1114.67 1766.95,1115.03 1760.3,1115.38 1753.65,1115.72 1747.01,1116.04 1740.36,1116.36 1733.71,1116.67 1727.07,1116.97 1720.42,1117.25 1716.31,1117.42 1713.77,1117.52 1707.13,1117.77 1700.48,1118.01 1693.83,1118.23 1687.18,1118.43 1680.54,1118.61 1673.89,1118.78 1667.24,1118.92 1660.6,1119.04 1653.95,1119.13 1647.3,1119.2 1640.66,1119.25 1634.01,1119.27 1627.36,1119.26 1620.71,1119.23 1614.07,1119.16 1607.42,1119.07 1600.77,1118.95 1594.13,1118.8 1587.48,1118.62 1580.83,1118.4 1574.18,1118.16 1567.54,1117.89 1560.89,1117.58 1557.67,1117.42 1554.24,1117.24 1547.6,1116.88 1540.95,1116.48 1534.3,1116.05 1527.66,1115.59 1521.01,1115.1 1514.36,1114.58 1507.71,1114.02 1501.07,1113.45 1494.42,1112.84 1487.77,1112.2 1481.13,1111.54 1474.48,1110.85 1473.72,1110.77 1467.83,1110.14 1461.19,1109.4 1454.54,1108.64 1447.89,1107.85 1441.24,1107.05 1434.6,1106.22 1427.95,1105.37 1421.3,1104.5 1418.44,1104.12 1414.66,1103.62 1408.01,1102.71 1401.36,1101.8 1394.71,1100.86 1388.07,1099.91 1381.42,1098.95 1374.77,1097.97 1371.41,1097.48 1368.13,1096.99 1361.48,1095.99 1354.83,1094.98 1348.19,1093.97 1341.54,1092.94 1334.89,1091.91 1328.24,1090.88 1327.93,1090.83 1321.6,1089.84 1314.95,1088.79 1308.3,1087.74 1301.66,1086.69 1295.01,1085.64 1288.36,1084.59 1285.79,1084.18 1281.72,1083.53 1275.07,1082.48 1268.42,1081.43 1261.77,1080.38 1255.13,1079.34 1248.48,1078.3 1243.54,1077.53 1241.83,1077.27 1235.19,1076.24 1228.54,1075.21 1221.89,1074.2 1215.25,1073.19 1208.6,1072.19 1201.95,1071.2 1199.82,1070.89 1195.3,1070.22 1188.66,1069.25 1182.01,1068.29 1175.36,1067.34 1168.72,1066.4 1162.07,1065.48 1155.42,1064.56 1153.01,1064.24 1148.77,1063.67 1142.13,1062.78 1135.48,1061.91 1128.83,1061.05 1122.19,1060.21 1115.54,1059.39 1108.89,1058.58 1102.25,1057.78 1100.62,1057.59 1095.6,1057 1088.95,1056.24 1082.3,1055.5 1075.66,1054.77 1069.01,1054.06 1062.36,1053.36 1055.72,1052.69 1049.07,1052.03 1042.42,1051.39 1037.72,1050.95 1035.78,1050.76 1029.13,1050.15 1022.48,1049.56 1015.83,1048.99 1009.19,1048.44 1002.54,1047.9 995.893,1047.38 989.246,1046.88 982.599,1046.39 975.952,1045.92 969.305,1045.47 962.658,1045.03 956.011,1044.61 950.905,1044.3 949.364,1044.2 942.717,1043.82 936.07,1043.44 929.423,1043.08 922.776,1042.74 916.129,1042.41 909.482,1042.09 902.834,1041.79 896.187,1041.5 889.54,1041.23 882.893,1040.97 876.246,1040.72 869.599,1040.48 862.952,1040.26 856.305,1040.04 849.658,1039.84 843.011,1039.65 836.364,1039.47 829.717,1039.3 823.07,1039.14 816.423,1038.99 809.776,1038.85 803.129,1038.72 796.482,1038.59 789.835,1038.48 783.188,1038.37 776.541,1038.28 769.894,1038.19 763.247,1038.1 756.6,1038.03 749.953,1037.96 743.306,1037.89 736.659,1037.84 730.012,1037.78 723.365,1037.74 716.718,1037.7 710.071,1037.67 706.741,1037.65 703.424,1037.64 696.776,1037.61 690.129,1037.59 683.482,1037.58 676.835,1037.57 670.188,1037.56 663.541,1037.56 656.894,1037.56 650.247,1037.57 643.6,1037.57 636.953,1037.59 630.306,1037.6 623.659,1037.62 617.012,1037.64 "/>
<polyline clip-path="url(#clip122)" style="stroke:#781c6d; stroke-linecap:round; stroke-linejoin:round; stroke-width:4; stroke-opacity:1; fill:none" points="617.012,939.666 623.659,939.554 630.306,939.444 636.953,939.334 643.6,939.226 650.247,939.12 656.894,939.015 663.541,938.913 670.188,938.812 676.835,938.714 683.482,938.618 690.129,938.524 696.776,938.433 703.424,938.346 710.071,938.262 716.718,938.181 723.365,938.104 730.012,938.031 736.659,937.962 738.277,937.946 743.306,937.898 749.953,937.839 756.6,937.785 763.247,937.737 769.894,937.694 776.541,937.659 783.188,937.629 789.835,937.607 796.482,937.593 803.129,937.587 809.776,937.589 816.423,937.6 823.07,937.621 829.717,937.652 836.364,937.694 843.011,937.747 849.658,937.811 856.305,937.888 860.614,937.946 862.952,937.978 869.599,938.082 876.246,938.199 882.893,938.332 889.54,938.48 896.187,938.645 902.834,938.826 909.482,939.026 916.129,939.244 922.776,939.48 929.423,939.737 936.07,940.015 942.717,940.314 949.364,940.635 956.011,940.978 962.658,941.346 969.305,941.737 975.952,942.153 982.599,942.595 989.246,943.063 995.893,943.557 1002.54,944.079 1008.77,944.593 1009.19,944.628 1015.83,945.203 1022.48,945.807 1029.13,946.44 1035.78,947.102 1042.42,947.793 1049.07,948.514 1055.72,949.265 1062.36,950.047 1069.01,950.858 1072.03,951.241 1075.66,951.698 1082.3,952.566 1088.95,953.463 1095.6,954.391 1102.25,955.348 1108.89,956.335 1115.54,957.351 1118.95,957.888 1122.19,958.393 1128.83,959.461 1135.48,960.557 1142.13,961.68 1148.77,962.829 1155.42,964.005 1158.35,964.535 1162.07,965.203 1168.72,966.424 1175.36,967.668 1182.01,968.936 1188.66,970.227 1193.49,971.182 1195.3,971.537 1201.95,972.864 1208.6,974.211 1215.25,975.577 1221.89,976.961 1226,977.829 1228.54,978.36 1235.19,979.772 1241.83,981.199 1248.48,982.64 1255.13,984.093 1256.86,984.476 1261.77,985.555 1268.42,987.026 1275.07,988.506 1281.72,989.995 1286.72,991.123 1288.36,991.49 1295.01,992.988 1301.66,994.49 1308.3,995.996 1314.95,997.504 1316.12,997.77 1321.6,999.009 1328.24,1000.51 1334.89,1002.02 1341.54,1003.52 1345.53,1004.42 1348.19,1005.01 1354.83,1006.5 1361.48,1007.97 1368.13,1009.44 1374.77,1010.9 1375.51,1011.06 1381.42,1012.35 1388.07,1013.78 1394.71,1015.19 1401.36,1016.59 1406.76,1017.71 1408.01,1017.97 1414.66,1019.33 1421.3,1020.66 1427.95,1021.97 1434.6,1023.25 1440.44,1024.36 1441.24,1024.51 1447.89,1025.73 1454.54,1026.93 1461.19,1028.09 1467.83,1029.21 1474.48,1030.3 1478.99,1031 1481.13,1031.34 1487.77,1032.35 1494.42,1033.31 1501.07,1034.22 1507.71,1035.09 1514.36,1035.9 1521.01,1036.67 1527.66,1037.38 1530.4,1037.65 1534.3,1038.04 1540.95,1038.64 1547.6,1039.19 1554.24,1039.68 1560.89,1040.12 1567.54,1040.49 1574.18,1040.8 1580.83,1041.05 1587.48,1041.25 1594.13,1041.38 1600.77,1041.46 1607.42,1041.48 1614.07,1041.45 1620.71,1041.36 1627.36,1041.22 1634.01,1041.03 1640.66,1040.79 1647.3,1040.51 1653.95,1040.19 1660.6,1039.82 1667.24,1039.42 1673.89,1038.98 1680.54,1038.51 1687.18,1038.01 1691.7,1037.65 1693.83,1037.48 1700.48,1036.94 1707.13,1036.37 1713.77,1035.78 1720.42,1035.17 1727.07,1034.56 1733.71,1033.93 1740.36,1033.29 1747.01,1032.64 1753.65,1031.99 1760.3,1031.33 1763.64,1031 1766.95,1030.68 1773.6,1030.02 1780.24,1029.35 1786.89,1028.7 1793.54,1028.04 1800.18,1027.38 1806.83,1026.73 1813.48,1026.09 1820.12,1025.45 1826.77,1024.82 1831.63,1024.36 1833.42,1024.19 1840.07,1023.57 1846.71,1022.95 1853.36,1022.35 1860.01,1021.75 1866.65,1021.15 1873.3,1020.57 1879.95,1020 1886.6,1019.43 1893.24,1018.87 1899.89,1018.32 1906.54,1017.78 1907.4,1017.71 1913.18,1017.25 1919.83,1016.72 1926.48,1016.2 1933.12,1015.69 1939.77,1015.19 1946.42,1014.7 1953.07,1014.22 1959.71,1013.74 1966.36,1013.27 1973.01,1012.81 1979.65,1012.36 1986.3,1011.91 1992.95,1011.47 "/>
<polyline clip-path="url(#clip122)" style="stroke:#932567; stroke-linecap:round; stroke-linejoin:round; stroke-width:4; stroke-opacity:1; fill:none" points="1992.95,919.296 1986.3,919.795 1979.65,920.305 1973.01,920.827 1966.36,921.361 1959.71,921.906 1953.07,922.465 1946.42,923.036 1939.77,923.621 1933.12,924.22 1928.43,924.652 1926.48,924.832 1919.83,925.459 1913.18,926.101 1906.54,926.759 1899.89,927.433 1893.24,928.124 1886.6,928.832 1879.95,929.559 1873.3,930.305 1866.65,931.07 1864.71,931.299 1860.01,931.853 1853.36,932.656 1846.71,933.48 1840.07,934.326 1833.42,935.195 1826.77,936.087 1820.12,937.003 1813.48,937.944 1813.46,937.946 1806.83,938.905 1800.18,939.892 1793.54,940.904 1786.89,941.943 1780.24,943.009 1773.6,944.101 1770.68,944.593 1766.95,945.217 1760.3,946.355 1753.65,947.52 1747.01,948.709 1740.36,949.921 1733.71,951.156 1733.27,951.241 1727.07,952.403 1720.42,953.666 1713.77,954.941 1707.13,956.226 1700.48,957.513 1698.56,957.888 1693.83,958.793 1687.18,960.063 1680.54,961.316 1673.89,962.541 1667.24,963.73 1662.58,964.535 1660.6,964.872 1653.95,965.959 1647.3,966.979 1640.66,967.919 1634.01,968.768 1627.36,969.516 1620.71,970.153 1614.07,970.67 1607.42,971.06 1604.31,971.182 1600.77,971.322 1594.13,971.447 1587.48,971.432 1580.83,971.275 1578.74,971.182 1574.18,970.981 1567.54,970.551 1560.89,969.987 1554.24,969.293 1547.6,968.472 1540.95,967.532 1534.3,966.478 1527.66,965.319 1523.49,964.535 1521.01,964.064 1514.36,962.723 1507.71,961.294 1501.07,959.785 1494.42,958.204 1493.13,957.888 1487.77,956.558 1481.13,954.851 1474.48,953.086 1467.83,951.27 1467.72,951.241 1461.19,949.407 1454.54,947.5 1447.89,945.555 1444.64,944.593 1441.24,943.574 1434.6,941.559 1427.95,939.516 1422.89,937.946 1421.3,937.447 1414.66,935.351 1408.01,933.237 1401.96,931.299 1401.36,931.106 1394.71,928.954 1388.07,926.79 1381.52,924.652 1381.42,924.618 1374.77,922.429 1368.13,920.235 1361.48,918.039 1361.38,918.005 1354.83,915.831 1348.19,913.624 1341.54,911.42 1341.35,911.358 1334.89,909.209 1328.24,907.004 1321.6,904.807 1321.3,904.711 1314.95,902.607 1308.3,900.418 1301.66,898.242 1301.11,898.064 1295.01,896.068 1288.36,893.909 1281.72,891.767 1280.62,891.417 1275.07,889.632 1268.42,887.516 1261.77,885.421 1259.68,884.77 1255.13,883.341 1248.48,881.281 1241.83,879.248 1238.1,878.123 1235.19,877.236 1228.54,875.246 1221.89,873.287 1215.64,871.476 1215.25,871.361 1208.6,869.455 1201.95,867.585 1195.3,865.753 1191.88,864.829 1188.66,863.952 1182.01,862.185 1175.36,860.461 1168.72,858.78 1166.28,858.182 1162.07,857.135 1155.42,855.532 1148.77,853.977 1142.13,852.472 1137.84,851.535 1135.48,851.013 1128.83,849.598 1122.19,848.236 1115.54,846.928 1108.89,845.675 1104.52,844.888 1102.25,844.474 1095.6,843.323 1088.95,842.229 1082.3,841.192 1075.66,840.213 1069.01,839.292 1062.36,838.427 1060.83,838.241 1055.72,837.615 1049.07,836.857 1042.42,836.156 1035.78,835.509 1029.13,834.916 1022.48,834.376 1015.83,833.887 1009.19,833.448 1002.54,833.056 995.893,832.71 989.246,832.409 982.599,832.15 975.952,831.931 969.305,831.751 962.658,831.606 961.902,831.594 956.011,831.496 949.364,831.418 942.717,831.371 936.07,831.352 929.423,831.359 922.776,831.391 916.129,831.447 909.482,831.523 904.56,831.594 902.834,831.619 896.187,831.732 889.54,831.862 882.893,832.007 876.246,832.166 869.599,832.337 862.952,832.52 856.305,832.713 849.658,832.915 843.011,833.125 836.364,833.342 829.717,833.566 823.07,833.796 816.423,834.031 809.776,834.27 803.129,834.513 796.482,834.759 789.835,835.008 783.188,835.259 776.541,835.511 769.894,835.765 763.247,836.02 756.6,836.276 749.953,836.532 743.306,836.788 736.659,837.044 730.012,837.299 723.365,837.554 716.718,837.808 710.071,838.061 705.33,838.241 703.424,838.313 696.776,838.564 690.129,838.813 683.482,839.061 676.835,839.307 670.188,839.551 663.541,839.794 656.894,840.035 650.247,840.274 643.6,840.511 636.953,840.746 630.306,840.979 623.659,841.209 617.012,841.438 "/>
<polyline clip-path="url(#clip122)" style="stroke:#ae305b; stroke-linecap:round; stroke-linejoin:round; stroke-width:4; stroke-opacity:1; fill:none" points="617.012,743.571 623.659,743.218 630.306,742.859 636.953,742.492 643.6,742.119 650.247,741.739 656.894,741.351 663.541,740.956 670.188,740.553 676.835,740.142 683.482,739.723 690.129,739.295 696.776,738.859 701.618,738.535 703.424,738.415 710.071,737.961 716.718,737.498 723.365,737.026 730.012,736.543 736.659,736.051 743.306,735.548 749.953,735.034 756.6,734.509 763.247,733.973 769.894,733.426 776.541,732.866 783.188,732.294 787.808,731.888 789.835,731.71 796.482,731.114 803.129,730.504 809.776,729.881 816.423,729.244 823.07,728.593 829.717,727.927 836.364,727.248 843.011,726.553 849.658,725.844 855.191,725.241 856.305,725.119 862.952,724.381 869.599,723.627 876.246,722.858 882.893,722.074 889.54,721.276 896.187,720.464 902.834,719.638 909.482,718.801 911.112,718.594 916.129,717.952 922.776,717.093 929.423,716.226 936.07,715.354 942.717,714.479 949.364,713.606 956.011,712.738 962.152,711.947 962.658,711.881 969.305,711.035 975.952,710.212 982.599,709.42 989.246,708.668 995.893,707.966 1002.54,707.326 1009.19,706.761 1015.83,706.283 1022.48,705.906 1029.13,705.643 1035.78,705.506 1042.42,705.506 1049.07,705.655 1055.72,705.961 1062.36,706.43 1069.01,707.066 1075.66,707.871 1082.3,708.846 1088.95,709.989 1095.6,711.295 1098.56,711.947 1102.25,712.742 1108.89,714.323 1115.54,716.048 1122.19,717.908 1124.47,718.594 1128.83,719.871 1135.48,721.941 1142.13,724.123 1145.37,725.241 1148.77,726.391 1155.42,728.737 1162.07,731.176 1163.94,731.888 1168.72,733.673 1175.36,736.239 1181.14,738.535 1182.01,738.876 1188.66,741.549 1195.3,744.289 1197.41,745.183 1201.95,747.066 1208.6,749.89 1213.07,751.83 1215.25,752.757 1221.89,755.651 1228.27,758.477 1228.54,758.593 1235.19,761.547 1241.83,764.546 1243.09,765.124 1248.48,767.558 1255.13,770.603 1257.64,771.771 1261.77,773.665 1268.42,776.75 1271.97,778.418 1275.07,779.853 1281.72,782.972 1286.12,785.065 1288.36,786.11 1295.01,789.256 1300.14,791.712 1301.66,792.424 1308.3,795.594 1314.05,798.359 1314.95,798.785 1321.6,801.973 1327.87,805.006 1328.24,805.184 1334.89,808.387 1341.54,811.612 1341.62,811.653 1348.19,814.827 1354.83,818.06 1355.32,818.3 1361.48,821.284 1368.13,824.523 1368.99,824.947 1374.77,827.752 1381.42,830.993 1382.64,831.594 1388.07,834.222 1394.71,837.46 1396.3,838.241 1401.36,840.687 1408.01,843.918 1409.99,844.888 1414.66,847.137 1421.3,850.356 1423.72,851.535 1427.95,853.562 1434.6,856.763 1437.52,858.182 1441.24,859.951 1447.89,863.127 1451.43,864.829 1454.54,866.289 1461.19,869.432 1465.5,871.476 1467.83,872.559 1474.48,875.657 1479.77,878.123 1481.13,878.738 1487.77,881.775 1494.37,884.77 1494.42,884.794 1501.07,887.751 1507.71,890.674 1509.4,891.417 1514.36,893.532 1521.01,896.331 1525.18,898.064 1527.66,899.057 1534.3,901.687 1540.95,904.234 1542.2,904.711 1547.6,906.659 1554.24,908.923 1560.89,910.953 1562.39,911.358 1567.54,912.697 1574.18,914.078 1580.83,915.009 1587.48,915.424 1594.13,915.273 1600.77,914.527 1607.42,913.193 1613.91,911.358 1614.07,911.312 1620.71,908.974 1627.36,906.201 1630.7,904.711 1634.01,903.083 1640.66,899.74 1644.01,898.064 1647.3,896.262 1653.95,892.773 1656.67,891.417 1660.6,889.322 1667.24,886.006 1669.9,884.77 1673.89,882.821 1680.54,879.811 1684.54,878.123 1687.18,876.973 1693.83,874.286 1700.48,871.783 1701.35,871.476 1707.13,869.397 1713.77,867.161 1720.42,865.063 1721.2,864.829 1727.07,863.06 1733.71,861.171 1740.36,859.386 1745.09,858.182 1747.01,857.69 1753.65,856.069 1760.3,854.529 1766.95,853.063 1773.6,851.665 1774.24,851.535 1780.24,850.319 1786.89,849.032 1793.54,847.8 1800.18,846.619 1806.83,845.485 1810.47,844.888 1813.48,844.392 1820.12,843.338 1826.77,842.323 1833.42,841.344 1840.07,840.401 1846.71,839.49 1853.36,838.609 1856.23,838.241 1860.01,837.756 1866.65,836.929 1873.3,836.129 1879.95,835.353 1886.6,834.601 1893.24,833.872 1899.89,833.163 1906.54,832.476 1913.18,831.808 1915.37,831.594 1919.83,831.157 1926.48,830.523 1933.12,829.907 1939.77,829.307 1946.42,828.723 1953.07,828.153 1959.71,827.598 1966.36,827.057 1973.01,826.529 1979.65,826.014 1986.3,825.511 1992.95,825.02 "/>
<polyline clip-path="url(#clip122)" style="stroke:#c73e4c; stroke-linecap:round; stroke-linejoin:round; stroke-width:4; stroke-opacity:1; fill:none" points="1992.95,728.588 1986.3,728.991 1979.65,729.403 1973.01,729.824 1966.36,730.253 1959.71,730.692 1953.07,731.141 1946.42,731.599 1942.31,731.888 1939.77,732.068 1933.12,732.546 1926.48,733.036 1919.83,733.537 1913.18,734.049 1906.54,734.574 1899.89,735.111 1893.24,735.661 1886.6,736.225 1879.95,736.803 1873.3,737.396 1866.65,738.003 1860.98,738.535 1860.01,738.627 1853.36,739.265 1846.71,739.921 1840.07,740.594 1833.42,741.286 1826.77,741.996 1820.12,742.727 1813.48,743.478 1806.83,744.251 1800.18,745.047 1799.08,745.183 1793.54,745.865 1786.89,746.706 1780.24,747.574 1773.6,748.468 1766.95,749.39 1760.3,750.34 1753.65,751.321 1750.3,751.83 1747.01,752.332 1740.36,753.375 1733.71,754.452 1727.07,755.564 1720.42,756.713 1713.77,757.899 1710.61,758.477 1707.13,759.122 1700.48,760.385 1693.83,761.688 1687.18,763.03 1680.54,764.412 1677.17,765.124 1673.89,765.832 1667.24,767.29 1660.6,768.779 1653.95,770.292 1647.49,771.771 1647.3,771.815 1640.66,773.357 1634.01,774.882 1627.36,776.36 1620.71,777.754 1617.18,778.418 1614.07,779.041 1607.42,780.177 1600.77,781.079 1594.13,781.692 1587.48,781.971 1580.83,781.893 1574.18,781.455 1567.54,780.676 1560.89,779.589 1555.14,778.418 1554.24,778.243 1547.6,776.719 1540.95,775.004 1534.3,773.126 1529.85,771.771 1527.66,771.128 1521.01,769.043 1514.36,766.851 1509.36,765.124 1507.71,764.573 1501.07,762.241 1494.42,759.827 1490.83,758.477 1487.77,757.355 1481.13,754.833 1474.48,752.243 1473.45,751.83 1467.83,749.621 1461.19,746.943 1456.92,745.183 1454.54,744.219 1447.89,741.462 1441.24,738.651 1440.98,738.535 1434.6,735.823 1427.95,732.947 1425.55,731.888 1421.3,730.045 1414.66,727.11 1410.5,725.241 1408.01,724.144 1401.36,721.157 1395.74,718.594 1394.71,718.134 1388.07,715.101 1381.42,712.03 1381.25,711.947 1374.77,708.954 1368.13,705.845 1366.98,705.3 1361.48,702.729 1354.83,699.585 1352.89,698.653 1348.19,696.433 1341.54,693.259 1338.95,692.006 1334.89,690.075 1328.24,686.875 1325.13,685.359 1321.6,683.664 1314.95,680.44 1311.42,678.712 1308.3,677.204 1301.66,673.96 1297.81,672.065 1295.01,670.703 1288.36,667.44 1284.28,665.418 1281.72,664.166 1275.07,660.887 1270.82,658.771 1268.42,657.596 1261.77,654.302 1257.41,652.124 1255.13,650.998 1248.48,647.691 1244.06,645.477 1241.83,644.374 1235.19,641.056 1230.76,638.83 1228.54,637.727 1221.89,634.397 1217.51,632.183 1215.25,631.057 1208.6,627.716 1204.3,625.536 1201.95,624.365 1195.3,621.011 1191.13,618.889 1188.66,617.646 1182.01,614.276 1178.04,612.242 1175.36,610.893 1168.72,607.502 1165.02,605.595 1162.07,604.094 1155.42,600.67 1152.12,598.948 1148.77,597.223 1142.13,593.745 1139.42,592.301 1135.48,590.233 1128.83,586.664 1127,585.654 1122.19,583.039 1115.54,579.305 1115.03,579.007 1108.89,575.475 1103.77,572.36 1102.25,571.453 1095.6,567.223 1093.43,565.713 1088.95,562.723 1084.04,559.066 1082.3,557.874 1075.66,552.81 1075.21,552.419 1069.01,547.951 1066.08,545.772 1062.36,543.533 1055.72,539.99 1053.61,539.125 1049.07,537.455 1042.42,536.042 1035.78,535.98 1029.13,537.342 1024.37,539.125 1022.48,539.918 1015.83,543.65 1012.55,545.772 1009.19,548.54 1004.35,552.419 1002.54,554.266 997.138,559.066 995.893,560.373 989.86,565.713 989.246,566.31 982.599,571.798 981.816,572.36 975.952,576.754 972.502,579.007 969.305,581.146 962.658,585.072 961.567,585.654 956.011,588.656 949.364,591.879 948.416,592.301 942.717,594.862 936.07,597.59 932.493,598.948 929.423,600.12 922.776,602.481 916.129,604.674 913.157,605.595 909.482,606.738 902.834,608.683 896.187,610.511 889.54,612.236 889.516,612.242 882.893,613.883 876.246,615.445 869.599,616.928 862.952,618.339 860.248,618.889 856.305,619.692 849.658,620.987 843.011,622.227 836.364,623.414 829.717,624.552 823.742,625.536 823.07,625.647 816.423,626.704 809.776,627.722 803.129,628.702 796.482,629.647 789.835,630.56 783.188,631.441 777.403,632.183 776.541,632.294 769.894,633.121 763.247,633.922 756.6,634.698 749.953,635.451 743.306,636.18 736.659,636.889 730.012,637.576 723.365,638.245 717.377,638.83 716.718,638.894 710.071,639.528 703.424,640.144 696.776,640.744 690.129,641.328 683.482,641.898 676.835,642.452 670.188,642.993 663.541,643.521 656.894,644.036 650.247,644.539 643.6,645.029 637.394,645.477 636.953,645.509 630.306,645.978 623.659,646.437 617.012,646.885 "/>
<polyline clip-path="url(#clip122)" style="stroke:#dc5039; stroke-linecap:round; stroke-linejoin:round; stroke-width:4; stroke-opacity:1; fill:none" points="617.012,552.058 623.659,551.58 630.306,551.091 636.953,550.591 643.6,550.08 650.247,549.557 656.894,549.021 663.541,548.473 670.188,547.912 676.835,547.337 683.482,546.747 690.129,546.143 694.119,545.772 696.776,545.524 703.424,544.891 710.071,544.241 716.718,543.574 723.365,542.889 730.012,542.185 736.659,541.463 743.306,540.72 749.953,539.957 756.6,539.172 756.986,539.125 763.247,538.366 769.894,537.538 776.541,536.685 783.188,535.807 789.835,534.902 796.482,533.97 803.129,533.008 806.684,532.477 809.776,532.019 816.423,531.001 823.07,529.95 829.717,528.866 836.364,527.746 843.011,526.59 847.233,525.83 849.658,525.398 856.305,524.173 862.952,522.907 869.599,521.6 876.246,520.25 881.328,519.183 882.893,518.859 889.54,517.434 896.187,515.966 902.834,514.456 909.482,512.902 910.997,512.536 916.129,511.322 922.776,509.709 929.423,508.064 936.07,506.394 938.035,505.889 942.717,504.718 949.364,503.039 956.011,501.365 962.658,499.713 964.563,499.242 969.305,498.104 975.952,496.552 982.599,495.076 989.246,493.702 995.116,492.595 995.893,492.451 1002.54,491.333 1009.19,490.377 1015.83,489.605 1022.48,489.032 1029.13,488.673 1035.78,488.537 1042.42,488.628 1049.07,488.949 1055.72,489.498 1062.36,490.268 1069.01,491.249 1075.66,492.426 1076.5,492.595 1082.3,493.766 1088.95,495.272 1095.6,496.926 1102.25,498.706 1104.16,499.242 1108.89,500.593 1115.54,502.573 1122.19,504.629 1126.17,505.889 1128.83,506.751 1135.48,508.929 1142.13,511.147 1146.26,512.536 1148.77,513.402 1155.42,515.69 1162.07,517.996 1165.49,519.183 1168.72,520.325 1175.36,522.671 1182.01,525.024 1184.3,525.83 1188.66,527.393 1195.3,529.768 1201.95,532.145 1202.89,532.477 1208.6,534.534 1215.25,536.923 1221.38,539.125 1221.89,539.309 1228.54,541.705 1235.19,544.095 1239.87,545.772 1241.83,546.483 1248.48,548.874 1255.13,551.256 1258.4,552.419 1261.77,553.636 1268.42,556.012 1275.07,558.377 1277.02,559.066 1281.72,560.74 1288.36,563.094 1295.01,565.434 1295.81,565.713 1301.66,567.771 1308.3,570.094 1314.84,572.36 1314.95,572.4 1321.6,574.702 1328.24,576.984 1334.19,579.007 1334.89,579.248 1341.54,581.504 1348.19,583.737 1353.96,585.654 1354.83,585.948 1361.48,588.147 1368.13,590.321 1374.26,592.301 1374.77,592.468 1381.42,594.6 1388.07,596.703 1394.71,598.775 1395.28,598.948 1401.36,600.829 1408.01,602.85 1414.66,604.836 1417.25,605.595 1421.3,606.794 1427.95,608.721 1434.6,610.608 1440.48,612.242 1441.24,612.456 1447.89,614.275 1454.54,616.05 1461.19,617.779 1465.57,618.889 1467.83,619.467 1474.48,621.115 1481.13,622.712 1487.77,624.258 1493.46,625.536 1494.42,625.753 1501.07,627.204 1507.71,628.598 1514.36,629.935 1521.01,631.212 1526.32,632.183 1527.66,632.431 1534.3,633.597 1540.95,634.7 1547.6,635.74 1554.24,636.714 1560.89,637.625 1567.54,638.47 1570.61,638.83 1574.18,639.254 1580.83,639.976 1587.48,640.633 1594.13,641.227 1600.77,641.758 1607.42,642.227 1614.07,642.637 1620.71,642.989 1627.36,643.286 1634.01,643.529 1640.66,643.721 1647.3,643.866 1653.95,643.965 1660.6,644.021 1667.24,644.037 1673.89,644.017 1680.54,643.961 1687.18,643.874 1693.83,643.757 1700.48,643.614 1707.13,643.447 1713.77,643.257 1720.42,643.048 1727.07,642.821 1733.71,642.578 1740.36,642.32 1747.01,642.051 1753.65,641.77 1760.3,641.48 1766.95,641.181 1773.6,640.876 1780.24,640.564 1786.89,640.248 1793.54,639.927 1800.18,639.603 1806.83,639.277 1813.48,638.949 1815.87,638.83 1820.12,638.62 1826.77,638.29 1833.42,637.96 1840.07,637.63 1846.71,637.301 1853.36,636.973 1860.01,636.646 1866.65,636.32 1873.3,635.997 1879.95,635.676 1886.6,635.357 1893.24,635.04 1899.89,634.726 1906.54,634.415 1913.18,634.106 1919.83,633.8 1926.48,633.498 1933.12,633.198 1939.77,632.902 1946.42,632.609 1953.07,632.319 1956.22,632.183 1959.71,632.032 1966.36,631.749 1973.01,631.468 1979.65,631.191 1986.3,630.917 1992.95,630.647 "/>
<polyline clip-path="url(#clip122)" style="stroke:#ed6825; stroke-linecap:round; stroke-linejoin:round; stroke-width:4; stroke-opacity:1; fill:none" points="1992.95,532.138 1986.3,532.277 1979.65,532.415 1976.64,532.477 1973.01,532.553 1966.36,532.689 1959.71,532.824 1953.07,532.958 1946.42,533.091 1939.77,533.221 1933.12,533.35 1926.48,533.476 1919.83,533.601 1913.18,533.722 1906.54,533.841 1899.89,533.957 1893.24,534.069 1886.6,534.178 1879.95,534.282 1873.3,534.383 1866.65,534.478 1860.01,534.569 1853.36,534.654 1846.71,534.733 1840.07,534.806 1833.42,534.873 1826.77,534.932 1820.12,534.983 1813.48,535.026 1806.83,535.06 1800.18,535.084 1793.54,535.099 1786.89,535.103 1780.24,535.095 1773.6,535.076 1766.95,535.044 1760.3,534.998 1753.65,534.938 1747.01,534.863 1740.36,534.773 1733.71,534.665 1727.07,534.541 1720.42,534.398 1713.77,534.235 1707.13,534.053 1700.48,533.85 1693.83,533.625 1687.18,533.377 1680.54,533.106 1673.89,532.81 1667.24,532.489 1667.03,532.477 1660.6,532.143 1653.95,531.77 1647.3,531.37 1640.66,530.942 1634.01,530.484 1627.36,529.997 1620.71,529.48 1614.07,528.931 1607.42,528.352 1600.77,527.74 1594.13,527.096 1587.48,526.419 1581.96,525.83 1580.83,525.71 1574.18,524.971 1567.54,524.199 1560.89,523.394 1554.24,522.555 1547.6,521.683 1540.95,520.778 1534.3,519.84 1529.81,519.183 1527.66,518.87 1521.01,517.872 1514.36,516.841 1507.71,515.779 1501.07,514.685 1494.42,513.561 1488.53,512.536 1487.77,512.407 1481.13,511.228 1474.48,510.02 1467.83,508.784 1461.19,507.519 1454.54,506.228 1452.83,505.889 1447.89,504.915 1441.24,503.578 1434.6,502.216 1427.95,500.83 1421.3,499.42 1420.48,499.242 1414.66,497.994 1408.01,496.547 1401.36,495.08 1394.71,493.592 1390.32,492.595 1388.07,492.088 1381.42,490.57 1374.77,489.036 1368.13,487.485 1361.61,485.948 1361.48,485.919 1354.83,484.345 1348.19,482.758 1341.54,481.159 1334.89,479.548 1333.88,479.301 1328.24,477.933 1321.6,476.31 1314.95,474.678 1308.3,473.04 1306.75,472.654 1301.66,471.401 1295.01,469.758 1288.36,468.113 1281.72,466.465 1279.88,466.007 1275.07,464.82 1268.42,463.177 1261.77,461.536 1255.13,459.899 1252.94,459.36 1248.48,458.269 1241.83,456.648 1235.19,455.034 1228.54,453.431 1225.55,452.713 1221.89,451.841 1215.25,450.266 1208.6,448.707 1201.95,447.166 1197.15,446.066 1195.3,445.646 1188.66,444.15 1182.01,442.678 1175.36,441.234 1168.72,439.822 1166.78,439.419 1162.07,438.443 1155.42,437.099 1148.77,435.796 1142.13,434.536 1135.48,433.323 1132.34,432.772 1128.83,432.158 1122.19,431.045 1115.54,429.988 1108.89,428.992 1102.25,428.059 1095.6,427.194 1088.95,426.4 1086.43,426.125 1082.3,425.673 1075.66,425.019 1069.01,424.442 1062.36,423.943 1055.72,423.524 1049.07,423.185 1042.42,422.927 1035.78,422.748 1029.13,422.649 1022.48,422.626 1015.83,422.68 1009.19,422.806 1002.54,423.002 995.893,423.266 989.246,423.592 982.599,423.978 975.952,424.42 969.305,424.912 962.658,425.451 956.011,426.032 955.003,426.125 949.364,426.649 942.717,427.299 936.07,427.98 929.423,428.686 922.776,429.415 916.129,430.161 909.482,430.922 902.834,431.695 896.187,432.477 893.685,432.772 889.54,433.265 882.893,434.057 876.246,434.851 869.599,435.644 862.952,436.435 856.305,437.223 849.658,438.006 843.011,438.782 837.507,439.419 836.364,439.552 829.717,440.315 823.07,441.069 816.423,441.814 809.776,442.549 803.129,443.274 796.482,443.987 789.835,444.69 783.188,445.382 776.541,446.063 776.508,446.066 769.894,446.733 763.247,447.393 756.6,448.041 749.953,448.677 743.306,449.302 736.659,449.916 730.012,450.519 723.365,451.111 716.718,451.692 710.071,452.262 704.718,452.713 703.424,452.822 696.776,453.373 690.129,453.913 683.482,454.444 676.835,454.964 670.188,455.475 663.541,455.976 656.894,456.468 650.247,456.951 643.6,457.426 636.953,457.891 630.306,458.348 623.659,458.797 617.012,459.238 "/>
<polyline clip-path="url(#clip122)" style="stroke:#f7850e; stroke-linecap:round; stroke-linejoin:round; stroke-width:4; stroke-opacity:1; fill:none" points="617.012,368.017 623.659,367.653 630.306,367.284 636.953,366.911 643.6,366.534 647.631,366.302 650.247,366.151 656.894,365.765 663.541,365.374 670.188,364.979 676.835,364.579 683.482,364.174 690.129,363.766 696.776,363.353 703.424,362.936 710.071,362.514 716.718,362.089 723.365,361.66 730.012,361.227 736.659,360.791 743.306,360.352 749.953,359.909 753.751,359.655 756.6,359.464 763.247,359.017 769.894,358.567 776.541,358.115 783.188,357.662 789.835,357.208 796.482,356.753 803.129,356.298 809.776,355.844 816.423,355.39 823.07,354.938 829.717,354.488 836.364,354.042 843.011,353.599 849.658,353.16 852,353.008 856.305,352.727 862.952,352.301 869.599,351.882 876.246,351.471 882.893,351.069 889.54,350.679 896.187,350.3 902.834,349.934 909.482,349.583 916.129,349.247 922.776,348.928 929.423,348.628 936.07,348.348 942.717,348.089 949.364,347.853 956.011,347.64 962.658,347.454 969.305,347.294 975.952,347.162 982.599,347.06 989.246,346.989 995.893,346.95 1002.54,346.944 1009.19,346.971 1015.83,347.034 1022.48,347.133 1029.13,347.268 1035.78,347.441 1042.42,347.651 1049.07,347.9 1055.72,348.187 1062.36,348.512 1069.01,348.877 1075.66,349.279 1082.3,349.72 1088.95,350.199 1095.6,350.715 1102.25,351.268 1108.89,351.858 1115.54,352.482 1120.84,353.008 1122.19,353.141 1128.83,353.831 1135.48,354.554 1142.13,355.308 1148.77,356.093 1155.42,356.907 1162.07,357.749 1168.72,358.618 1175.36,359.512 1176.4,359.655 1182.01,360.429 1188.66,361.369 1195.3,362.331 1201.95,363.313 1208.6,364.314 1215.25,365.333 1221.46,366.302 1221.89,366.369 1228.54,367.419 1235.19,368.484 1241.83,369.561 1248.48,370.651 1255.13,371.751 1261.77,372.86 1262.3,372.949 1268.42,373.978 1275.07,375.104 1281.72,376.235 1288.36,377.372 1295.01,378.513 1301.3,379.596 1301.66,379.657 1308.3,380.804 1314.95,381.953 1321.6,383.101 1328.24,384.25 1334.89,385.396 1339.82,386.243 1341.54,386.541 1348.19,387.683 1354.83,388.822 1361.48,389.956 1368.13,391.084 1374.77,392.205 1378.86,392.89 1381.42,393.32 1388.07,394.429 1394.71,395.529 1401.36,396.62 1408.01,397.701 1414.66,398.771 1419.47,399.537 1421.3,399.83 1427.95,400.88 1434.6,401.917 1441.24,402.941 1447.89,403.951 1454.54,404.948 1461.19,405.929 1462.94,406.184 1467.83,406.898 1474.48,407.851 1481.13,408.789 1487.77,409.71 1494.42,410.615 1501.07,411.502 1507.71,412.372 1511.3,412.831 1514.36,413.225 1521.01,414.061 1527.66,414.879 1534.3,415.679 1540.95,416.459 1547.6,417.221 1554.24,417.963 1560.89,418.686 1567.54,419.39 1568.39,419.478 1574.18,420.076 1580.83,420.743 1587.48,421.39 1594.13,422.018 1600.77,422.626 1607.42,423.215 1614.07,423.785 1620.71,424.335 1627.36,424.867 1634.01,425.379 1640.66,425.873 1644.18,426.125 1647.3,426.349 1653.95,426.807 1660.6,427.248 1667.24,427.67 1673.89,428.075 1680.54,428.463 1687.18,428.834 1693.83,429.188 1700.48,429.527 1707.13,429.849 1713.77,430.156 1720.42,430.448 1727.07,430.725 1733.71,430.987 1740.36,431.236 1747.01,431.471 1753.65,431.693 1760.3,431.902 1766.95,432.098 1773.6,432.283 1780.24,432.456 1786.89,432.617 1793.54,432.768 1793.73,432.772 1800.18,432.908 1806.83,433.038 1813.48,433.159 1820.12,433.269 1826.77,433.371 1833.42,433.464 1840.07,433.548 1846.71,433.625 1853.36,433.693 1860.01,433.754 1866.65,433.808 1873.3,433.855 1879.95,433.896 1886.6,433.93 1893.24,433.958 1899.89,433.98 1906.54,433.997 1913.18,434.008 1919.83,434.015 1926.48,434.016 1933.12,434.014 1939.77,434.006 1946.42,433.995 1953.07,433.979 1959.71,433.96 1966.36,433.937 1973.01,433.911 1979.65,433.881 1986.3,433.849 1992.95,433.813 "/>
<polyline clip-path="url(#clip122)" style="stroke:#fba40a; stroke-linecap:round; stroke-linejoin:round; stroke-width:4; stroke-opacity:1; fill:none" points="1992.95,336.085 1986.3,336.049 1979.65,336.01 1973.01,335.967 1966.36,335.919 1959.71,335.868 1953.07,335.812 1946.42,335.752 1939.77,335.688 1933.12,335.619 1926.48,335.545 1919.83,335.466 1913.18,335.382 1906.54,335.293 1899.89,335.198 1893.24,335.098 1886.6,334.991 1879.95,334.879 1873.3,334.761 1866.65,334.636 1860.01,334.505 1853.36,334.367 1846.71,334.222 1840.07,334.07 1833.42,333.911 1826.77,333.744 1820.12,333.569 1813.48,333.387 1806.83,333.196 1802.48,333.066 1800.18,332.998 1793.54,332.791 1786.89,332.575 1780.24,332.351 1773.6,332.117 1766.95,331.875 1760.3,331.623 1753.65,331.361 1747.01,331.089 1740.36,330.808 1733.71,330.516 1727.07,330.214 1720.42,329.902 1713.77,329.578 1707.13,329.244 1700.48,328.9 1693.83,328.543 1687.18,328.176 1680.54,327.797 1673.89,327.407 1667.24,327.005 1660.6,326.591 1657.91,326.419 1653.95,326.166 1647.3,325.73 1640.66,325.281 1634.01,324.821 1627.36,324.348 1620.71,323.864 1614.07,323.367 1607.42,322.858 1600.77,322.338 1594.13,321.805 1587.48,321.259 1580.83,320.702 1574.18,320.133 1570.05,319.772 1567.54,319.553 1560.89,318.962 1554.24,318.358 1547.6,317.744 1540.95,317.118 1534.3,316.481 1527.66,315.832 1521.01,315.173 1514.36,314.503 1507.71,313.823 1501.07,313.132 1501,313.125 1494.42,312.433 1487.77,311.724 1481.13,311.006 1474.48,310.278 1467.83,309.542 1461.19,308.797 1454.54,308.044 1447.89,307.283 1441.24,306.515 1440.93,306.478 1434.6,305.741 1427.95,304.96 1421.3,304.173 1414.66,303.38 1408.01,302.582 1401.36,301.778 1394.71,300.971 1388.07,300.159 1385.4,299.831 1381.42,299.345 1374.77,298.527 1368.13,297.708 1361.48,296.886 1354.83,296.063 1348.19,295.239 1341.54,294.414 1334.89,293.59 1331.62,293.184 1328.24,292.768 1321.6,291.946 1314.95,291.127 1308.3,290.31 1301.66,289.497 1295.01,288.688 1288.36,287.883 1281.72,287.083 1277.15,286.537 1275.07,286.289 1268.42,285.501 1261.77,284.721 1255.13,283.948 1248.48,283.184 1241.83,282.429 1235.19,281.684 1228.54,280.949 1221.89,280.225 1218.77,279.89 1215.25,279.513 1208.6,278.812 1201.95,278.125 1195.3,277.452 1188.66,276.792 1182.01,276.148 1175.36,275.52 1168.72,274.907 1162.07,274.311 1155.42,273.733 1149.62,273.243 1148.77,273.172 1142.13,272.628 1135.48,272.103 1128.83,271.598 1122.19,271.112 1115.54,270.646 1108.89,270.2 1102.25,269.775 1095.6,269.371 1088.95,268.988 1082.3,268.626 1075.66,268.287 1069.01,267.968 1062.36,267.672 1055.72,267.397 1049.07,267.143 1042.42,266.912 1035.78,266.702 1032.07,266.596 1029.13,266.512 1022.48,266.344 1015.83,266.197 1009.19,266.071 1002.54,265.964 995.893,265.878 989.246,265.812 982.599,265.765 975.952,265.736 969.305,265.726 962.658,265.734 956.011,265.759 949.364,265.801 942.717,265.859 936.07,265.932 929.423,266.021 922.776,266.124 916.129,266.241 909.482,266.371 902.834,266.514 899.309,266.596 896.187,266.669 889.54,266.835 882.893,267.012 876.246,267.199 869.599,267.396 862.952,267.602 856.305,267.816 849.658,268.039 843.011,268.269 836.364,268.506 829.717,268.749 823.07,268.998 816.423,269.253 809.776,269.513 803.129,269.777 796.482,270.046 789.835,270.318 783.188,270.594 776.541,270.873 769.894,271.154 763.247,271.438 756.6,271.723 749.953,272.011 743.306,272.299 736.659,272.589 730.012,272.88 723.365,273.171 721.724,273.243 716.718,273.463 710.071,273.755 703.424,274.047 696.776,274.338 690.129,274.63 683.482,274.921 676.835,275.211 670.188,275.5 663.541,275.788 656.894,276.075 650.247,276.361 643.6,276.645 636.953,276.928 630.306,277.21 623.659,277.49 617.012,277.768 "/>
<polyline clip-path="url(#clip122)" style="stroke:#f9c52c; stroke-linecap:round; stroke-linejoin:round; stroke-width:4; stroke-opacity:1; fill:none" points="617.012,187.95 623.659,187.748 630.306,187.546 636.953,187.344 643.6,187.143 650.247,186.942 653.904,186.832 656.894,186.742 663.541,186.542 670.188,186.343 676.835,186.144 683.482,185.947 690.129,185.751 696.776,185.556 703.424,185.363 710.071,185.171 716.718,184.981 723.365,184.793 730.012,184.607 736.659,184.424 743.306,184.243 749.953,184.064 756.6,183.889 763.247,183.716 769.894,183.547 776.541,183.382 783.188,183.22 789.835,183.063 796.482,182.91 803.129,182.761 809.776,182.617 816.423,182.478 823.07,182.345 829.717,182.217 836.364,182.095 843.011,181.979 849.658,181.87 856.305,181.767 862.952,181.672 869.599,181.584 876.246,181.503 882.893,181.431 889.54,181.367 896.187,181.311 902.834,181.264 909.482,181.226 916.129,181.198 922.776,181.179 929.423,181.171 936.07,181.173 942.717,181.185 949.364,181.208 956.011,181.242 962.658,181.287 969.305,181.344 975.952,181.413 982.599,181.494 989.246,181.587 995.893,181.692 1002.54,181.81 1009.19,181.94 1015.83,182.084 1022.48,182.24 1029.13,182.41 1035.78,182.592 1042.42,182.788 1049.07,182.998 1055.72,183.22 1062.36,183.456 1069.01,183.706 1075.66,183.969 1082.3,184.245 1088.95,184.534 1095.6,184.837 1102.25,185.152 1108.89,185.481 1115.54,185.822 1122.19,186.177 1128.83,186.543 1133.9,186.832 1135.48,186.922 1142.13,187.313 1148.77,187.715 1155.42,188.129 1162.07,188.555 1168.72,188.992 1175.36,189.439 1182.01,189.898 1188.66,190.366 1195.3,190.845 1201.95,191.333 1208.6,191.831 1215.25,192.338 1221.89,192.853 1228.54,193.377 1229.82,193.479 1235.19,193.908 1241.83,194.447 1248.48,194.993 1255.13,195.545 1261.77,196.105 1268.42,196.67 1275.07,197.241 1281.72,197.818 1288.36,198.399 1295.01,198.984 1301.66,199.574 1307.83,200.126 1308.3,200.168 1314.95,200.765 1321.6,201.365 1328.24,201.967 1334.89,202.572 1341.54,203.178 1348.19,203.786 1354.83,204.395 1361.48,205.005 1368.13,205.615 1374.77,206.225 1380.75,206.773 1381.42,206.835 1388.07,207.444 1394.71,208.053 1401.36,208.66 1408.01,209.265 1414.66,209.868 1421.3,210.469 1427.95,211.068 1434.6,211.663 1441.24,212.255 1447.89,212.844 1454.44,213.42 1454.54,213.429 1461.19,214.01 1467.83,214.588 1474.48,215.16 1481.13,215.728 1487.77,216.291 1494.42,216.849 1501.07,217.401 1507.71,217.948 1514.36,218.488 1521.01,219.023 1527.66,219.552 1534.21,220.067 1534.3,220.074 1540.95,220.59 1547.6,221.1 1554.24,221.603 1560.89,222.098 1567.54,222.587 1574.18,223.069 1580.83,223.543 1587.48,224.01 1594.13,224.47 1600.77,224.922 1607.42,225.366 1614.07,225.803 1620.71,226.232 1627.36,226.653 1628.34,226.714 1634.01,227.067 1640.66,227.473 1647.3,227.871 1653.95,228.262 1660.6,228.645 1667.24,229.019 1673.89,229.386 1680.54,229.745 1687.18,230.096 1693.83,230.44 1700.48,230.776 1707.13,231.104 1713.77,231.424 1720.42,231.737 1727.07,232.042 1733.71,232.34 1740.36,232.63 1747.01,232.913 1753.65,233.189 1757.91,233.361 1760.3,233.458 1766.95,233.72 1773.6,233.974 1780.24,234.222 1786.89,234.463 1793.54,234.697 1800.18,234.925 1806.83,235.146 1813.48,235.36 1820.12,235.568 1826.77,235.77 1833.42,235.966 1840.07,236.156 1846.71,236.339 1853.36,236.517 1860.01,236.689 1866.65,236.856 1873.3,237.017 1879.95,237.173 1886.6,237.323 1893.24,237.468 1899.89,237.609 1906.54,237.744 1913.18,237.874 1919.83,238 1926.48,238.121 1933.12,238.237 1939.77,238.349 1946.42,238.457 1953.07,238.56 1959.71,238.659 1966.36,238.755 1973.01,238.846 1979.65,238.933 1986.3,239.017 1992.95,239.097 "/>
<polyline clip-path="url(#clip122)" style="stroke:#f2e660; stroke-linecap:round; stroke-linejoin:round; stroke-width:4; stroke-opacity:1; fill:none" points="1992.95,142.843 1986.3,142.738 1979.65,142.63 1973.01,142.519 1966.36,142.404 1959.71,142.286 1953.07,142.165 1946.42,142.039 1939.77,141.911 1933.12,141.778 1926.48,141.642 1919.83,141.502 1913.18,141.357 1906.54,141.209 1899.89,141.057 1893.24,140.901 1886.6,140.741 1879.95,140.576 1873.3,140.408 1869.26,140.303 1866.65,140.235 1860.01,140.057 1853.36,139.875 1846.71,139.689 1840.07,139.498 1833.42,139.303 1826.77,139.102 1820.12,138.897 1813.48,138.688 1806.83,138.473 1800.18,138.254 1793.54,138.029 1786.89,137.8 1780.24,137.566 1773.6,137.326 1766.95,137.082 1760.3,136.832 1753.65,136.578 1747.01,136.318 1740.36,136.052 1733.71,135.782 1727.07,135.506 1720.42,135.225 1713.77,134.939 1707.13,134.648 1700.48,134.351 1693.83,134.049 1687.18,133.741 1685.36,133.656 1680.54,133.429 1673.89,133.111 1667.24,132.788 1660.6,132.46 1653.95,132.126 1647.3,131.787 1640.66,131.443 1634.01,131.094 1627.36,130.74 1620.71,130.381 1614.07,130.017 1607.42,129.648 1600.77,129.274 1594.13,128.895 1587.48,128.511 1580.83,128.123 1574.18,127.73 1567.54,127.333 1562.17,127.008 1560.89,126.931 1554.24,126.526 1547.6,126.116 1540.95,125.702 1534.3,125.284 1527.66,124.862 1521.01,124.437 1514.36,124.007 1507.71,123.575 1501.07,123.139 1494.42,122.7 1487.77,122.258 1481.13,121.813 1474.48,121.365 1467.83,120.915 1461.19,120.463 1459.71,120.361 1454.54,120.008 1447.89,119.552 1441.24,119.093 1434.6,118.634 1427.95,118.172 1421.3,117.71 1414.66,117.246 1408.01,116.782 1401.36,116.317 1394.71,115.851 1388.07,115.386 1381.42,114.92 1374.77,114.455 1368.13,113.991 1364.17,113.714 1361.48,113.527 1354.83,113.064 1348.19,112.602 1341.54,112.142 1334.89,111.683 1328.24,111.226 1321.6,110.772 1314.95,110.319 1308.3,109.87 1301.66,109.423 1295.01,108.979 1288.36,108.539 1281.72,108.102 1275.07,107.669 1268.42,107.24 1265.72,107.067 1261.77,106.816 1255.13,106.395 1248.48,105.98 1241.83,105.569 1235.19,105.164 1228.54,104.763 1221.89,104.369 1215.25,103.98 1208.6,103.598 1201.95,103.221 1195.3,102.851 1188.66,102.488 1182.01,102.132 1175.36,101.782 1168.72,101.44 1162.07,101.105 1155.42,100.777 1148.77,100.457 1148,100.42 1142.13,100.144 1135.48,99.8395 1128.83,99.5428 1122.19,99.2542 1115.54,98.9738 1108.89,98.7017 1102.25,98.438 1095.6,98.1829 1088.95,97.9362 1082.3,97.6982 1075.66,97.4689 1069.01,97.2483 1062.36,97.0364 1055.72,96.8333 1049.07,96.6389 1042.42,96.4534 1035.78,96.2765 1029.13,96.1085 1022.48,95.9492 1015.83,95.7985 1009.19,95.6565 1002.54,95.5231 995.893,95.3983 989.246,95.2819 982.599,95.1739 975.952,95.0741 969.305,94.9826 962.658,94.8993 956.011,94.8239 949.364,94.7564 942.717,94.6967 936.07,94.6446 929.423,94.6001 922.776,94.563 916.129,94.5331 909.482,94.5104 902.834,94.4946 896.187,94.4856 889.54,94.4833 882.893,94.4875 876.246,94.4981 869.599,94.5148 862.952,94.5376 856.305,94.5663 849.658,94.6007 843.011,94.6406 836.364,94.6859 829.717,94.7364 823.07,94.792 816.423,94.8525 809.776,94.9177 803.129,94.9874 796.482,95.0616 789.835,95.14 783.188,95.2225 776.541,95.309 769.894,95.3992 763.247,95.4931 756.6,95.5904 749.953,95.691 743.306,95.7949 736.659,95.9018 730.012,96.0116 723.365,96.1242 716.718,96.2394 710.071,96.3571 703.424,96.4772 696.776,96.5996 690.129,96.7241 683.482,96.8506 676.835,96.979 670.188,97.1092 663.541,97.2411 656.894,97.3745 650.247,97.5095 643.6,97.6458 636.953,97.7834 630.306,97.9222 623.659,98.062 617.012,98.2029 "/>
<polyline clip-path="url(#clip122)" style="stroke:#c73e4c; stroke-linecap:round; stroke-linejoin:round; stroke-width:4; stroke-opacity:1; fill:none" points="1582.37,871.476 1581.49,878.123 1587.48,884.074 1594.13,884.37 1600.31,878.123 1599.36,871.476 1594.13,865.353 1587.48,865.484 1582.37,871.476 "/>
<polyline clip-path="url(#clip122)" style="stroke:#ae305b; stroke-linecap:round; stroke-linejoin:round; stroke-width:4; stroke-opacity:1; fill:none" points="1043.45,559.066 1042.42,560.586 1035.78,561.963 1033.66,559.066 1035.78,556.648 1042.42,557.889 1043.45,559.066 "/>
<polyline clip-path="url(#clip122)" style="stroke:#000000; stroke-linecap:round; stroke-linejoin:round; stroke-width:8; stroke-opacity:1; fill:none" points="1028.67,575.683 1051.69,588.977 1074.72,602.271 1097.75,615.565 1120.77,628.859 1143.8,642.154 1166.82,655.448 1189.85,668.742 1212.88,682.036 1235.9,695.33 1258.93,708.624 1281.95,721.918 1304.98,735.212 1328.01,748.506 1351.03,761.8 1374.06,775.094 1397.08,788.388 1420.11,801.682 1443.14,814.976 1466.16,828.27 1489.19,841.564 1512.21,854.859 1535.24,868.153 1558.27,881.447 1581.29,894.741 "/>
<circle clip-path="url(#clip122)" cx="1038.64" cy="558.414" r="7.2" fill="#3da44d" fill-rule="evenodd" fill-opacity="1" stroke="#000000" stroke-opacity="1" stroke-width="3.2"/>
<circle clip-path="url(#clip122)" cx="1591.26" cy="877.471" r="7.2" fill="#3da44d" fill-rule="evenodd" fill-opacity="1" stroke="#000000" stroke-opacity="1" stroke-width="3.2"/>
</svg>
