<?xml version="1.0" encoding="utf-8"?>
<svg xmlns="http://www.w3.org/2000/svg" xmlns:xlink="http://www.w3.org/1999/xlink" width="800" height="300" viewBox="0 0 3200 1200">
<defs>
  <clipPath id="clip180">
    <rect x="0" y="0" width="3200" height="1200"/>
  </clipPath>
</defs>
<path clip-path="url(#clip180)" d="M0 1200 L3200 1200 L3200 0 L0 0  Z" fill="#ffffff" fill-rule="evenodd" fill-opacity="1"/>
<defs>
  <clipPath id="clip181">
    <rect x="640" y="0" width="2241" height="1200"/>
  </clipPath>
</defs>
<path clip-path="url(#clip180)" d="M273.928 1063.09 L1567.27 1063.09 L1567.27 47.2441 L273.928 47.2441  Z" fill="#ffffff" fill-rule="evenodd" fill-opacity="1"/>
<defs>
  <clipPath id="clip182">
    <rect x="273" y="47" width="1294" height="1017"/>
  </clipPath>
</defs>
<polyline clip-path="url(#clip182)" style="stroke:#000000; stroke-linecap:round; stroke-linejoin:round; stroke-width:2; stroke-opacity:0.1; fill:none" points="513.887,1063.09 513.887,47.2441 "/>
<polyline clip-path="url(#clip182)" style="stroke:#000000; stroke-linecap:round; stroke-linejoin:round; stroke-width:2; stroke-opacity:0.1; fill:none" points="768.082,1063.09 768.082,47.2441 "/>
<polyline clip-path="url(#clip182)" style="stroke:#000000; stroke-linecap:round; stroke-linejoin:round; stroke-width:2; stroke-opacity:0.1; fill:none" points="1022.28,1063.09 1022.28,47.2441 "/>
<polyline clip-path="url(#clip182)" style="stroke:#000000; stroke-linecap:round; stroke-linejoin:round; stroke-width:2; stroke-opacity:0.1; fill:none" points="1276.47,1063.09 1276.47,47.2441 "/>
<polyline clip-path="url(#clip182)" style="stroke:#000000; stroke-linecap:round; stroke-linejoin:round; stroke-width:2; stroke-opacity:0.1; fill:none" points="1530.67,1063.09 1530.67,47.2441 "/>
<polyline clip-path="url(#clip182)" style="stroke:#000000; stroke-linecap:round; stroke-linejoin:round; stroke-width:2; stroke-opacity:0.1; fill:none" points="273.928,973.001 1567.27,973.001 "/>
<polyline clip-path="url(#clip182)" style="stroke:#000000; stroke-linecap:round; stroke-linejoin:round; stroke-width:2; stroke-opacity:0.1; fill:none" points="273.928,833.508 1567.27,833.508 "/>
<polyline clip-path="url(#clip182)" style="stroke:#000000; stroke-linecap:round; stroke-linejoin:round; stroke-width:2; stroke-opacity:0.1; fill:none" points="273.928,694.014 1567.27,694.014 "/>
<polyline clip-path="url(#clip182)" style="stroke:#000000; stroke-linecap:round; stroke-linejoin:round; stroke-width:2; stroke-opacity:0.1; fill:none" points="273.928,554.521 1567.27,554.521 "/>
<polyline clip-path="url(#clip182)" style="stroke:#000000; stroke-linecap:round; stroke-linejoin:round; stroke-width:2; stroke-opacity:0.1; fill:none" points="273.928,415.027 1567.27,415.027 "/>
<polyline clip-path="url(#clip182)" style="stroke:#000000; stroke-linecap:round; stroke-linejoin:round; stroke-width:2; stroke-opacity:0.1; fill:none" points="273.928,275.533 1567.27,275.533 "/>
<polyline clip-path="url(#clip182)" style="stroke:#000000; stroke-linecap:round; stroke-linejoin:round; stroke-width:2; stroke-opacity:0.1; fill:none" points="273.928,136.04 1567.27,136.04 "/>
<polyline clip-path="url(#clip180)" style="stroke:#000000; stroke-linecap:round; stroke-linejoin:round; stroke-width:4; stroke-opacity:1; fill:none" points="273.928,1063.09 1567.27,1063.09 "/>
<polyline clip-path="url(#clip180)" style="stroke:#000000; stroke-linecap:round; stroke-linejoin:round; stroke-width:4; stroke-opacity:1; fill:none" points="513.887,1063.09 513.887,1044.19 "/>
<polyline clip-path="url(#clip180)" style="stroke:#000000; stroke-linecap:round; stroke-linejoin:round; stroke-width:4; stroke-opacity:1; fill:none" points="768.082,1063.09 768.082,1044.19 "/>
<polyline clip-path="url(#clip180)" style="stroke:#000000; stroke-linecap:round; stroke-linejoin:round; stroke-width:4; stroke-opacity:1; fill:none" points="1022.28,1063.09 1022.28,1044.19 "/>
<polyline clip-path="url(#clip180)" style="stroke:#000000; stroke-linecap:round; stroke-linejoin:round; stroke-width:4; stroke-opacity:1; fill:none" points="1276.47,1063.09 1276.47,1044.19 "/>
<polyline clip-path="url(#clip180)" style="stroke:#000000; stroke-linecap:round; stroke-linejoin:round; stroke-width:4; stroke-opacity:1; fill:none" points="1530.67,1063.09 1530.67,1044.19 "/>
<path clip-path="url(#clip180)" d="M504.165 1097.33 L522.522 1097.33 L522.522 1101.27 L508.448 1101.27 L508.448 1109.74 Q509.466 1109.39 510.485 1109.23 Q511.503 1109.04 512.522 1109.04 Q518.309 1109.04 521.688 1112.21 Q525.068 1115.39 525.068 1120.8 Q525.068 1126.38 521.596 1129.48 Q518.124 1132.56 511.804 1132.56 Q509.628 1132.56 507.36 1132.19 Q505.114 1131.82 502.707 1131.08 L502.707 1126.38 Q504.79 1127.51 507.012 1128.07 Q509.235 1128.63 511.712 1128.63 Q515.716 1128.63 518.054 1126.52 Q520.392 1124.41 520.392 1120.8 Q520.392 1117.19 518.054 1115.08 Q515.716 1112.98 511.712 1112.98 Q509.837 1112.98 507.962 1113.39 Q506.11 1113.81 504.165 1114.69 L504.165 1097.33 Z" fill="#000000" fill-rule="nonzero" fill-opacity="1" /><path clip-path="url(#clip180)" d="M742.77 1127.95 L750.408 1127.95 L750.408 1101.59 L742.098 1103.26 L742.098 1099 L750.362 1097.33 L755.038 1097.33 L755.038 1127.95 L762.677 1127.95 L762.677 1131.89 L742.77 1131.89 L742.77 1127.95 Z" fill="#000000" fill-rule="nonzero" fill-opacity="1" /><path clip-path="url(#clip180)" d="M782.121 1100.41 Q778.51 1100.41 776.681 1103.97 Q774.876 1107.51 774.876 1114.64 Q774.876 1121.75 776.681 1125.32 Q778.51 1128.86 782.121 1128.86 Q785.756 1128.86 787.561 1125.32 Q789.39 1121.75 789.39 1114.64 Q789.39 1107.51 787.561 1103.97 Q785.756 1100.41 782.121 1100.41 M782.121 1096.7 Q787.931 1096.7 790.987 1101.31 Q794.066 1105.89 794.066 1114.64 Q794.066 1123.37 790.987 1127.98 Q787.931 1132.56 782.121 1132.56 Q776.311 1132.56 773.232 1127.98 Q770.177 1123.37 770.177 1114.64 Q770.177 1105.89 773.232 1101.31 Q776.311 1096.7 782.121 1096.7 Z" fill="#000000" fill-rule="nonzero" fill-opacity="1" /><path clip-path="url(#clip180)" d="M997.462 1127.95 L1005.1 1127.95 L1005.1 1101.59 L996.791 1103.26 L996.791 1099 L1005.05 1097.33 L1009.73 1097.33 L1009.73 1127.95 L1017.37 1127.95 L1017.37 1131.89 L997.462 1131.89 L997.462 1127.95 Z" fill="#000000" fill-rule="nonzero" fill-opacity="1" /><path clip-path="url(#clip180)" d="M1026.86 1097.33 L1045.22 1097.33 L1045.22 1101.27 L1031.14 1101.27 L1031.14 1109.74 Q1032.16 1109.39 1033.18 1109.23 Q1034.2 1109.04 1035.22 1109.04 Q1041 1109.04 1044.38 1112.21 Q1047.76 1115.39 1047.76 1120.8 Q1047.76 1126.38 1044.29 1129.48 Q1040.82 1132.56 1034.5 1132.56 Q1032.32 1132.56 1030.05 1132.19 Q1027.81 1131.82 1025.4 1131.08 L1025.4 1126.38 Q1027.48 1127.51 1029.71 1128.07 Q1031.93 1128.63 1034.41 1128.63 Q1038.41 1128.63 1040.75 1126.52 Q1043.09 1124.41 1043.09 1120.8 Q1043.09 1117.19 1040.75 1115.08 Q1038.41 1112.98 1034.41 1112.98 Q1032.53 1112.98 1030.66 1113.39 Q1028.8 1113.81 1026.86 1114.69 L1026.86 1097.33 Z" fill="#000000" fill-rule="nonzero" fill-opacity="1" /><path clip-path="url(#clip180)" d="M1255.24 1127.95 L1271.56 1127.95 L1271.56 1131.89 L1249.62 1131.89 L1249.62 1127.95 Q1252.28 1125.2 1256.86 1120.57 Q1261.47 1115.92 1262.65 1114.58 Q1264.9 1112.05 1265.78 1110.32 Q1266.68 1108.56 1266.68 1106.87 Q1266.68 1104.11 1264.74 1102.38 Q1262.81 1100.64 1259.71 1100.64 Q1257.51 1100.64 1255.06 1101.4 Q1252.63 1102.17 1249.85 1103.72 L1249.85 1099 Q1252.67 1097.86 1255.13 1097.28 Q1257.58 1096.7 1259.62 1096.7 Q1264.99 1096.7 1268.18 1099.39 Q1271.38 1102.08 1271.38 1106.57 Q1271.38 1108.7 1270.57 1110.62 Q1269.78 1112.51 1267.67 1115.11 Q1267.1 1115.78 1263.99 1119 Q1260.89 1122.19 1255.24 1127.95 Z" fill="#000000" fill-rule="nonzero" fill-opacity="1" /><path clip-path="url(#clip180)" d="M1291.38 1100.41 Q1287.77 1100.41 1285.94 1103.97 Q1284.13 1107.51 1284.13 1114.64 Q1284.13 1121.75 1285.94 1125.32 Q1287.77 1128.86 1291.38 1128.86 Q1295.01 1128.86 1296.82 1125.32 Q1298.65 1121.75 1298.65 1114.64 Q1298.65 1107.51 1296.82 1103.97 Q1295.01 1100.41 1291.38 1100.41 M1291.38 1096.7 Q1297.19 1096.7 1300.24 1101.31 Q1303.32 1105.89 1303.32 1114.64 Q1303.32 1123.37 1300.24 1127.98 Q1297.19 1132.56 1291.38 1132.56 Q1285.57 1132.56 1282.49 1127.98 Q1279.43 1123.37 1279.43 1114.64 Q1279.43 1105.89 1282.49 1101.31 Q1285.57 1096.7 1291.38 1096.7 Z" fill="#000000" fill-rule="nonzero" fill-opacity="1" /><path clip-path="url(#clip180)" d="M1509.94 1127.95 L1526.26 1127.95 L1526.26 1131.89 L1504.31 1131.89 L1504.31 1127.95 Q1506.97 1125.2 1511.56 1120.57 Q1516.16 1115.92 1517.34 1114.58 Q1519.59 1112.05 1520.47 1110.32 Q1521.37 1108.56 1521.37 1106.87 Q1521.37 1104.11 1519.43 1102.38 Q1517.51 1100.64 1514.4 1100.64 Q1512.21 1100.64 1509.75 1101.4 Q1507.32 1102.17 1504.54 1103.72 L1504.54 1099 Q1507.37 1097.86 1509.82 1097.28 Q1512.27 1096.7 1514.31 1096.7 Q1519.68 1096.7 1522.88 1099.39 Q1526.07 1102.08 1526.07 1106.57 Q1526.07 1108.7 1525.26 1110.62 Q1524.47 1112.51 1522.37 1115.11 Q1521.79 1115.78 1518.69 1119 Q1515.58 1122.19 1509.94 1127.95 Z" fill="#000000" fill-rule="nonzero" fill-opacity="1" /><path clip-path="url(#clip180)" d="M1536.12 1097.33 L1554.47 1097.33 L1554.47 1101.27 L1540.4 1101.27 L1540.4 1109.74 Q1541.42 1109.39 1542.44 1109.23 Q1543.45 1109.04 1544.47 1109.04 Q1550.26 1109.04 1553.64 1112.21 Q1557.02 1115.39 1557.02 1120.8 Q1557.02 1126.38 1553.55 1129.48 Q1550.08 1132.56 1543.76 1132.56 Q1541.58 1132.56 1539.31 1132.19 Q1537.07 1131.82 1534.66 1131.08 L1534.66 1126.38 Q1536.74 1127.51 1538.96 1128.07 Q1541.19 1128.63 1543.66 1128.63 Q1547.67 1128.63 1550.01 1126.52 Q1552.34 1124.41 1552.34 1120.8 Q1552.34 1117.19 1550.01 1115.08 Q1547.67 1112.98 1543.66 1112.98 Q1541.79 1112.98 1539.91 1113.39 Q1538.06 1113.81 1536.12 1114.69 L1536.12 1097.33 Z" fill="#000000" fill-rule="nonzero" fill-opacity="1" /><path clip-path="url(#clip180)" d="M676.824 1202.16 Q676.824 1195.7 674.15 1192.04 Q671.509 1188.35 666.862 1188.35 Q662.215 1188.35 659.541 1192.04 Q656.899 1195.7 656.899 1202.16 Q656.899 1208.62 659.541 1212.31 Q662.215 1215.98 666.862 1215.98 Q671.509 1215.98 674.15 1212.31 Q676.824 1208.62 676.824 1202.16 M656.899 1189.72 Q658.745 1186.53 661.546 1185.01 Q664.379 1183.45 668.294 1183.45 Q674.787 1183.45 678.829 1188.6 Q682.903 1193.76 682.903 1202.16 Q682.903 1210.56 678.829 1215.72 Q674.787 1220.88 668.294 1220.88 Q664.379 1220.88 661.546 1219.35 Q658.745 1217.79 656.899 1214.61 L656.899 1219.95 L651.011 1219.95 L651.011 1170.43 L656.899 1170.43 L656.899 1189.72 Z" fill="#000000" fill-rule="nonzero" fill-opacity="1" /><path clip-path="url(#clip180)" d="M706.425 1188.41 Q701.714 1188.41 698.977 1192.1 Q696.239 1195.76 696.239 1202.16 Q696.239 1208.56 698.945 1212.25 Q701.682 1215.91 706.425 1215.91 Q711.103 1215.91 713.841 1212.22 Q716.578 1208.53 716.578 1202.16 Q716.578 1195.83 713.841 1192.14 Q711.103 1188.41 706.425 1188.41 M706.425 1183.45 Q714.063 1183.45 718.424 1188.41 Q722.784 1193.38 722.784 1202.16 Q722.784 1210.91 718.424 1215.91 Q714.063 1220.88 706.425 1220.88 Q698.754 1220.88 694.393 1215.91 Q690.065 1210.91 690.065 1202.16 Q690.065 1193.38 694.393 1188.41 Q698.754 1183.45 706.425 1183.45 Z" fill="#000000" fill-rule="nonzero" fill-opacity="1" /><path clip-path="url(#clip180)" d="M755.95 1189.72 L755.95 1170.43 L761.806 1170.43 L761.806 1219.95 L755.95 1219.95 L755.95 1214.61 Q754.104 1217.79 751.271 1219.35 Q748.47 1220.88 744.523 1220.88 Q738.062 1220.88 733.988 1215.72 Q729.946 1210.56 729.946 1202.16 Q729.946 1193.76 733.988 1188.6 Q738.062 1183.45 744.523 1183.45 Q748.47 1183.45 751.271 1185.01 Q754.104 1186.53 755.95 1189.72 M735.993 1202.16 Q735.993 1208.62 738.635 1212.31 Q741.309 1215.98 745.956 1215.98 Q750.603 1215.98 753.276 1212.31 Q755.95 1208.62 755.95 1202.16 Q755.95 1195.7 753.276 1192.04 Q750.603 1188.35 745.956 1188.35 Q741.309 1188.35 738.635 1192.04 Q735.993 1195.7 735.993 1202.16 Z" fill="#000000" fill-rule="nonzero" fill-opacity="1" /><path clip-path="url(#clip180)" d="M788.701 1223.26 Q786.219 1229.63 783.863 1231.57 Q781.508 1233.51 777.561 1233.51 L772.883 1233.51 L772.883 1228.61 L776.32 1228.61 Q778.739 1228.61 780.076 1227.47 Q781.413 1226.32 783.036 1222.05 L784.086 1219.38 L769.668 1184.31 L775.874 1184.31 L787.014 1212.19 L798.154 1184.31 L804.361 1184.31 L788.701 1223.26 Z" fill="#000000" fill-rule="nonzero" fill-opacity="1" /><path clip-path="url(#clip180)" d="M838.831 1214.61 L838.831 1233.51 L832.943 1233.51 L832.943 1184.31 L838.831 1184.31 L838.831 1189.72 Q840.677 1186.53 843.478 1185.01 Q846.311 1183.45 850.226 1183.45 Q856.719 1183.45 860.761 1188.6 Q864.835 1193.76 864.835 1202.16 Q864.835 1210.56 860.761 1215.72 Q856.719 1220.88 850.226 1220.88 Q846.311 1220.88 843.478 1219.35 Q840.677 1217.79 838.831 1214.61 M858.756 1202.16 Q858.756 1195.7 856.082 1192.04 Q853.441 1188.35 848.794 1188.35 Q844.147 1188.35 841.473 1192.04 Q838.831 1195.7 838.831 1202.16 Q838.831 1208.62 841.473 1212.31 Q844.147 1215.98 848.794 1215.98 Q853.441 1215.98 856.082 1212.31 Q858.756 1208.62 858.756 1202.16 Z" fill="#000000" fill-rule="nonzero" fill-opacity="1" /><path clip-path="url(#clip180)" d="M888.356 1188.41 Q883.646 1188.41 880.909 1192.1 Q878.171 1195.76 878.171 1202.16 Q878.171 1208.56 880.877 1212.25 Q883.614 1215.91 888.356 1215.91 Q893.035 1215.91 895.772 1212.22 Q898.51 1208.53 898.51 1202.16 Q898.51 1195.83 895.772 1192.14 Q893.035 1188.41 888.356 1188.41 M888.356 1183.45 Q895.995 1183.45 900.356 1188.41 Q904.716 1193.38 904.716 1202.16 Q904.716 1210.91 900.356 1215.91 Q895.995 1220.88 888.356 1220.88 Q880.686 1220.88 876.325 1215.91 Q871.997 1210.91 871.997 1202.16 Q871.997 1193.38 876.325 1188.41 Q880.686 1183.45 888.356 1183.45 Z" fill="#000000" fill-rule="nonzero" fill-opacity="1" /><path clip-path="url(#clip180)" d="M914.424 1184.31 L920.28 1184.31 L920.28 1219.95 L914.424 1219.95 L914.424 1184.31 M914.424 1170.43 L920.28 1170.43 L920.28 1177.84 L914.424 1177.84 L914.424 1170.43 Z" fill="#000000" fill-rule="nonzero" fill-opacity="1" /><path clip-path="url(#clip180)" d="M962.167 1198.44 L962.167 1219.95 L956.31 1219.95 L956.31 1198.63 Q956.31 1193.57 954.337 1191.05 Q952.364 1188.54 948.417 1188.54 Q943.674 1188.54 940.937 1191.56 Q938.2 1194.59 938.2 1199.81 L938.2 1219.95 L932.312 1219.95 L932.312 1184.31 L938.2 1184.31 L938.2 1189.84 Q940.301 1186.63 943.133 1185.04 Q945.998 1183.45 949.722 1183.45 Q955.865 1183.45 959.016 1187.27 Q962.167 1191.05 962.167 1198.44 Z" fill="#000000" fill-rule="nonzero" fill-opacity="1" /><path clip-path="url(#clip180)" d="M979.641 1174.18 L979.641 1184.31 L991.704 1184.31 L991.704 1188.86 L979.641 1188.86 L979.641 1208.21 Q979.641 1212.57 980.818 1213.81 Q982.028 1215.05 985.688 1215.05 L991.704 1215.05 L991.704 1219.95 L985.688 1219.95 Q978.909 1219.95 976.33 1217.44 Q973.752 1214.89 973.752 1208.21 L973.752 1188.86 L969.456 1188.86 L969.456 1184.31 L973.752 1184.31 L973.752 1174.18 L979.641 1174.18 Z" fill="#000000" fill-rule="nonzero" fill-opacity="1" /><path clip-path="url(#clip180)" d="M1020.13 1184.31 L1025.98 1184.31 L1025.98 1219.95 L1020.13 1219.95 L1020.13 1184.31 M1020.13 1170.43 L1025.98 1170.43 L1025.98 1177.84 L1020.13 1177.84 L1020.13 1170.43 Z" fill="#000000" fill-rule="nonzero" fill-opacity="1" /><path clip-path="url(#clip180)" d="M1067.87 1198.44 L1067.87 1219.95 L1062.01 1219.95 L1062.01 1198.63 Q1062.01 1193.57 1060.04 1191.05 Q1058.07 1188.54 1054.12 1188.54 Q1049.38 1188.54 1046.64 1191.56 Q1043.9 1194.59 1043.9 1199.81 L1043.9 1219.95 L1038.01 1219.95 L1038.01 1184.31 L1043.9 1184.31 L1043.9 1189.84 Q1046 1186.63 1048.84 1185.04 Q1051.7 1183.45 1055.42 1183.45 Q1061.57 1183.45 1064.72 1187.27 Q1067.87 1191.05 1067.87 1198.44 Z" fill="#000000" fill-rule="nonzero" fill-opacity="1" /><path clip-path="url(#clip180)" d="M1103.01 1189.72 L1103.01 1170.43 L1108.86 1170.43 L1108.86 1219.95 L1103.01 1219.95 L1103.01 1214.61 Q1101.16 1217.79 1098.33 1219.35 Q1095.53 1220.88 1091.58 1220.88 Q1085.12 1220.88 1081.05 1215.72 Q1077 1210.56 1077 1202.16 Q1077 1193.76 1081.05 1188.6 Q1085.12 1183.45 1091.58 1183.45 Q1095.53 1183.45 1098.33 1185.01 Q1101.16 1186.53 1103.01 1189.72 M1083.05 1202.16 Q1083.05 1208.62 1085.69 1212.31 Q1088.37 1215.98 1093.01 1215.98 Q1097.66 1215.98 1100.33 1212.31 Q1103.01 1208.62 1103.01 1202.16 Q1103.01 1195.7 1100.33 1192.04 Q1097.66 1188.35 1093.01 1188.35 Q1088.37 1188.35 1085.69 1192.04 Q1083.05 1195.7 1083.05 1202.16 Z" fill="#000000" fill-rule="nonzero" fill-opacity="1" /><path clip-path="url(#clip180)" d="M1151.42 1200.67 L1151.42 1203.53 L1124.49 1203.53 Q1124.87 1209.58 1128.12 1212.76 Q1131.4 1215.91 1137.22 1215.91 Q1140.6 1215.91 1143.75 1215.08 Q1146.93 1214.26 1150.05 1212.6 L1150.05 1218.14 Q1146.9 1219.48 1143.59 1220.18 Q1140.28 1220.88 1136.87 1220.88 Q1128.34 1220.88 1123.35 1215.91 Q1118.38 1210.95 1118.38 1202.48 Q1118.38 1193.73 1123.09 1188.6 Q1127.83 1183.45 1135.86 1183.45 Q1143.05 1183.45 1147.22 1188.09 Q1151.42 1192.71 1151.42 1200.67 M1145.56 1198.95 Q1145.5 1194.14 1142.86 1191.28 Q1140.25 1188.41 1135.92 1188.41 Q1131.02 1188.41 1128.06 1191.18 Q1125.13 1193.95 1124.68 1198.98 L1145.56 1198.95 Z" fill="#000000" fill-rule="nonzero" fill-opacity="1" /><path clip-path="url(#clip180)" d="M1189.52 1184.31 L1176.63 1201.65 L1190.19 1219.95 L1183.28 1219.95 L1172.9 1205.95 L1162.53 1219.95 L1155.62 1219.95 L1169.47 1201.3 L1156.8 1184.31 L1163.71 1184.31 L1173.16 1197.01 L1182.61 1184.31 L1189.52 1184.31 Z" fill="#000000" fill-rule="nonzero" fill-opacity="1" /><polyline clip-path="url(#clip180)" style="stroke:#000000; stroke-linecap:round; stroke-linejoin:round; stroke-width:4; stroke-opacity:1; fill:none" points="273.928,1063.09 273.928,47.2441 "/>
<polyline clip-path="url(#clip180)" style="stroke:#000000; stroke-linecap:round; stroke-linejoin:round; stroke-width:4; stroke-opacity:1; fill:none" points="273.928,973.001 292.825,973.001 "/>
<polyline clip-path="url(#clip180)" style="stroke:#000000; stroke-linecap:round; stroke-linejoin:round; stroke-width:4; stroke-opacity:1; fill:none" points="273.928,833.508 292.825,833.508 "/>
<polyline clip-path="url(#clip180)" style="stroke:#000000; stroke-linecap:round; stroke-linejoin:round; stroke-width:4; stroke-opacity:1; fill:none" points="273.928,694.014 292.825,694.014 "/>
<polyline clip-path="url(#clip180)" style="stroke:#000000; stroke-linecap:round; stroke-linejoin:round; stroke-width:4; stroke-opacity:1; fill:none" points="273.928,554.521 292.825,554.521 "/>
<polyline clip-path="url(#clip180)" style="stroke:#000000; stroke-linecap:round; stroke-linejoin:round; stroke-width:4; stroke-opacity:1; fill:none" points="273.928,415.027 292.825,415.027 "/>
<polyline clip-path="url(#clip180)" style="stroke:#000000; stroke-linecap:round; stroke-linejoin:round; stroke-width:4; stroke-opacity:1; fill:none" points="273.928,275.533 292.825,275.533 "/>
<polyline clip-path="url(#clip180)" style="stroke:#000000; stroke-linecap:round; stroke-linejoin:round; stroke-width:4; stroke-opacity:1; fill:none" points="273.928,136.04 292.825,136.04 "/>
<path clip-path="url(#clip180)" d="M89.4702 973.453 L119.146 973.453 L119.146 977.388 L89.4702 977.388 L89.4702 973.453 Z" fill="#000000" fill-rule="nonzero" fill-opacity="1" /><path clip-path="url(#clip180)" d="M139.238 958.8 Q135.627 958.8 133.799 962.365 Q131.993 965.906 131.993 973.036 Q131.993 980.142 133.799 983.707 Q135.627 987.249 139.238 987.249 Q142.873 987.249 144.678 983.707 Q146.507 980.142 146.507 973.036 Q146.507 965.906 144.678 962.365 Q142.873 958.8 139.238 958.8 M139.238 955.096 Q145.049 955.096 148.104 959.703 Q151.183 964.286 151.183 973.036 Q151.183 981.763 148.104 986.369 Q145.049 990.953 139.238 990.953 Q133.428 990.953 130.35 986.369 Q127.294 981.763 127.294 973.036 Q127.294 964.286 130.35 959.703 Q133.428 955.096 139.238 955.096 Z" fill="#000000" fill-rule="nonzero" fill-opacity="1" /><path clip-path="url(#clip180)" d="M159.4 984.402 L164.285 984.402 L164.285 990.281 L159.4 990.281 L159.4 984.402 Z" fill="#000000" fill-rule="nonzero" fill-opacity="1" /><path clip-path="url(#clip180)" d="M184.47 958.8 Q180.859 958.8 179.03 962.365 Q177.224 965.906 177.224 973.036 Q177.224 980.142 179.03 983.707 Q180.859 987.249 184.47 987.249 Q188.104 987.249 189.909 983.707 Q191.738 980.142 191.738 973.036 Q191.738 965.906 189.909 962.365 Q188.104 958.8 184.47 958.8 M184.47 955.096 Q190.28 955.096 193.335 959.703 Q196.414 964.286 196.414 973.036 Q196.414 981.763 193.335 986.369 Q190.28 990.953 184.47 990.953 Q178.659 990.953 175.581 986.369 Q172.525 981.763 172.525 973.036 Q172.525 964.286 175.581 959.703 Q178.659 955.096 184.47 955.096 Z" fill="#000000" fill-rule="nonzero" fill-opacity="1" /><path clip-path="url(#clip180)" d="M218.798 971.647 Q222.155 972.365 224.03 974.633 Q225.928 976.902 225.928 980.235 Q225.928 985.351 222.409 988.152 Q218.891 990.953 212.409 990.953 Q210.233 990.953 207.919 990.513 Q205.627 990.096 203.173 989.24 L203.173 984.726 Q205.118 985.86 207.432 986.439 Q209.747 987.017 212.27 987.017 Q216.669 987.017 218.96 985.281 Q221.275 983.545 221.275 980.235 Q221.275 977.18 219.122 975.467 Q216.993 973.73 213.173 973.73 L209.145 973.73 L209.145 969.888 L213.358 969.888 Q216.807 969.888 218.636 968.522 Q220.465 967.133 220.465 964.541 Q220.465 961.879 218.567 960.467 Q216.692 959.031 213.173 959.031 Q211.252 959.031 209.053 959.448 Q206.854 959.865 204.215 960.744 L204.215 956.578 Q206.877 955.837 209.192 955.467 Q211.53 955.096 213.59 955.096 Q218.914 955.096 222.016 957.527 Q225.118 959.934 225.118 964.055 Q225.118 966.925 223.474 968.916 Q221.831 970.883 218.798 971.647 Z" fill="#000000" fill-rule="nonzero" fill-opacity="1" /><path clip-path="url(#clip180)" d="M90.4192 833.959 L120.095 833.959 L120.095 837.894 L90.4192 837.894 L90.4192 833.959 Z" fill="#000000" fill-rule="nonzero" fill-opacity="1" /><path clip-path="url(#clip180)" d="M140.187 819.306 Q136.576 819.306 134.748 822.871 Q132.942 826.413 132.942 833.542 Q132.942 840.649 134.748 844.214 Q136.576 847.755 140.187 847.755 Q143.822 847.755 145.627 844.214 Q147.456 840.649 147.456 833.542 Q147.456 826.413 145.627 822.871 Q143.822 819.306 140.187 819.306 M140.187 815.603 Q145.998 815.603 149.053 820.209 Q152.132 824.792 152.132 833.542 Q152.132 842.269 149.053 846.876 Q145.998 851.459 140.187 851.459 Q134.377 851.459 131.299 846.876 Q128.243 842.269 128.243 833.542 Q128.243 824.792 131.299 820.209 Q134.377 815.603 140.187 815.603 Z" fill="#000000" fill-rule="nonzero" fill-opacity="1" /><path clip-path="url(#clip180)" d="M160.349 844.908 L165.234 844.908 L165.234 850.788 L160.349 850.788 L160.349 844.908 Z" fill="#000000" fill-rule="nonzero" fill-opacity="1" /><path clip-path="url(#clip180)" d="M185.419 819.306 Q181.808 819.306 179.979 822.871 Q178.173 826.413 178.173 833.542 Q178.173 840.649 179.979 844.214 Q181.808 847.755 185.419 847.755 Q189.053 847.755 190.859 844.214 Q192.687 840.649 192.687 833.542 Q192.687 826.413 190.859 822.871 Q189.053 819.306 185.419 819.306 M185.419 815.603 Q191.229 815.603 194.284 820.209 Q197.363 824.792 197.363 833.542 Q197.363 842.269 194.284 846.876 Q191.229 851.459 185.419 851.459 Q179.609 851.459 176.53 846.876 Q173.474 842.269 173.474 833.542 Q173.474 824.792 176.53 820.209 Q179.609 815.603 185.419 815.603 Z" fill="#000000" fill-rule="nonzero" fill-opacity="1" /><path clip-path="url(#clip180)" d="M209.608 846.853 L225.928 846.853 L225.928 850.788 L203.983 850.788 L203.983 846.853 Q206.645 844.098 211.229 839.468 Q215.835 834.816 217.016 833.473 Q219.261 830.95 220.141 829.214 Q221.044 827.455 221.044 825.765 Q221.044 823.01 219.099 821.274 Q217.178 819.538 214.076 819.538 Q211.877 819.538 209.423 820.302 Q206.993 821.066 204.215 822.617 L204.215 817.894 Q207.039 816.76 209.493 816.181 Q211.946 815.603 213.983 815.603 Q219.354 815.603 222.548 818.288 Q225.743 820.973 225.743 825.464 Q225.743 827.593 224.932 829.515 Q224.145 831.413 222.039 834.005 Q221.46 834.677 218.358 837.894 Q215.257 841.089 209.608 846.853 Z" fill="#000000" fill-rule="nonzero" fill-opacity="1" /><path clip-path="url(#clip180)" d="M90.0489 694.466 L119.725 694.466 L119.725 698.401 L90.0489 698.401 L90.0489 694.466 Z" fill="#000000" fill-rule="nonzero" fill-opacity="1" /><path clip-path="url(#clip180)" d="M139.817 679.813 Q136.206 679.813 134.377 683.378 Q132.572 686.919 132.572 694.049 Q132.572 701.155 134.377 704.72 Q136.206 708.262 139.817 708.262 Q143.451 708.262 145.257 704.72 Q147.086 701.155 147.086 694.049 Q147.086 686.919 145.257 683.378 Q143.451 679.813 139.817 679.813 M139.817 676.109 Q145.627 676.109 148.683 680.716 Q151.761 685.299 151.761 694.049 Q151.761 702.776 148.683 707.382 Q145.627 711.965 139.817 711.965 Q134.007 711.965 130.928 707.382 Q127.873 702.776 127.873 694.049 Q127.873 685.299 130.928 680.716 Q134.007 676.109 139.817 676.109 Z" fill="#000000" fill-rule="nonzero" fill-opacity="1" /><path clip-path="url(#clip180)" d="M159.979 705.415 L164.863 705.415 L164.863 711.294 L159.979 711.294 L159.979 705.415 Z" fill="#000000" fill-rule="nonzero" fill-opacity="1" /><path clip-path="url(#clip180)" d="M185.048 679.813 Q181.437 679.813 179.609 683.378 Q177.803 686.919 177.803 694.049 Q177.803 701.155 179.609 704.72 Q181.437 708.262 185.048 708.262 Q188.683 708.262 190.488 704.72 Q192.317 701.155 192.317 694.049 Q192.317 686.919 190.488 683.378 Q188.683 679.813 185.048 679.813 M185.048 676.109 Q190.859 676.109 193.914 680.716 Q196.993 685.299 196.993 694.049 Q196.993 702.776 193.914 707.382 Q190.859 711.965 185.048 711.965 Q179.238 711.965 176.16 707.382 Q173.104 702.776 173.104 694.049 Q173.104 685.299 176.16 680.716 Q179.238 676.109 185.048 676.109 Z" fill="#000000" fill-rule="nonzero" fill-opacity="1" /><path clip-path="url(#clip180)" d="M206.02 707.359 L213.659 707.359 L213.659 680.993 L205.349 682.66 L205.349 678.401 L213.613 676.734 L218.289 676.734 L218.289 707.359 L225.928 707.359 L225.928 711.294 L206.02 711.294 L206.02 707.359 Z" fill="#000000" fill-rule="nonzero" fill-opacity="1" /><path clip-path="url(#clip180)" d="M138.59 540.319 Q134.979 540.319 133.15 543.884 Q131.345 547.426 131.345 554.555 Q131.345 561.662 133.15 565.226 Q134.979 568.768 138.59 568.768 Q142.225 568.768 144.03 565.226 Q145.859 561.662 145.859 554.555 Q145.859 547.426 144.03 543.884 Q142.225 540.319 138.59 540.319 M138.59 536.616 Q144.4 536.616 147.456 541.222 Q150.535 545.805 150.535 554.555 Q150.535 563.282 147.456 567.889 Q144.4 572.472 138.59 572.472 Q132.78 572.472 129.701 567.889 Q126.646 563.282 126.646 554.555 Q126.646 545.805 129.701 541.222 Q132.78 536.616 138.59 536.616 Z" fill="#000000" fill-rule="nonzero" fill-opacity="1" /><path clip-path="url(#clip180)" d="M158.752 565.921 L163.636 565.921 L163.636 571.801 L158.752 571.801 L158.752 565.921 Z" fill="#000000" fill-rule="nonzero" fill-opacity="1" /><path clip-path="url(#clip180)" d="M183.822 540.319 Q180.21 540.319 178.382 543.884 Q176.576 547.426 176.576 554.555 Q176.576 561.662 178.382 565.226 Q180.21 568.768 183.822 568.768 Q187.456 568.768 189.261 565.226 Q191.09 561.662 191.09 554.555 Q191.09 547.426 189.261 543.884 Q187.456 540.319 183.822 540.319 M183.822 536.616 Q189.632 536.616 192.687 541.222 Q195.766 545.805 195.766 554.555 Q195.766 563.282 192.687 567.889 Q189.632 572.472 183.822 572.472 Q178.011 572.472 174.933 567.889 Q171.877 563.282 171.877 554.555 Q171.877 545.805 174.933 541.222 Q178.011 536.616 183.822 536.616 Z" fill="#000000" fill-rule="nonzero" fill-opacity="1" /><path clip-path="url(#clip180)" d="M213.983 540.319 Q210.372 540.319 208.544 543.884 Q206.738 547.426 206.738 554.555 Q206.738 561.662 208.544 565.226 Q210.372 568.768 213.983 568.768 Q217.618 568.768 219.423 565.226 Q221.252 561.662 221.252 554.555 Q221.252 547.426 219.423 543.884 Q217.618 540.319 213.983 540.319 M213.983 536.616 Q219.794 536.616 222.849 541.222 Q225.928 545.805 225.928 554.555 Q225.928 563.282 222.849 567.889 Q219.794 572.472 213.983 572.472 Q208.173 572.472 205.095 567.889 Q202.039 563.282 202.039 554.555 Q202.039 545.805 205.095 541.222 Q208.173 536.616 213.983 536.616 Z" fill="#000000" fill-rule="nonzero" fill-opacity="1" /><path clip-path="url(#clip180)" d="M139.817 400.826 Q136.206 400.826 134.377 404.39 Q132.572 407.932 132.572 415.062 Q132.572 422.168 134.377 425.733 Q136.206 429.275 139.817 429.275 Q143.451 429.275 145.257 425.733 Q147.086 422.168 147.086 415.062 Q147.086 407.932 145.257 404.39 Q143.451 400.826 139.817 400.826 M139.817 397.122 Q145.627 397.122 148.683 401.728 Q151.761 406.312 151.761 415.062 Q151.761 423.788 148.683 428.395 Q145.627 432.978 139.817 432.978 Q134.007 432.978 130.928 428.395 Q127.873 423.788 127.873 415.062 Q127.873 406.312 130.928 401.728 Q134.007 397.122 139.817 397.122 Z" fill="#000000" fill-rule="nonzero" fill-opacity="1" /><path clip-path="url(#clip180)" d="M159.979 426.427 L164.863 426.427 L164.863 432.307 L159.979 432.307 L159.979 426.427 Z" fill="#000000" fill-rule="nonzero" fill-opacity="1" /><path clip-path="url(#clip180)" d="M185.048 400.826 Q181.437 400.826 179.609 404.39 Q177.803 407.932 177.803 415.062 Q177.803 422.168 179.609 425.733 Q181.437 429.275 185.048 429.275 Q188.683 429.275 190.488 425.733 Q192.317 422.168 192.317 415.062 Q192.317 407.932 190.488 404.39 Q188.683 400.826 185.048 400.826 M185.048 397.122 Q190.859 397.122 193.914 401.728 Q196.993 406.312 196.993 415.062 Q196.993 423.788 193.914 428.395 Q190.859 432.978 185.048 432.978 Q179.238 432.978 176.16 428.395 Q173.104 423.788 173.104 415.062 Q173.104 406.312 176.16 401.728 Q179.238 397.122 185.048 397.122 Z" fill="#000000" fill-rule="nonzero" fill-opacity="1" /><path clip-path="url(#clip180)" d="M206.02 428.372 L213.659 428.372 L213.659 402.006 L205.349 403.673 L205.349 399.414 L213.613 397.747 L218.289 397.747 L218.289 428.372 L225.928 428.372 L225.928 432.307 L206.02 432.307 L206.02 428.372 Z" fill="#000000" fill-rule="nonzero" fill-opacity="1" /><path clip-path="url(#clip180)" d="M140.187 261.332 Q136.576 261.332 134.748 264.897 Q132.942 268.438 132.942 275.568 Q132.942 282.675 134.748 286.239 Q136.576 289.781 140.187 289.781 Q143.822 289.781 145.627 286.239 Q147.456 282.675 147.456 275.568 Q147.456 268.438 145.627 264.897 Q143.822 261.332 140.187 261.332 M140.187 257.628 Q145.998 257.628 149.053 262.235 Q152.132 266.818 152.132 275.568 Q152.132 284.295 149.053 288.901 Q145.998 293.485 140.187 293.485 Q134.377 293.485 131.299 288.901 Q128.243 284.295 128.243 275.568 Q128.243 266.818 131.299 262.235 Q134.377 257.628 140.187 257.628 Z" fill="#000000" fill-rule="nonzero" fill-opacity="1" /><path clip-path="url(#clip180)" d="M160.349 286.934 L165.234 286.934 L165.234 292.813 L160.349 292.813 L160.349 286.934 Z" fill="#000000" fill-rule="nonzero" fill-opacity="1" /><path clip-path="url(#clip180)" d="M185.419 261.332 Q181.808 261.332 179.979 264.897 Q178.173 268.438 178.173 275.568 Q178.173 282.675 179.979 286.239 Q181.808 289.781 185.419 289.781 Q189.053 289.781 190.859 286.239 Q192.687 282.675 192.687 275.568 Q192.687 268.438 190.859 264.897 Q189.053 261.332 185.419 261.332 M185.419 257.628 Q191.229 257.628 194.284 262.235 Q197.363 266.818 197.363 275.568 Q197.363 284.295 194.284 288.901 Q191.229 293.485 185.419 293.485 Q179.609 293.485 176.53 288.901 Q173.474 284.295 173.474 275.568 Q173.474 266.818 176.53 262.235 Q179.609 257.628 185.419 257.628 Z" fill="#000000" fill-rule="nonzero" fill-opacity="1" /><path clip-path="url(#clip180)" d="M209.608 288.878 L225.928 288.878 L225.928 292.813 L203.983 292.813 L203.983 288.878 Q206.645 286.124 211.229 281.494 Q215.835 276.841 217.016 275.499 Q219.261 272.976 220.141 271.239 Q221.044 269.48 221.044 267.79 Q221.044 265.036 219.099 263.3 Q217.178 261.564 214.076 261.564 Q211.877 261.564 209.423 262.327 Q206.993 263.091 204.215 264.642 L204.215 259.92 Q207.039 258.786 209.493 258.207 Q211.946 257.628 213.983 257.628 Q219.354 257.628 222.548 260.314 Q225.743 262.999 225.743 267.489 Q225.743 269.619 224.932 271.54 Q224.145 273.438 222.039 276.031 Q221.46 276.702 218.358 279.92 Q215.257 283.114 209.608 288.878 Z" fill="#000000" fill-rule="nonzero" fill-opacity="1" /><path clip-path="url(#clip180)" d="M139.238 121.838 Q135.627 121.838 133.799 125.403 Q131.993 128.945 131.993 136.074 Q131.993 143.181 133.799 146.746 Q135.627 150.287 139.238 150.287 Q142.873 150.287 144.678 146.746 Q146.507 143.181 146.507 136.074 Q146.507 128.945 144.678 125.403 Q142.873 121.838 139.238 121.838 M139.238 118.135 Q145.049 118.135 148.104 122.741 Q151.183 127.325 151.183 136.074 Q151.183 144.801 148.104 149.408 Q145.049 153.991 139.238 153.991 Q133.428 153.991 130.35 149.408 Q127.294 144.801 127.294 136.074 Q127.294 127.325 130.35 122.741 Q133.428 118.135 139.238 118.135 Z" fill="#000000" fill-rule="nonzero" fill-opacity="1" /><path clip-path="url(#clip180)" d="M159.4 147.44 L164.285 147.44 L164.285 153.32 L159.4 153.32 L159.4 147.44 Z" fill="#000000" fill-rule="nonzero" fill-opacity="1" /><path clip-path="url(#clip180)" d="M184.47 121.838 Q180.859 121.838 179.03 125.403 Q177.224 128.945 177.224 136.074 Q177.224 143.181 179.03 146.746 Q180.859 150.287 184.47 150.287 Q188.104 150.287 189.909 146.746 Q191.738 143.181 191.738 136.074 Q191.738 128.945 189.909 125.403 Q188.104 121.838 184.47 121.838 M184.47 118.135 Q190.28 118.135 193.335 122.741 Q196.414 127.325 196.414 136.074 Q196.414 144.801 193.335 149.408 Q190.28 153.991 184.47 153.991 Q178.659 153.991 175.581 149.408 Q172.525 144.801 172.525 136.074 Q172.525 127.325 175.581 122.741 Q178.659 118.135 184.47 118.135 Z" fill="#000000" fill-rule="nonzero" fill-opacity="1" /><path clip-path="url(#clip180)" d="M218.798 134.686 Q222.155 135.403 224.03 137.672 Q225.928 139.94 225.928 143.274 Q225.928 148.389 222.409 151.19 Q218.891 153.991 212.409 153.991 Q210.233 153.991 207.919 153.551 Q205.627 153.135 203.173 152.278 L203.173 147.764 Q205.118 148.899 207.432 149.477 Q209.747 150.056 212.27 150.056 Q216.669 150.056 218.96 148.32 Q221.275 146.584 221.275 143.274 Q221.275 140.218 219.122 138.505 Q216.993 136.769 213.173 136.769 L209.145 136.769 L209.145 132.926 L213.358 132.926 Q216.807 132.926 218.636 131.561 Q220.465 130.172 220.465 127.579 Q220.465 124.917 218.567 123.505 Q216.692 122.07 213.173 122.07 Q211.252 122.07 209.053 122.487 Q206.854 122.903 204.215 123.783 L204.215 119.616 Q206.877 118.876 209.192 118.505 Q211.53 118.135 213.59 118.135 Q218.914 118.135 222.016 120.565 Q225.118 122.973 225.118 127.093 Q225.118 129.963 223.474 131.954 Q221.831 133.922 218.798 134.686 Z" fill="#000000" fill-rule="nonzero" fill-opacity="1" /><path clip-path="url(#clip180)" d="M-22.311 543.82 L-17.4413 543.82 L-17.4413 549.422 Q-17.4413 552.573 -16.1681 553.814 Q-14.895 555.024 -11.5848 555.024 L-8.4338 555.024 L-8.4338 545.38 L-3.88232 545.38 L-3.88232 555.024 L27.2142 555.024 L27.2142 560.912 L-3.88232 560.912 L-3.88232 566.514 L-8.4338 566.514 L-8.4338 560.912 L-10.9164 560.912 Q-16.8684 560.912 -19.5738 558.143 Q-22.311 555.374 -22.311 549.358 L-22.311 543.82 Z" fill="#000000" fill-rule="nonzero" fill-opacity="1" /><polyline clip-path="url(#clip182)" style="stroke:#009af9; stroke-linecap:round; stroke-linejoin:round; stroke-width:4; stroke-opacity:1; fill:none" points="310.532,554.521 361.371,708.602 412.21,1034.34 463.049,999.693 513.887,938.349 564.726,878.701 615.565,823.283 666.404,771.483 717.243,724.89 768.082,679.234 818.921,637.279 869.76,595.221 920.599,554.513 971.438,513.805 1022.28,471.744 1073.12,429.783 1123.95,384.115 1174.79,337.506 1225.63,285.672 1276.47,230.207 1327.31,170.465 1378.15,109.057 1428.99,75.9944 1479.83,408.896 1530.67,554.521 "/>
<path clip-path="url(#clip180)" d="M1859.41 1063.09 L3152.76 1063.09 L3152.76 47.2441 L1859.41 47.2441  Z" fill="#ffffff" fill-rule="evenodd" fill-opacity="1"/>
<defs>
  <clipPath id="clip183">
    <rect x="1859" y="47" width="1294" height="1017"/>
  </clipPath>
</defs>
<polyline clip-path="url(#clip183)" style="stroke:#000000; stroke-linecap:round; stroke-linejoin:round; stroke-width:2; stroke-opacity:0.1; fill:none" points="2099.37,1063.09 2099.37,47.2441 "/>
<polyline clip-path="url(#clip183)" style="stroke:#000000; stroke-linecap:round; stroke-linejoin:round; stroke-width:2; stroke-opacity:0.1; fill:none" points="2353.57,1063.09 2353.57,47.2441 "/>
<polyline clip-path="url(#clip183)" style="stroke:#000000; stroke-linecap:round; stroke-linejoin:round; stroke-width:2; stroke-opacity:0.1; fill:none" points="2607.76,1063.09 2607.76,47.2441 "/>
<polyline clip-path="url(#clip183)" style="stroke:#000000; stroke-linecap:round; stroke-linejoin:round; stroke-width:2; stroke-opacity:0.1; fill:none" points="2861.96,1063.09 2861.96,47.2441 "/>
<polyline clip-path="url(#clip183)" style="stroke:#000000; stroke-linecap:round; stroke-linejoin:round; stroke-width:2; stroke-opacity:0.1; fill:none" points="3116.15,1063.09 3116.15,47.2441 "/>
<polyline clip-path="url(#clip183)" style="stroke:#000000; stroke-linecap:round; stroke-linejoin:round; stroke-width:2; stroke-opacity:0.1; fill:none" points="1859.41,992.328 3152.76,992.328 "/>
<polyline clip-path="url(#clip183)" style="stroke:#000000; stroke-linecap:round; stroke-linejoin:round; stroke-width:2; stroke-opacity:0.1; fill:none" points="1859.41,773.669 3152.76,773.669 "/>
<polyline clip-path="url(#clip183)" style="stroke:#000000; stroke-linecap:round; stroke-linejoin:round; stroke-width:2; stroke-opacity:0.1; fill:none" points="1859.41,555.01 3152.76,555.01 "/>
<polyline clip-path="url(#clip183)" style="stroke:#000000; stroke-linecap:round; stroke-linejoin:round; stroke-width:2; stroke-opacity:0.1; fill:none" points="1859.41,336.352 3152.76,336.352 "/>
<polyline clip-path="url(#clip183)" style="stroke:#000000; stroke-linecap:round; stroke-linejoin:round; stroke-width:2; stroke-opacity:0.1; fill:none" points="1859.41,117.693 3152.76,117.693 "/>
<polyline clip-path="url(#clip180)" style="stroke:#000000; stroke-linecap:round; stroke-linejoin:round; stroke-width:4; stroke-opacity:1; fill:none" points="1859.41,1063.09 3152.76,1063.09 "/>
<polyline clip-path="url(#clip180)" style="stroke:#000000; stroke-linecap:round; stroke-linejoin:round; stroke-width:4; stroke-opacity:1; fill:none" points="2099.37,1063.09 2099.37,1044.19 "/>
<polyline clip-path="url(#clip180)" style="stroke:#000000; stroke-linecap:round; stroke-linejoin:round; stroke-width:4; stroke-opacity:1; fill:none" points="2353.57,1063.09 2353.57,1044.19 "/>
<polyline clip-path="url(#clip180)" style="stroke:#000000; stroke-linecap:round; stroke-linejoin:round; stroke-width:4; stroke-opacity:1; fill:none" points="2607.76,1063.09 2607.76,1044.19 "/>
<polyline clip-path="url(#clip180)" style="stroke:#000000; stroke-linecap:round; stroke-linejoin:round; stroke-width:4; stroke-opacity:1; fill:none" points="2861.96,1063.09 2861.96,1044.19 "/>
<polyline clip-path="url(#clip180)" style="stroke:#000000; stroke-linecap:round; stroke-linejoin:round; stroke-width:4; stroke-opacity:1; fill:none" points="3116.15,1063.09 3116.15,1044.19 "/>
<path clip-path="url(#clip180)" d="M2089.65 1097.33 L2108.01 1097.33 L2108.01 1101.27 L2093.93 1101.27 L2093.93 1109.74 Q2094.95 1109.39 2095.97 1109.23 Q2096.99 1109.04 2098.01 1109.04 Q2103.79 1109.04 2107.17 1112.21 Q2110.55 1115.39 2110.55 1120.8 Q2110.55 1126.38 2107.08 1129.48 Q2103.61 1132.56 2097.29 1132.56 Q2095.11 1132.56 2092.85 1132.19 Q2090.6 1131.82 2088.19 1131.08 L2088.19 1126.38 Q2090.28 1127.51 2092.5 1128.07 Q2094.72 1128.63 2097.2 1128.63 Q2101.2 1128.63 2103.54 1126.52 Q2105.88 1124.41 2105.88 1120.8 Q2105.88 1117.19 2103.54 1115.08 Q2101.2 1112.98 2097.2 1112.98 Q2095.32 1112.98 2093.45 1113.39 Q2091.6 1113.81 2089.65 1114.69 L2089.65 1097.33 Z" fill="#000000" fill-rule="nonzero" fill-opacity="1" /><path clip-path="url(#clip180)" d="M2328.26 1127.95 L2335.89 1127.95 L2335.89 1101.59 L2327.58 1103.26 L2327.58 1099 L2335.85 1097.33 L2340.52 1097.33 L2340.52 1127.95 L2348.16 1127.95 L2348.16 1131.89 L2328.26 1131.89 L2328.26 1127.95 Z" fill="#000000" fill-rule="nonzero" fill-opacity="1" /><path clip-path="url(#clip180)" d="M2367.61 1100.41 Q2364 1100.41 2362.17 1103.97 Q2360.36 1107.51 2360.36 1114.64 Q2360.36 1121.75 2362.17 1125.32 Q2364 1128.86 2367.61 1128.86 Q2371.24 1128.86 2373.05 1125.32 Q2374.88 1121.75 2374.88 1114.64 Q2374.88 1107.51 2373.05 1103.97 Q2371.24 1100.41 2367.61 1100.41 M2367.61 1096.7 Q2373.42 1096.7 2376.47 1101.31 Q2379.55 1105.89 2379.55 1114.64 Q2379.55 1123.37 2376.47 1127.98 Q2373.42 1132.56 2367.61 1132.56 Q2361.8 1132.56 2358.72 1127.98 Q2355.66 1123.37 2355.66 1114.64 Q2355.66 1105.89 2358.72 1101.31 Q2361.8 1096.7 2367.61 1096.7 Z" fill="#000000" fill-rule="nonzero" fill-opacity="1" /><path clip-path="url(#clip180)" d="M2582.95 1127.95 L2590.59 1127.95 L2590.59 1101.59 L2582.28 1103.26 L2582.28 1099 L2590.54 1097.33 L2595.22 1097.33 L2595.22 1127.95 L2602.86 1127.95 L2602.86 1131.89 L2582.95 1131.89 L2582.95 1127.95 Z" fill="#000000" fill-rule="nonzero" fill-opacity="1" /><path clip-path="url(#clip180)" d="M2612.35 1097.33 L2630.7 1097.33 L2630.7 1101.27 L2616.63 1101.27 L2616.63 1109.74 Q2617.65 1109.39 2618.67 1109.23 Q2619.68 1109.04 2620.7 1109.04 Q2626.49 1109.04 2629.87 1112.21 Q2633.25 1115.39 2633.25 1120.8 Q2633.25 1126.38 2629.78 1129.48 Q2626.3 1132.56 2619.98 1132.56 Q2617.81 1132.56 2615.54 1132.19 Q2613.3 1131.82 2610.89 1131.08 L2610.89 1126.38 Q2612.97 1127.51 2615.19 1128.07 Q2617.42 1128.63 2619.89 1128.63 Q2623.9 1128.63 2626.23 1126.52 Q2628.57 1124.41 2628.57 1120.8 Q2628.57 1117.19 2626.23 1115.08 Q2623.9 1112.98 2619.89 1112.98 Q2618.02 1112.98 2616.14 1113.39 Q2614.29 1113.81 2612.35 1114.69 L2612.35 1097.33 Z" fill="#000000" fill-rule="nonzero" fill-opacity="1" /><path clip-path="url(#clip180)" d="M2840.73 1127.95 L2857.05 1127.95 L2857.05 1131.89 L2835.11 1131.89 L2835.11 1127.95 Q2837.77 1125.2 2842.35 1120.57 Q2846.96 1115.92 2848.14 1114.58 Q2850.38 1112.05 2851.26 1110.32 Q2852.17 1108.56 2852.17 1106.87 Q2852.17 1104.11 2850.22 1102.38 Q2848.3 1100.64 2845.2 1100.64 Q2843 1100.64 2840.55 1101.4 Q2838.11 1102.17 2835.34 1103.72 L2835.34 1099 Q2838.16 1097.86 2840.61 1097.28 Q2843.07 1096.7 2845.11 1096.7 Q2850.48 1096.7 2853.67 1099.39 Q2856.86 1102.08 2856.86 1106.57 Q2856.86 1108.7 2856.05 1110.62 Q2855.27 1112.51 2853.16 1115.11 Q2852.58 1115.78 2849.48 1119 Q2846.38 1122.19 2840.73 1127.95 Z" fill="#000000" fill-rule="nonzero" fill-opacity="1" /><path clip-path="url(#clip180)" d="M2876.86 1100.41 Q2873.25 1100.41 2871.42 1103.97 Q2869.62 1107.51 2869.62 1114.64 Q2869.62 1121.75 2871.42 1125.32 Q2873.25 1128.86 2876.86 1128.86 Q2880.5 1128.86 2882.3 1125.32 Q2884.13 1121.75 2884.13 1114.64 Q2884.13 1107.51 2882.3 1103.97 Q2880.5 1100.41 2876.86 1100.41 M2876.86 1096.7 Q2882.67 1096.7 2885.73 1101.31 Q2888.81 1105.89 2888.81 1114.64 Q2888.81 1123.37 2885.73 1127.98 Q2882.67 1132.56 2876.86 1132.56 Q2871.05 1132.56 2867.98 1127.98 Q2864.92 1123.37 2864.92 1114.64 Q2864.92 1105.89 2867.98 1101.31 Q2871.05 1096.7 2876.86 1096.7 Z" fill="#000000" fill-rule="nonzero" fill-opacity="1" /><path clip-path="url(#clip180)" d="M3095.42 1127.95 L3111.74 1127.95 L3111.74 1131.89 L3089.8 1131.89 L3089.8 1127.95 Q3092.46 1125.2 3097.04 1120.57 Q3101.65 1115.92 3102.83 1114.58 Q3105.08 1112.05 3105.96 1110.32 Q3106.86 1108.56 3106.86 1106.87 Q3106.86 1104.11 3104.91 1102.38 Q3102.99 1100.64 3099.89 1100.64 Q3097.69 1100.64 3095.24 1101.4 Q3092.81 1102.17 3090.03 1103.72 L3090.03 1099 Q3092.85 1097.86 3095.31 1097.28 Q3097.76 1096.7 3099.8 1096.7 Q3105.17 1096.7 3108.36 1099.39 Q3111.56 1102.08 3111.56 1106.57 Q3111.56 1108.7 3110.75 1110.62 Q3109.96 1112.51 3107.85 1115.11 Q3107.27 1115.78 3104.17 1119 Q3101.07 1122.19 3095.42 1127.95 Z" fill="#000000" fill-rule="nonzero" fill-opacity="1" /><path clip-path="url(#clip180)" d="M3121.6 1097.33 L3139.96 1097.33 L3139.96 1101.27 L3125.89 1101.27 L3125.89 1109.74 Q3126.9 1109.39 3127.92 1109.23 Q3128.94 1109.04 3129.96 1109.04 Q3135.75 1109.04 3139.13 1112.21 Q3142.51 1115.39 3142.51 1120.8 Q3142.51 1126.38 3139.03 1129.48 Q3135.56 1132.56 3129.24 1132.56 Q3127.07 1132.56 3124.8 1132.19 Q3122.55 1131.82 3120.14 1131.08 L3120.14 1126.38 Q3122.23 1127.51 3124.45 1128.07 Q3126.67 1128.63 3129.15 1128.63 Q3133.15 1128.63 3135.49 1126.52 Q3137.83 1124.41 3137.83 1120.8 Q3137.83 1117.19 3135.49 1115.08 Q3133.15 1112.98 3129.15 1112.98 Q3127.27 1112.98 3125.4 1113.39 Q3123.55 1113.81 3121.6 1114.69 L3121.6 1097.33 Z" fill="#000000" fill-rule="nonzero" fill-opacity="1" /><path clip-path="url(#clip180)" d="M2262.31 1202.16 Q2262.31 1195.7 2259.64 1192.04 Q2256.99 1188.35 2252.35 1188.35 Q2247.7 1188.35 2245.03 1192.04 Q2242.39 1195.7 2242.39 1202.16 Q2242.39 1208.62 2245.03 1212.31 Q2247.7 1215.98 2252.35 1215.98 Q2256.99 1215.98 2259.64 1212.31 Q2262.31 1208.62 2262.31 1202.16 M2242.39 1189.72 Q2244.23 1186.53 2247.03 1185.01 Q2249.87 1183.45 2253.78 1183.45 Q2260.27 1183.45 2264.32 1188.6 Q2268.39 1193.76 2268.39 1202.16 Q2268.39 1210.56 2264.32 1215.72 Q2260.27 1220.88 2253.78 1220.88 Q2249.87 1220.88 2247.03 1219.35 Q2244.23 1217.79 2242.39 1214.61 L2242.39 1219.95 L2236.5 1219.95 L2236.5 1170.43 L2242.39 1170.43 L2242.39 1189.72 Z" fill="#000000" fill-rule="nonzero" fill-opacity="1" /><path clip-path="url(#clip180)" d="M2291.91 1188.41 Q2287.2 1188.41 2284.46 1192.1 Q2281.73 1195.76 2281.73 1202.16 Q2281.73 1208.56 2284.43 1212.25 Q2287.17 1215.91 2291.91 1215.91 Q2296.59 1215.91 2299.33 1212.22 Q2302.06 1208.53 2302.06 1202.16 Q2302.06 1195.83 2299.33 1192.14 Q2296.59 1188.41 2291.91 1188.41 M2291.91 1183.45 Q2299.55 1183.45 2303.91 1188.41 Q2308.27 1193.38 2308.27 1202.16 Q2308.27 1210.91 2303.91 1215.91 Q2299.55 1220.88 2291.91 1220.88 Q2284.24 1220.88 2279.88 1215.91 Q2275.55 1210.91 2275.55 1202.16 Q2275.55 1193.38 2279.88 1188.41 Q2284.24 1183.45 2291.91 1183.45 Z" fill="#000000" fill-rule="nonzero" fill-opacity="1" /><path clip-path="url(#clip180)" d="M2341.44 1189.72 L2341.44 1170.43 L2347.29 1170.43 L2347.29 1219.95 L2341.44 1219.95 L2341.44 1214.61 Q2339.59 1217.79 2336.76 1219.35 Q2333.96 1220.88 2330.01 1220.88 Q2323.55 1220.88 2319.47 1215.72 Q2315.43 1210.56 2315.43 1202.16 Q2315.43 1193.76 2319.47 1188.6 Q2323.55 1183.45 2330.01 1183.45 Q2333.96 1183.45 2336.76 1185.01 Q2339.59 1186.53 2341.44 1189.72 M2321.48 1202.16 Q2321.48 1208.62 2324.12 1212.31 Q2326.79 1215.98 2331.44 1215.98 Q2336.09 1215.98 2338.76 1212.31 Q2341.44 1208.62 2341.44 1202.16 Q2341.44 1195.7 2338.76 1192.04 Q2336.09 1188.35 2331.44 1188.35 Q2326.79 1188.35 2324.12 1192.04 Q2321.48 1195.7 2321.48 1202.16 Z" fill="#000000" fill-rule="nonzero" fill-opacity="1" /><path clip-path="url(#clip180)" d="M2374.19 1223.26 Q2371.7 1229.63 2369.35 1231.57 Q2366.99 1233.51 2363.05 1233.51 L2358.37 1233.51 L2358.37 1228.61 L2361.81 1228.61 Q2364.23 1228.61 2365.56 1227.47 Q2366.9 1226.32 2368.52 1222.05 L2369.57 1219.38 L2355.15 1184.31 L2361.36 1184.31 L2372.5 1212.19 L2383.64 1184.31 L2389.85 1184.31 L2374.19 1223.26 Z" fill="#000000" fill-rule="nonzero" fill-opacity="1" /><path clip-path="url(#clip180)" d="M2424.32 1214.61 L2424.32 1233.51 L2418.43 1233.51 L2418.43 1184.31 L2424.32 1184.31 L2424.32 1189.72 Q2426.16 1186.53 2428.96 1185.01 Q2431.8 1183.45 2435.71 1183.45 Q2442.21 1183.45 2446.25 1188.6 Q2450.32 1193.76 2450.32 1202.16 Q2450.32 1210.56 2446.25 1215.72 Q2442.21 1220.88 2435.71 1220.88 Q2431.8 1220.88 2428.96 1219.35 Q2426.16 1217.79 2424.32 1214.61 M2444.24 1202.16 Q2444.24 1195.7 2441.57 1192.04 Q2438.93 1188.35 2434.28 1188.35 Q2429.63 1188.35 2426.96 1192.04 Q2424.32 1195.7 2424.32 1202.16 Q2424.32 1208.62 2426.96 1212.31 Q2429.63 1215.98 2434.28 1215.98 Q2438.93 1215.98 2441.57 1212.31 Q2444.24 1208.62 2444.24 1202.16 Z" fill="#000000" fill-rule="nonzero" fill-opacity="1" /><path clip-path="url(#clip180)" d="M2473.84 1188.41 Q2469.13 1188.41 2466.39 1192.1 Q2463.66 1195.76 2463.66 1202.16 Q2463.66 1208.56 2466.36 1212.25 Q2469.1 1215.91 2473.84 1215.91 Q2478.52 1215.91 2481.26 1212.22 Q2484 1208.53 2484 1202.16 Q2484 1195.83 2481.26 1192.14 Q2478.52 1188.41 2473.84 1188.41 M2473.84 1183.45 Q2481.48 1183.45 2485.84 1188.41 Q2490.2 1193.38 2490.2 1202.16 Q2490.2 1210.91 2485.84 1215.91 Q2481.48 1220.88 2473.84 1220.88 Q2466.17 1220.88 2461.81 1215.91 Q2457.48 1210.91 2457.48 1202.16 Q2457.48 1193.38 2461.81 1188.41 Q2466.17 1183.45 2473.84 1183.45 Z" fill="#000000" fill-rule="nonzero" fill-opacity="1" /><path clip-path="url(#clip180)" d="M2499.91 1184.31 L2505.77 1184.31 L2505.77 1219.95 L2499.91 1219.95 L2499.91 1184.31 M2499.91 1170.43 L2505.77 1170.43 L2505.77 1177.84 L2499.91 1177.84 L2499.91 1170.43 Z" fill="#000000" fill-rule="nonzero" fill-opacity="1" /><path clip-path="url(#clip180)" d="M2547.65 1198.44 L2547.65 1219.95 L2541.8 1219.95 L2541.8 1198.63 Q2541.8 1193.57 2539.82 1191.05 Q2537.85 1188.54 2533.9 1188.54 Q2529.16 1188.54 2526.42 1191.56 Q2523.69 1194.59 2523.69 1199.81 L2523.69 1219.95 L2517.8 1219.95 L2517.8 1184.31 L2523.69 1184.31 L2523.69 1189.84 Q2525.79 1186.63 2528.62 1185.04 Q2531.48 1183.45 2535.21 1183.45 Q2541.35 1183.45 2544.5 1187.27 Q2547.65 1191.05 2547.65 1198.44 Z" fill="#000000" fill-rule="nonzero" fill-opacity="1" /><path clip-path="url(#clip180)" d="M2565.13 1174.18 L2565.13 1184.31 L2577.19 1184.31 L2577.19 1188.86 L2565.13 1188.86 L2565.13 1208.21 Q2565.13 1212.57 2566.3 1213.81 Q2567.51 1215.05 2571.17 1215.05 L2577.19 1215.05 L2577.19 1219.95 L2571.17 1219.95 Q2564.39 1219.95 2561.82 1217.44 Q2559.24 1214.89 2559.24 1208.21 L2559.24 1188.86 L2554.94 1188.86 L2554.94 1184.31 L2559.24 1184.31 L2559.24 1174.18 L2565.13 1174.18 Z" fill="#000000" fill-rule="nonzero" fill-opacity="1" /><path clip-path="url(#clip180)" d="M2605.61 1184.31 L2611.47 1184.31 L2611.47 1219.95 L2605.61 1219.95 L2605.61 1184.31 M2605.61 1170.43 L2611.47 1170.43 L2611.47 1177.84 L2605.61 1177.84 L2605.61 1170.43 Z" fill="#000000" fill-rule="nonzero" fill-opacity="1" /><path clip-path="url(#clip180)" d="M2653.36 1198.44 L2653.36 1219.95 L2647.5 1219.95 L2647.5 1198.63 Q2647.5 1193.57 2645.53 1191.05 Q2643.55 1188.54 2639.61 1188.54 Q2634.86 1188.54 2632.13 1191.56 Q2629.39 1194.59 2629.39 1199.81 L2629.39 1219.95 L2623.5 1219.95 L2623.5 1184.31 L2629.39 1184.31 L2629.39 1189.84 Q2631.49 1186.63 2634.32 1185.04 Q2637.19 1183.45 2640.91 1183.45 Q2647.05 1183.45 2650.2 1187.27 Q2653.36 1191.05 2653.36 1198.44 Z" fill="#000000" fill-rule="nonzero" fill-opacity="1" /><path clip-path="url(#clip180)" d="M2688.49 1189.72 L2688.49 1170.43 L2694.35 1170.43 L2694.35 1219.95 L2688.49 1219.95 L2688.49 1214.61 Q2686.65 1217.79 2683.82 1219.35 Q2681.01 1220.88 2677.07 1220.88 Q2670.61 1220.88 2666.53 1215.72 Q2662.49 1210.56 2662.49 1202.16 Q2662.49 1193.76 2666.53 1188.6 Q2670.61 1183.45 2677.07 1183.45 Q2681.01 1183.45 2683.82 1185.01 Q2686.65 1186.53 2688.49 1189.72 M2668.54 1202.16 Q2668.54 1208.62 2671.18 1212.31 Q2673.85 1215.98 2678.5 1215.98 Q2683.15 1215.98 2685.82 1212.31 Q2688.49 1208.62 2688.49 1202.16 Q2688.49 1195.7 2685.82 1192.04 Q2683.15 1188.35 2678.5 1188.35 Q2673.85 1188.35 2671.18 1192.04 Q2668.54 1195.7 2668.54 1202.16 Z" fill="#000000" fill-rule="nonzero" fill-opacity="1" /><path clip-path="url(#clip180)" d="M2736.91 1200.67 L2736.91 1203.53 L2709.98 1203.53 Q2710.36 1209.58 2713.61 1212.76 Q2716.89 1215.91 2722.71 1215.91 Q2726.08 1215.91 2729.23 1215.08 Q2732.42 1214.26 2735.54 1212.6 L2735.54 1218.14 Q2732.39 1219.48 2729.08 1220.18 Q2725.77 1220.88 2722.36 1220.88 Q2713.83 1220.88 2708.83 1215.91 Q2703.87 1210.95 2703.87 1202.48 Q2703.87 1193.73 2708.58 1188.6 Q2713.32 1183.45 2721.34 1183.45 Q2728.53 1183.45 2732.7 1188.09 Q2736.91 1192.71 2736.91 1200.67 M2731.05 1198.95 Q2730.99 1194.14 2728.34 1191.28 Q2725.73 1188.41 2721.4 1188.41 Q2716.5 1188.41 2713.54 1191.18 Q2710.62 1193.95 2710.17 1198.98 L2731.05 1198.95 Z" fill="#000000" fill-rule="nonzero" fill-opacity="1" /><path clip-path="url(#clip180)" d="M2775 1184.31 L2762.11 1201.65 L2775.67 1219.95 L2768.77 1219.95 L2758.39 1205.95 L2748.01 1219.95 L2741.11 1219.95 L2754.95 1201.3 L2742.28 1184.31 L2749.19 1184.31 L2758.64 1197.01 L2768.1 1184.31 L2775 1184.31 Z" fill="#000000" fill-rule="nonzero" fill-opacity="1" /><polyline clip-path="url(#clip180)" style="stroke:#000000; stroke-linecap:round; stroke-linejoin:round; stroke-width:4; stroke-opacity:1; fill:none" points="1859.41,1063.09 1859.41,47.2441 "/>
<polyline clip-path="url(#clip180)" style="stroke:#000000; stroke-linecap:round; stroke-linejoin:round; stroke-width:4; stroke-opacity:1; fill:none" points="1859.41,992.328 1878.31,992.328 "/>
<polyline clip-path="url(#clip180)" style="stroke:#000000; stroke-linecap:round; stroke-linejoin:round; stroke-width:4; stroke-opacity:1; fill:none" points="1859.41,773.669 1878.31,773.669 "/>
<polyline clip-path="url(#clip180)" style="stroke:#000000; stroke-linecap:round; stroke-linejoin:round; stroke-width:4; stroke-opacity:1; fill:none" points="1859.41,555.01 1878.31,555.01 "/>
<polyline clip-path="url(#clip180)" style="stroke:#000000; stroke-linecap:round; stroke-linejoin:round; stroke-width:4; stroke-opacity:1; fill:none" points="1859.41,336.352 1878.31,336.352 "/>
<polyline clip-path="url(#clip180)" style="stroke:#000000; stroke-linecap:round; stroke-linejoin:round; stroke-width:4; stroke-opacity:1; fill:none" points="1859.41,117.693 1878.31,117.693 "/>
<path clip-path="url(#clip180)" d="M1703.98 992.78 L1733.66 992.78 L1733.66 996.715 L1703.98 996.715 L1703.98 992.78 Z" fill="#000000" fill-rule="nonzero" fill-opacity="1" /><path clip-path="url(#clip180)" d="M1753.75 978.127 Q1750.14 978.127 1748.31 981.692 Q1746.51 985.233 1746.51 992.363 Q1746.51 999.469 1748.31 1003.03 Q1750.14 1006.58 1753.75 1006.58 Q1757.39 1006.58 1759.19 1003.03 Q1761.02 999.469 1761.02 992.363 Q1761.02 985.233 1759.19 981.692 Q1757.39 978.127 1753.75 978.127 M1753.75 974.423 Q1759.56 974.423 1762.62 979.03 Q1765.7 983.613 1765.7 992.363 Q1765.7 1001.09 1762.62 1005.7 Q1759.56 1010.28 1753.75 1010.28 Q1747.94 1010.28 1744.86 1005.7 Q1741.81 1001.09 1741.81 992.363 Q1741.81 983.613 1744.86 979.03 Q1747.94 974.423 1753.75 974.423 Z" fill="#000000" fill-rule="nonzero" fill-opacity="1" /><path clip-path="url(#clip180)" d="M1773.91 1003.73 L1778.8 1003.73 L1778.8 1009.61 L1773.91 1009.61 L1773.91 1003.73 Z" fill="#000000" fill-rule="nonzero" fill-opacity="1" /><path clip-path="url(#clip180)" d="M1801.83 979.122 L1790.03 997.571 L1801.83 997.571 L1801.83 979.122 M1800.6 975.048 L1806.48 975.048 L1806.48 997.571 L1811.41 997.571 L1811.41 1001.46 L1806.48 1001.46 L1806.48 1009.61 L1801.83 1009.61 L1801.83 1001.46 L1786.23 1001.46 L1786.23 996.946 L1800.6 975.048 Z" fill="#000000" fill-rule="nonzero" fill-opacity="1" /><path clip-path="url(#clip180)" d="M1706.07 774.121 L1735.74 774.121 L1735.74 778.056 L1706.07 778.056 L1706.07 774.121 Z" fill="#000000" fill-rule="nonzero" fill-opacity="1" /><path clip-path="url(#clip180)" d="M1755.84 759.468 Q1752.22 759.468 1750.4 763.033 Q1748.59 766.574 1748.59 773.704 Q1748.59 780.811 1750.4 784.375 Q1752.22 787.917 1755.84 787.917 Q1759.47 787.917 1761.28 784.375 Q1763.1 780.811 1763.1 773.704 Q1763.1 766.574 1761.28 763.033 Q1759.47 759.468 1755.84 759.468 M1755.84 755.764 Q1761.65 755.764 1764.7 760.371 Q1767.78 764.954 1767.78 773.704 Q1767.78 782.431 1764.7 787.037 Q1761.65 791.621 1755.84 791.621 Q1750.03 791.621 1746.95 787.037 Q1743.89 782.431 1743.89 773.704 Q1743.89 764.954 1746.95 760.371 Q1750.03 755.764 1755.84 755.764 Z" fill="#000000" fill-rule="nonzero" fill-opacity="1" /><path clip-path="url(#clip180)" d="M1776 785.07 L1780.88 785.07 L1780.88 790.949 L1776 790.949 L1776 785.07 Z" fill="#000000" fill-rule="nonzero" fill-opacity="1" /><path clip-path="url(#clip180)" d="M1795.09 787.014 L1811.41 787.014 L1811.41 790.949 L1789.47 790.949 L1789.47 787.014 Q1792.13 784.26 1796.71 779.63 Q1801.32 774.977 1802.5 773.635 Q1804.75 771.111 1805.63 769.375 Q1806.53 767.616 1806.53 765.926 Q1806.53 763.172 1804.59 761.436 Q1802.66 759.7 1799.56 759.7 Q1797.36 759.7 1794.91 760.463 Q1792.48 761.227 1789.7 762.778 L1789.7 758.056 Q1792.53 756.922 1794.98 756.343 Q1797.43 755.764 1799.47 755.764 Q1804.84 755.764 1808.03 758.45 Q1811.23 761.135 1811.23 765.625 Q1811.23 767.755 1810.42 769.676 Q1809.63 771.574 1807.53 774.167 Q1806.95 774.838 1803.84 778.056 Q1800.74 781.25 1795.09 787.014 Z" fill="#000000" fill-rule="nonzero" fill-opacity="1" /><path clip-path="url(#clip180)" d="M1754.24 540.809 Q1750.63 540.809 1748.8 544.374 Q1746.99 547.916 1746.99 555.045 Q1746.99 562.152 1748.8 565.716 Q1750.63 569.258 1754.24 569.258 Q1757.87 569.258 1759.68 565.716 Q1761.51 562.152 1761.51 555.045 Q1761.51 547.916 1759.68 544.374 Q1757.87 540.809 1754.24 540.809 M1754.24 537.105 Q1760.05 537.105 1763.1 541.712 Q1766.18 546.295 1766.18 555.045 Q1766.18 563.772 1763.1 568.378 Q1760.05 572.962 1754.24 572.962 Q1748.43 572.962 1745.35 568.378 Q1742.29 563.772 1742.29 555.045 Q1742.29 546.295 1745.35 541.712 Q1748.43 537.105 1754.24 537.105 Z" fill="#000000" fill-rule="nonzero" fill-opacity="1" /><path clip-path="url(#clip180)" d="M1774.4 566.411 L1779.28 566.411 L1779.28 572.29 L1774.4 572.29 L1774.4 566.411 Z" fill="#000000" fill-rule="nonzero" fill-opacity="1" /><path clip-path="url(#clip180)" d="M1799.47 540.809 Q1795.86 540.809 1794.03 544.374 Q1792.22 547.916 1792.22 555.045 Q1792.22 562.152 1794.03 565.716 Q1795.86 569.258 1799.47 569.258 Q1803.1 569.258 1804.91 565.716 Q1806.74 562.152 1806.74 555.045 Q1806.74 547.916 1804.91 544.374 Q1803.1 540.809 1799.47 540.809 M1799.47 537.105 Q1805.28 537.105 1808.34 541.712 Q1811.41 546.295 1811.41 555.045 Q1811.41 563.772 1808.34 568.378 Q1805.28 572.962 1799.47 572.962 Q1793.66 572.962 1790.58 568.378 Q1787.53 563.772 1787.53 555.045 Q1787.53 546.295 1790.58 541.712 Q1793.66 537.105 1799.47 537.105 Z" fill="#000000" fill-rule="nonzero" fill-opacity="1" /><path clip-path="url(#clip180)" d="M1755.84 322.15 Q1752.22 322.15 1750.4 325.715 Q1748.59 329.257 1748.59 336.386 Q1748.59 343.493 1750.4 347.057 Q1752.22 350.599 1755.84 350.599 Q1759.47 350.599 1761.28 347.057 Q1763.1 343.493 1763.1 336.386 Q1763.1 329.257 1761.28 325.715 Q1759.47 322.15 1755.84 322.15 M1755.84 318.447 Q1761.65 318.447 1764.7 323.053 Q1767.78 327.636 1767.78 336.386 Q1767.78 345.113 1764.7 349.72 Q1761.65 354.303 1755.84 354.303 Q1750.03 354.303 1746.95 349.72 Q1743.89 345.113 1743.89 336.386 Q1743.89 327.636 1746.95 323.053 Q1750.03 318.447 1755.84 318.447 Z" fill="#000000" fill-rule="nonzero" fill-opacity="1" /><path clip-path="url(#clip180)" d="M1776 347.752 L1780.88 347.752 L1780.88 353.632 L1776 353.632 L1776 347.752 Z" fill="#000000" fill-rule="nonzero" fill-opacity="1" /><path clip-path="url(#clip180)" d="M1795.09 349.696 L1811.41 349.696 L1811.41 353.632 L1789.47 353.632 L1789.47 349.696 Q1792.13 346.942 1796.71 342.312 Q1801.32 337.659 1802.5 336.317 Q1804.75 333.794 1805.63 332.058 Q1806.53 330.298 1806.53 328.609 Q1806.53 325.854 1804.59 324.118 Q1802.66 322.382 1799.56 322.382 Q1797.36 322.382 1794.91 323.146 Q1792.48 323.909 1789.7 325.46 L1789.7 320.738 Q1792.53 319.604 1794.98 319.025 Q1797.43 318.447 1799.47 318.447 Q1804.84 318.447 1808.03 321.132 Q1811.23 323.817 1811.23 328.308 Q1811.23 330.437 1810.42 332.359 Q1809.63 334.257 1807.53 336.849 Q1806.95 337.521 1803.84 340.738 Q1800.74 343.933 1795.09 349.696 Z" fill="#000000" fill-rule="nonzero" fill-opacity="1" /><path clip-path="url(#clip180)" d="M1753.75 103.491 Q1750.14 103.491 1748.31 107.056 Q1746.51 110.598 1746.51 117.727 Q1746.51 124.834 1748.31 128.399 Q1750.14 131.94 1753.75 131.94 Q1757.39 131.94 1759.19 128.399 Q1761.02 124.834 1761.02 117.727 Q1761.02 110.598 1759.19 107.056 Q1757.39 103.491 1753.75 103.491 M1753.75 99.7876 Q1759.56 99.7876 1762.62 104.394 Q1765.7 108.977 1765.7 117.727 Q1765.7 126.454 1762.62 131.061 Q1759.56 135.644 1753.75 135.644 Q1747.94 135.644 1744.86 131.061 Q1741.81 126.454 1741.81 117.727 Q1741.81 108.977 1744.86 104.394 Q1747.94 99.7876 1753.75 99.7876 Z" fill="#000000" fill-rule="nonzero" fill-opacity="1" /><path clip-path="url(#clip180)" d="M1773.91 129.093 L1778.8 129.093 L1778.8 134.973 L1773.91 134.973 L1773.91 129.093 Z" fill="#000000" fill-rule="nonzero" fill-opacity="1" /><path clip-path="url(#clip180)" d="M1801.83 104.487 L1790.03 122.936 L1801.83 122.936 L1801.83 104.487 M1800.6 100.413 L1806.48 100.413 L1806.48 122.936 L1811.41 122.936 L1811.41 126.825 L1806.48 126.825 L1806.48 134.973 L1801.83 134.973 L1801.83 126.825 L1786.23 126.825 L1786.23 122.311 L1800.6 100.413 Z" fill="#000000" fill-rule="nonzero" fill-opacity="1" /><path clip-path="url(#clip180)" d="M1592.2 540.271 L1597.07 540.271 L1597.07 545.873 Q1597.07 549.024 1598.35 550.265 Q1599.62 551.475 1602.93 551.475 L1606.08 551.475 L1606.08 541.831 L1610.63 541.831 L1610.63 551.475 L1641.73 551.475 L1641.73 557.363 L1610.63 557.363 L1610.63 562.965 L1606.08 562.965 L1606.08 557.363 L1603.6 557.363 Q1597.65 557.363 1594.94 554.594 Q1592.2 551.825 1592.2 545.809 L1592.2 540.271 Z" fill="#000000" fill-rule="nonzero" fill-opacity="1" /><path clip-path="url(#clip180)" d="M1598.12 558 L1596.37 559.814 Q1595.74 560.514 1595.45 561.023 Q1595.13 561.565 1595.13 561.978 Q1595.13 563.188 1596.31 563.761 Q1597.45 564.334 1600.06 564.397 L1600.06 568.376 Q1595.77 568.312 1593.44 566.689 Q1591.09 565.066 1591.09 562.169 Q1591.09 560.96 1591.53 559.941 Q1591.98 558.923 1593.03 557.745 L1594.78 555.931 Q1595.42 555.231 1595.74 554.69 Q1596.02 554.18 1596.02 553.767 Q1596.02 552.557 1594.88 551.984 Q1593.7 551.411 1591.09 551.348 L1591.09 547.369 Q1595.39 547.433 1597.74 549.056 Q1600.06 550.679 1600.06 553.576 Q1600.06 554.785 1599.62 555.804 Q1599.17 556.822 1598.12 558 Z" fill="#000000" fill-rule="nonzero" fill-opacity="1" /><polyline clip-path="url(#clip183)" style="stroke:#009af9; stroke-linecap:round; stroke-linejoin:round; stroke-width:4; stroke-opacity:1; fill:none" points="1896.02,555.01 1946.86,440.423 1997.7,109.626 2048.53,75.9944 2099.37,94.692 2150.21,135.383 2201.05,186.431 2251.89,242.923 2302.73,302.731 2353.57,364.429 2404.41,427.408 2455.25,491.038 2506.08,555.021 2556.92,619.006 2607.76,682.642 2658.6,745.629 2709.44,807.343 2760.28,867.174 2811.12,923.707 2861.96,974.809 2912.8,1015.6 2963.64,1034.34 3014.47,999.195 3065.31,663.309 3116.15,555.01 "/>
</svg>
