<?xml version="1.0" encoding="utf-8"?>
<svg xmlns="http://www.w3.org/2000/svg" xmlns:xlink="http://www.w3.org/1999/xlink" width="600" height="400" viewBox="0 0 2400 1600">
<defs>
  <clipPath id="clip220">
    <rect x="0" y="0" width="2400" height="1600"/>
  </clipPath>
</defs>
<path clip-path="url(#clip220)" d="M0 1600 L2400 1600 L2400 0 L0 0  Z" fill="#ffffff" fill-rule="evenodd" fill-opacity="1"/>
<defs>
  <clipPath id="clip221">
    <rect x="480" y="0" width="1681" height="1600"/>
  </clipPath>
</defs>
<path clip-path="url(#clip220)" d="M194.422 1423.18 L2352.76 1423.18 L2352.76 47.2441 L194.422 47.2441  Z" fill="#ffffff" fill-rule="evenodd" fill-opacity="1"/>
<defs>
  <clipPath id="clip222">
    <rect x="194" y="47" width="2159" height="1377"/>
  </clipPath>
</defs>
<polyline clip-path="url(#clip222)" style="stroke:#000000; stroke-linecap:round; stroke-linejoin:round; stroke-width:2; stroke-opacity:0.1; fill:none" points="242.37,1423.18 242.37,47.2441 "/>
<polyline clip-path="url(#clip222)" style="stroke:#000000; stroke-linecap:round; stroke-linejoin:round; stroke-width:2; stroke-opacity:0.1; fill:none" points="899.198,1423.18 899.198,47.2441 "/>
<polyline clip-path="url(#clip222)" style="stroke:#000000; stroke-linecap:round; stroke-linejoin:round; stroke-width:2; stroke-opacity:0.1; fill:none" points="1556.02,1423.18 1556.02,47.2441 "/>
<polyline clip-path="url(#clip222)" style="stroke:#000000; stroke-linecap:round; stroke-linejoin:round; stroke-width:2; stroke-opacity:0.1; fill:none" points="2212.85,1423.18 2212.85,47.2441 "/>
<polyline clip-path="url(#clip222)" style="stroke:#000000; stroke-linecap:round; stroke-linejoin:round; stroke-width:2; stroke-opacity:0.1; fill:none" points="194.422,1338.99 2352.76,1338.99 "/>
<polyline clip-path="url(#clip222)" style="stroke:#000000; stroke-linecap:round; stroke-linejoin:round; stroke-width:2; stroke-opacity:0.1; fill:none" points="194.422,1013.15 2352.76,1013.15 "/>
<polyline clip-path="url(#clip222)" style="stroke:#000000; stroke-linecap:round; stroke-linejoin:round; stroke-width:2; stroke-opacity:0.1; fill:none" points="194.422,687.304 2352.76,687.304 "/>
<polyline clip-path="url(#clip222)" style="stroke:#000000; stroke-linecap:round; stroke-linejoin:round; stroke-width:2; stroke-opacity:0.1; fill:none" points="194.422,361.459 2352.76,361.459 "/>
<polyline clip-path="url(#clip220)" style="stroke:#000000; stroke-linecap:round; stroke-linejoin:round; stroke-width:4; stroke-opacity:1; fill:none" points="194.422,1423.18 2352.76,1423.18 "/>
<polyline clip-path="url(#clip220)" style="stroke:#000000; stroke-linecap:round; stroke-linejoin:round; stroke-width:4; stroke-opacity:1; fill:none" points="242.37,1423.18 242.37,1404.28 "/>
<polyline clip-path="url(#clip220)" style="stroke:#000000; stroke-linecap:round; stroke-linejoin:round; stroke-width:4; stroke-opacity:1; fill:none" points="899.198,1423.18 899.198,1404.28 "/>
<polyline clip-path="url(#clip220)" style="stroke:#000000; stroke-linecap:round; stroke-linejoin:round; stroke-width:4; stroke-opacity:1; fill:none" points="1556.02,1423.18 1556.02,1404.28 "/>
<polyline clip-path="url(#clip220)" style="stroke:#000000; stroke-linecap:round; stroke-linejoin:round; stroke-width:4; stroke-opacity:1; fill:none" points="2212.85,1423.18 2212.85,1404.28 "/>
<path clip-path="url(#clip220)" d="M242.37 1454.1 Q238.759 1454.1 236.931 1457.66 Q235.125 1461.2 235.125 1468.33 Q235.125 1475.44 236.931 1479.01 Q238.759 1482.55 242.37 1482.55 Q246.005 1482.55 247.81 1479.01 Q249.639 1475.44 249.639 1468.33 Q249.639 1461.2 247.81 1457.66 Q246.005 1454.1 242.37 1454.1 M242.37 1450.39 Q248.181 1450.39 251.236 1455 Q254.315 1459.58 254.315 1468.33 Q254.315 1477.06 251.236 1481.67 Q248.181 1486.25 242.37 1486.25 Q236.56 1486.25 233.482 1481.67 Q230.426 1477.06 230.426 1468.33 Q230.426 1459.58 233.482 1455 Q236.56 1450.39 242.37 1450.39 Z" fill="#000000" fill-rule="nonzero" fill-opacity="1" /><path clip-path="url(#clip220)" d="M873.897 1451.02 L892.253 1451.02 L892.253 1454.96 L878.179 1454.96 L878.179 1463.43 Q879.198 1463.08 880.216 1462.92 Q881.235 1462.73 882.253 1462.73 Q888.04 1462.73 891.42 1465.9 Q894.799 1469.08 894.799 1474.49 Q894.799 1480.07 891.327 1483.17 Q887.855 1486.25 881.536 1486.25 Q879.36 1486.25 877.091 1485.88 Q874.846 1485.51 872.438 1484.77 L872.438 1480.07 Q874.522 1481.2 876.744 1481.76 Q878.966 1482.32 881.443 1482.32 Q885.448 1482.32 887.786 1480.21 Q890.124 1478.1 890.124 1474.49 Q890.124 1470.88 887.786 1468.77 Q885.448 1466.67 881.443 1466.67 Q879.568 1466.67 877.693 1467.08 Q875.841 1467.5 873.897 1468.38 L873.897 1451.02 Z" fill="#000000" fill-rule="nonzero" fill-opacity="1" /><path clip-path="url(#clip220)" d="M914.012 1454.1 Q910.401 1454.1 908.573 1457.66 Q906.767 1461.2 906.767 1468.33 Q906.767 1475.44 908.573 1479.01 Q910.401 1482.55 914.012 1482.55 Q917.647 1482.55 919.452 1479.01 Q921.281 1475.44 921.281 1468.33 Q921.281 1461.2 919.452 1457.66 Q917.647 1454.1 914.012 1454.1 M914.012 1450.39 Q919.822 1450.39 922.878 1455 Q925.957 1459.58 925.957 1468.33 Q925.957 1477.06 922.878 1481.67 Q919.822 1486.25 914.012 1486.25 Q908.202 1486.25 905.123 1481.67 Q902.068 1477.06 902.068 1468.33 Q902.068 1459.58 905.123 1455 Q908.202 1450.39 914.012 1450.39 Z" fill="#000000" fill-rule="nonzero" fill-opacity="1" /><path clip-path="url(#clip220)" d="M1515.63 1481.64 L1523.27 1481.64 L1523.27 1455.28 L1514.96 1456.95 L1514.96 1452.69 L1523.22 1451.02 L1527.9 1451.02 L1527.9 1481.64 L1535.54 1481.64 L1535.54 1485.58 L1515.63 1485.58 L1515.63 1481.64 Z" fill="#000000" fill-rule="nonzero" fill-opacity="1" /><path clip-path="url(#clip220)" d="M1554.98 1454.1 Q1551.37 1454.1 1549.54 1457.66 Q1547.74 1461.2 1547.74 1468.33 Q1547.74 1475.44 1549.54 1479.01 Q1551.37 1482.55 1554.98 1482.55 Q1558.62 1482.55 1560.42 1479.01 Q1562.25 1475.44 1562.25 1468.33 Q1562.25 1461.2 1560.42 1457.66 Q1558.62 1454.1 1554.98 1454.1 M1554.98 1450.39 Q1560.79 1450.39 1563.85 1455 Q1566.93 1459.58 1566.93 1468.33 Q1566.93 1477.06 1563.85 1481.67 Q1560.79 1486.25 1554.98 1486.25 Q1549.17 1486.25 1546.09 1481.67 Q1543.04 1477.06 1543.04 1468.33 Q1543.04 1459.58 1546.09 1455 Q1549.17 1450.39 1554.98 1450.39 Z" fill="#000000" fill-rule="nonzero" fill-opacity="1" /><path clip-path="url(#clip220)" d="M1585.14 1454.1 Q1581.53 1454.1 1579.71 1457.66 Q1577.9 1461.2 1577.9 1468.33 Q1577.9 1475.44 1579.71 1479.01 Q1581.53 1482.55 1585.14 1482.55 Q1588.78 1482.55 1590.58 1479.01 Q1592.41 1475.44 1592.41 1468.33 Q1592.41 1461.2 1590.58 1457.66 Q1588.78 1454.1 1585.14 1454.1 M1585.14 1450.39 Q1590.96 1450.39 1594.01 1455 Q1597.09 1459.58 1597.09 1468.33 Q1597.09 1477.06 1594.01 1481.67 Q1590.96 1486.25 1585.14 1486.25 Q1579.33 1486.25 1576.26 1481.67 Q1573.2 1477.06 1573.2 1468.33 Q1573.2 1459.58 1576.26 1455 Q1579.33 1450.39 1585.14 1450.39 Z" fill="#000000" fill-rule="nonzero" fill-opacity="1" /><path clip-path="url(#clip220)" d="M2172.46 1481.64 L2180.1 1481.64 L2180.1 1455.28 L2171.79 1456.95 L2171.79 1452.69 L2180.05 1451.02 L2184.73 1451.02 L2184.73 1481.64 L2192.37 1481.64 L2192.37 1485.58 L2172.46 1485.58 L2172.46 1481.64 Z" fill="#000000" fill-rule="nonzero" fill-opacity="1" /><path clip-path="url(#clip220)" d="M2201.86 1451.02 L2220.21 1451.02 L2220.21 1454.96 L2206.14 1454.96 L2206.14 1463.43 Q2207.16 1463.08 2208.18 1462.92 Q2209.19 1462.73 2210.21 1462.73 Q2216 1462.73 2219.38 1465.9 Q2222.76 1469.08 2222.76 1474.49 Q2222.76 1480.07 2219.29 1483.17 Q2215.81 1486.25 2209.5 1486.25 Q2207.32 1486.25 2205.05 1485.88 Q2202.81 1485.51 2200.4 1484.77 L2200.4 1480.07 Q2202.48 1481.2 2204.7 1481.76 Q2206.93 1482.32 2209.4 1482.32 Q2213.41 1482.32 2215.75 1480.21 Q2218.08 1478.1 2218.08 1474.49 Q2218.08 1470.88 2215.75 1468.77 Q2213.41 1466.67 2209.4 1466.67 Q2207.53 1466.67 2205.65 1467.08 Q2203.8 1467.5 2201.86 1468.38 L2201.86 1451.02 Z" fill="#000000" fill-rule="nonzero" fill-opacity="1" /><path clip-path="url(#clip220)" d="M2241.97 1454.1 Q2238.36 1454.1 2236.53 1457.66 Q2234.73 1461.2 2234.73 1468.33 Q2234.73 1475.44 2236.53 1479.01 Q2238.36 1482.55 2241.97 1482.55 Q2245.61 1482.55 2247.41 1479.01 Q2249.24 1475.44 2249.24 1468.33 Q2249.24 1461.2 2247.41 1457.66 Q2245.61 1454.1 2241.97 1454.1 M2241.97 1450.39 Q2247.78 1450.39 2250.84 1455 Q2253.92 1459.58 2253.92 1468.33 Q2253.92 1477.06 2250.84 1481.67 Q2247.78 1486.25 2241.97 1486.25 Q2236.16 1486.25 2233.08 1481.67 Q2230.03 1477.06 2230.03 1468.33 Q2230.03 1459.58 2233.08 1455 Q2236.16 1450.39 2241.97 1450.39 Z" fill="#000000" fill-rule="nonzero" fill-opacity="1" /><path clip-path="url(#clip220)" d="M1029.81 1550.25 Q1029.81 1543.79 1027.14 1540.13 Q1024.5 1536.44 1019.85 1536.44 Q1015.2 1536.44 1012.53 1540.13 Q1009.89 1543.79 1009.89 1550.25 Q1009.89 1556.71 1012.53 1560.4 Q1015.2 1564.07 1019.85 1564.07 Q1024.5 1564.07 1027.14 1560.4 Q1029.81 1556.71 1029.81 1550.25 M1009.89 1537.81 Q1011.74 1534.62 1014.54 1533.1 Q1017.37 1531.54 1021.28 1531.54 Q1027.78 1531.54 1031.82 1536.69 Q1035.89 1541.85 1035.89 1550.25 Q1035.89 1558.65 1031.82 1563.81 Q1027.78 1568.97 1021.28 1568.97 Q1017.37 1568.97 1014.54 1567.44 Q1011.74 1565.88 1009.89 1562.7 L1009.89 1568.04 L1004 1568.04 L1004 1518.52 L1009.89 1518.52 L1009.89 1537.81 Z" fill="#000000" fill-rule="nonzero" fill-opacity="1" /><path clip-path="url(#clip220)" d="M1059.41 1536.5 Q1054.7 1536.5 1051.97 1540.19 Q1049.23 1543.85 1049.23 1550.25 Q1049.23 1556.65 1051.94 1560.34 Q1054.67 1564 1059.41 1564 Q1064.09 1564 1066.83 1560.31 Q1069.57 1556.62 1069.57 1550.25 Q1069.57 1543.92 1066.83 1540.23 Q1064.09 1536.5 1059.41 1536.5 M1059.41 1531.54 Q1067.05 1531.54 1071.41 1536.5 Q1075.77 1541.47 1075.77 1550.25 Q1075.77 1559 1071.41 1564 Q1067.05 1568.97 1059.41 1568.97 Q1051.74 1568.97 1047.38 1564 Q1043.05 1559 1043.05 1550.25 Q1043.05 1541.47 1047.38 1536.5 Q1051.74 1531.54 1059.41 1531.54 Z" fill="#000000" fill-rule="nonzero" fill-opacity="1" /><path clip-path="url(#clip220)" d="M1108.94 1537.81 L1108.94 1518.52 L1114.8 1518.52 L1114.8 1568.04 L1108.94 1568.04 L1108.94 1562.7 Q1107.09 1565.88 1104.26 1567.44 Q1101.46 1568.97 1097.51 1568.97 Q1091.05 1568.97 1086.98 1563.81 Q1082.94 1558.65 1082.94 1550.25 Q1082.94 1541.85 1086.98 1536.69 Q1091.05 1531.54 1097.51 1531.54 Q1101.46 1531.54 1104.26 1533.1 Q1107.09 1534.62 1108.94 1537.81 M1088.98 1550.25 Q1088.98 1556.71 1091.63 1560.4 Q1094.3 1564.07 1098.95 1564.07 Q1103.59 1564.07 1106.27 1560.4 Q1108.94 1556.71 1108.94 1550.25 Q1108.94 1543.79 1106.27 1540.13 Q1103.59 1536.44 1098.95 1536.44 Q1094.3 1536.44 1091.63 1540.13 Q1088.98 1543.79 1088.98 1550.25 Z" fill="#000000" fill-rule="nonzero" fill-opacity="1" /><path clip-path="url(#clip220)" d="M1141.69 1571.35 Q1139.21 1577.72 1136.85 1579.66 Q1134.5 1581.6 1130.55 1581.6 L1125.87 1581.6 L1125.87 1576.7 L1129.31 1576.7 Q1131.73 1576.7 1133.07 1575.56 Q1134.4 1574.41 1136.03 1570.14 L1137.08 1567.47 L1122.66 1532.4 L1128.86 1532.4 L1140 1560.28 L1151.14 1532.4 L1157.35 1532.4 L1141.69 1571.35 Z" fill="#000000" fill-rule="nonzero" fill-opacity="1" /><path clip-path="url(#clip220)" d="M1191.82 1562.7 L1191.82 1581.6 L1185.93 1581.6 L1185.93 1532.4 L1191.82 1532.4 L1191.82 1537.81 Q1193.67 1534.62 1196.47 1533.1 Q1199.3 1531.54 1203.22 1531.54 Q1209.71 1531.54 1213.75 1536.69 Q1217.83 1541.85 1217.83 1550.25 Q1217.83 1558.65 1213.75 1563.81 Q1209.71 1568.97 1203.22 1568.97 Q1199.3 1568.97 1196.47 1567.44 Q1193.67 1565.88 1191.82 1562.7 M1211.75 1550.25 Q1211.75 1543.79 1209.07 1540.13 Q1206.43 1536.44 1201.78 1536.44 Q1197.14 1536.44 1194.46 1540.13 Q1191.82 1543.79 1191.82 1550.25 Q1191.82 1556.71 1194.46 1560.4 Q1197.14 1564.07 1201.78 1564.07 Q1206.43 1564.07 1209.07 1560.4 Q1211.75 1556.71 1211.75 1550.25 Z" fill="#000000" fill-rule="nonzero" fill-opacity="1" /><path clip-path="url(#clip220)" d="M1241.35 1536.5 Q1236.64 1536.5 1233.9 1540.19 Q1231.16 1543.85 1231.16 1550.25 Q1231.16 1556.65 1233.87 1560.34 Q1236.6 1564 1241.35 1564 Q1246.03 1564 1248.76 1560.31 Q1251.5 1556.62 1251.5 1550.25 Q1251.5 1543.92 1248.76 1540.23 Q1246.03 1536.5 1241.35 1536.5 M1241.35 1531.54 Q1248.99 1531.54 1253.35 1536.5 Q1257.71 1541.47 1257.71 1550.25 Q1257.71 1559 1253.35 1564 Q1248.99 1568.97 1241.35 1568.97 Q1233.68 1568.97 1229.32 1564 Q1224.99 1559 1224.99 1550.25 Q1224.99 1541.47 1229.32 1536.5 Q1233.68 1531.54 1241.35 1531.54 Z" fill="#000000" fill-rule="nonzero" fill-opacity="1" /><path clip-path="url(#clip220)" d="M1267.41 1532.4 L1273.27 1532.4 L1273.27 1568.04 L1267.41 1568.04 L1267.41 1532.4 M1267.41 1518.52 L1273.27 1518.52 L1273.27 1525.93 L1267.41 1525.93 L1267.41 1518.52 Z" fill="#000000" fill-rule="nonzero" fill-opacity="1" /><path clip-path="url(#clip220)" d="M1315.16 1546.53 L1315.16 1568.04 L1309.3 1568.04 L1309.3 1546.72 Q1309.3 1541.66 1307.33 1539.14 Q1305.35 1536.63 1301.41 1536.63 Q1296.66 1536.63 1293.93 1539.65 Q1291.19 1542.68 1291.19 1547.9 L1291.19 1568.04 L1285.3 1568.04 L1285.3 1532.4 L1291.19 1532.4 L1291.19 1537.93 Q1293.29 1534.72 1296.12 1533.13 Q1298.99 1531.54 1302.71 1531.54 Q1308.86 1531.54 1312.01 1535.36 Q1315.16 1539.14 1315.16 1546.53 Z" fill="#000000" fill-rule="nonzero" fill-opacity="1" /><path clip-path="url(#clip220)" d="M1332.63 1522.27 L1332.63 1532.4 L1344.69 1532.4 L1344.69 1536.95 L1332.63 1536.95 L1332.63 1556.3 Q1332.63 1560.66 1333.81 1561.9 Q1335.02 1563.14 1338.68 1563.14 L1344.69 1563.14 L1344.69 1568.04 L1338.68 1568.04 Q1331.9 1568.04 1329.32 1565.53 Q1326.74 1562.98 1326.74 1556.3 L1326.74 1536.95 L1322.45 1536.95 L1322.45 1532.4 L1326.74 1532.4 L1326.74 1522.27 L1332.63 1522.27 Z" fill="#000000" fill-rule="nonzero" fill-opacity="1" /><path clip-path="url(#clip220)" d="M1373.12 1532.4 L1378.97 1532.4 L1378.97 1568.04 L1373.12 1568.04 L1373.12 1532.4 M1373.12 1518.52 L1378.97 1518.52 L1378.97 1525.93 L1373.12 1525.93 L1373.12 1518.52 Z" fill="#000000" fill-rule="nonzero" fill-opacity="1" /><path clip-path="url(#clip220)" d="M1420.86 1546.53 L1420.86 1568.04 L1415 1568.04 L1415 1546.72 Q1415 1541.66 1413.03 1539.14 Q1411.06 1536.63 1407.11 1536.63 Q1402.37 1536.63 1399.63 1539.65 Q1396.89 1542.68 1396.89 1547.9 L1396.89 1568.04 L1391 1568.04 L1391 1532.4 L1396.89 1532.4 L1396.89 1537.93 Q1398.99 1534.72 1401.83 1533.13 Q1404.69 1531.54 1408.41 1531.54 Q1414.56 1531.54 1417.71 1535.36 Q1420.86 1539.14 1420.86 1546.53 Z" fill="#000000" fill-rule="nonzero" fill-opacity="1" /><path clip-path="url(#clip220)" d="M1456 1537.81 L1456 1518.52 L1461.85 1518.52 L1461.85 1568.04 L1456 1568.04 L1456 1562.7 Q1454.15 1565.88 1451.32 1567.44 Q1448.52 1568.97 1444.57 1568.97 Q1438.11 1568.97 1434.04 1563.81 Q1429.99 1558.65 1429.99 1550.25 Q1429.99 1541.85 1434.04 1536.69 Q1438.11 1531.54 1444.57 1531.54 Q1448.52 1531.54 1451.32 1533.1 Q1454.15 1534.62 1456 1537.81 M1436.04 1550.25 Q1436.04 1556.71 1438.68 1560.4 Q1441.36 1564.07 1446 1564.07 Q1450.65 1564.07 1453.32 1560.4 Q1456 1556.71 1456 1550.25 Q1456 1543.79 1453.32 1540.13 Q1450.65 1536.44 1446 1536.44 Q1441.36 1536.44 1438.68 1540.13 Q1436.04 1543.79 1436.04 1550.25 Z" fill="#000000" fill-rule="nonzero" fill-opacity="1" /><path clip-path="url(#clip220)" d="M1504.41 1548.76 L1504.41 1551.62 L1477.48 1551.62 Q1477.86 1557.67 1481.11 1560.85 Q1484.39 1564 1490.21 1564 Q1493.59 1564 1496.74 1563.17 Q1499.92 1562.35 1503.04 1560.69 L1503.04 1566.23 Q1499.89 1567.57 1496.58 1568.27 Q1493.27 1568.97 1489.86 1568.97 Q1481.33 1568.97 1476.34 1564 Q1471.37 1559.04 1471.37 1550.57 Q1471.37 1541.82 1476.08 1536.69 Q1480.82 1531.54 1488.85 1531.54 Q1496.04 1531.54 1500.21 1536.18 Q1504.41 1540.8 1504.41 1548.76 M1498.55 1547.04 Q1498.49 1542.23 1495.85 1539.37 Q1493.24 1536.5 1488.91 1536.5 Q1484.01 1536.5 1481.05 1539.27 Q1478.12 1542.04 1477.67 1547.07 L1498.55 1547.04 Z" fill="#000000" fill-rule="nonzero" fill-opacity="1" /><path clip-path="url(#clip220)" d="M1542.51 1532.4 L1529.62 1549.74 L1543.18 1568.04 L1536.27 1568.04 L1525.89 1554.04 L1515.52 1568.04 L1508.61 1568.04 L1522.46 1549.39 L1509.79 1532.4 L1516.7 1532.4 L1526.15 1545.1 L1535.6 1532.4 L1542.51 1532.4 Z" fill="#000000" fill-rule="nonzero" fill-opacity="1" /><polyline clip-path="url(#clip220)" style="stroke:#000000; stroke-linecap:round; stroke-linejoin:round; stroke-width:4; stroke-opacity:1; fill:none" points="194.422,1423.18 194.422,47.2441 "/>
<polyline clip-path="url(#clip220)" style="stroke:#000000; stroke-linecap:round; stroke-linejoin:round; stroke-width:4; stroke-opacity:1; fill:none" points="194.422,1338.99 213.32,1338.99 "/>
<polyline clip-path="url(#clip220)" style="stroke:#000000; stroke-linecap:round; stroke-linejoin:round; stroke-width:4; stroke-opacity:1; fill:none" points="194.422,1013.15 213.32,1013.15 "/>
<polyline clip-path="url(#clip220)" style="stroke:#000000; stroke-linecap:round; stroke-linejoin:round; stroke-width:4; stroke-opacity:1; fill:none" points="194.422,687.304 213.32,687.304 "/>
<polyline clip-path="url(#clip220)" style="stroke:#000000; stroke-linecap:round; stroke-linejoin:round; stroke-width:4; stroke-opacity:1; fill:none" points="194.422,361.459 213.32,361.459 "/>
<path clip-path="url(#clip220)" d="M51.5708 1339.44 L81.2466 1339.44 L81.2466 1343.38 L51.5708 1343.38 L51.5708 1339.44 Z" fill="#000000" fill-rule="nonzero" fill-opacity="1" /><path clip-path="url(#clip220)" d="M101.339 1324.79 Q97.728 1324.79 95.8993 1328.36 Q94.0937 1331.9 94.0937 1339.03 Q94.0937 1346.13 95.8993 1349.7 Q97.728 1353.24 101.339 1353.24 Q104.973 1353.24 106.779 1349.7 Q108.608 1346.13 108.608 1339.03 Q108.608 1331.9 106.779 1328.36 Q104.973 1324.79 101.339 1324.79 M101.339 1321.09 Q107.149 1321.09 110.205 1325.69 Q113.283 1330.28 113.283 1339.03 Q113.283 1347.75 110.205 1352.36 Q107.149 1356.94 101.339 1356.94 Q95.5289 1356.94 92.4502 1352.36 Q89.3947 1347.75 89.3947 1339.03 Q89.3947 1330.28 92.4502 1325.69 Q95.5289 1321.09 101.339 1321.09 Z" fill="#000000" fill-rule="nonzero" fill-opacity="1" /><path clip-path="url(#clip220)" d="M121.501 1350.39 L126.385 1350.39 L126.385 1356.27 L121.501 1356.27 L121.501 1350.39 Z" fill="#000000" fill-rule="nonzero" fill-opacity="1" /><path clip-path="url(#clip220)" d="M146.57 1339.86 Q143.237 1339.86 141.316 1341.64 Q139.418 1343.43 139.418 1346.55 Q139.418 1349.68 141.316 1351.46 Q143.237 1353.24 146.57 1353.24 Q149.904 1353.24 151.825 1351.46 Q153.746 1349.65 153.746 1346.55 Q153.746 1343.43 151.825 1341.64 Q149.927 1339.86 146.57 1339.86 M141.894 1337.87 Q138.885 1337.13 137.195 1335.07 Q135.529 1333.01 135.529 1330.05 Q135.529 1325.9 138.469 1323.5 Q141.431 1321.09 146.57 1321.09 Q151.732 1321.09 154.672 1323.5 Q157.612 1325.9 157.612 1330.05 Q157.612 1333.01 155.922 1335.07 Q154.255 1337.13 151.269 1337.87 Q154.649 1338.66 156.524 1340.95 Q158.422 1343.24 158.422 1346.55 Q158.422 1351.57 155.343 1354.26 Q152.288 1356.94 146.57 1356.94 Q140.853 1356.94 137.774 1354.26 Q134.719 1351.57 134.719 1346.55 Q134.719 1343.24 136.617 1340.95 Q138.515 1338.66 141.894 1337.87 M140.181 1330.49 Q140.181 1333.17 141.848 1334.68 Q143.538 1336.18 146.57 1336.18 Q149.58 1336.18 151.269 1334.68 Q152.982 1333.17 152.982 1330.49 Q152.982 1327.8 151.269 1326.3 Q149.58 1324.79 146.57 1324.79 Q143.538 1324.79 141.848 1326.3 Q140.181 1327.8 140.181 1330.49 Z" fill="#000000" fill-rule="nonzero" fill-opacity="1" /><path clip-path="url(#clip220)" d="M51.3162 1013.6 L80.992 1013.6 L80.992 1017.53 L51.3162 1017.53 L51.3162 1013.6 Z" fill="#000000" fill-rule="nonzero" fill-opacity="1" /><path clip-path="url(#clip220)" d="M101.084 998.947 Q97.4734 998.947 95.6447 1002.51 Q93.8391 1006.05 93.8391 1013.18 Q93.8391 1020.29 95.6447 1023.85 Q97.4734 1027.4 101.084 1027.4 Q104.719 1027.4 106.524 1023.85 Q108.353 1020.29 108.353 1013.18 Q108.353 1006.05 106.524 1002.51 Q104.719 998.947 101.084 998.947 M101.084 995.243 Q106.895 995.243 109.95 999.85 Q113.029 1004.43 113.029 1013.18 Q113.029 1021.91 109.95 1026.52 Q106.895 1031.1 101.084 1031.1 Q95.2743 1031.1 92.1956 1026.52 Q89.1401 1021.91 89.1401 1013.18 Q89.1401 1004.43 92.1956 999.85 Q95.2743 995.243 101.084 995.243 Z" fill="#000000" fill-rule="nonzero" fill-opacity="1" /><path clip-path="url(#clip220)" d="M121.246 1024.55 L126.131 1024.55 L126.131 1030.43 L121.246 1030.43 L121.246 1024.55 Z" fill="#000000" fill-rule="nonzero" fill-opacity="1" /><path clip-path="url(#clip220)" d="M146.894 1011.28 Q143.746 1011.28 141.894 1013.44 Q140.066 1015.59 140.066 1019.34 Q140.066 1023.07 141.894 1025.24 Q143.746 1027.4 146.894 1027.4 Q150.043 1027.4 151.871 1025.24 Q153.723 1023.07 153.723 1019.34 Q153.723 1015.59 151.871 1013.44 Q150.043 1011.28 146.894 1011.28 M156.177 996.632 L156.177 1000.89 Q154.417 1000.06 152.612 999.618 Q150.83 999.178 149.07 999.178 Q144.441 999.178 141.987 1002.3 Q139.556 1005.43 139.209 1011.75 Q140.575 1009.73 142.635 1008.67 Q144.695 1007.58 147.172 1007.58 Q152.38 1007.58 155.39 1010.75 Q158.422 1013.9 158.422 1019.34 Q158.422 1024.66 155.274 1027.88 Q152.126 1031.1 146.894 1031.1 Q140.899 1031.1 137.728 1026.52 Q134.556 1021.91 134.556 1013.18 Q134.556 1004.99 138.445 1000.13 Q142.334 995.243 148.885 995.243 Q150.644 995.243 152.427 995.59 Q154.232 995.938 156.177 996.632 Z" fill="#000000" fill-rule="nonzero" fill-opacity="1" /><path clip-path="url(#clip220)" d="M50.9921 687.755 L80.6679 687.755 L80.6679 691.69 L50.9921 691.69 L50.9921 687.755 Z" fill="#000000" fill-rule="nonzero" fill-opacity="1" /><path clip-path="url(#clip220)" d="M100.76 673.103 Q97.1493 673.103 95.3206 676.667 Q93.515 680.209 93.515 687.339 Q93.515 694.445 95.3206 698.01 Q97.1493 701.551 100.76 701.551 Q104.395 701.551 106.2 698.01 Q108.029 694.445 108.029 687.339 Q108.029 680.209 106.2 676.667 Q104.395 673.103 100.76 673.103 M100.76 669.399 Q106.571 669.399 109.626 674.005 Q112.705 678.589 112.705 687.339 Q112.705 696.065 109.626 700.672 Q106.571 705.255 100.76 705.255 Q94.9502 705.255 91.8715 700.672 Q88.816 696.065 88.816 687.339 Q88.816 678.589 91.8715 674.005 Q94.9502 669.399 100.76 669.399 Z" fill="#000000" fill-rule="nonzero" fill-opacity="1" /><path clip-path="url(#clip220)" d="M120.922 698.704 L125.807 698.704 L125.807 704.584 L120.922 704.584 L120.922 698.704 Z" fill="#000000" fill-rule="nonzero" fill-opacity="1" /><path clip-path="url(#clip220)" d="M148.839 674.098 L137.033 692.547 L148.839 692.547 L148.839 674.098 M147.612 670.024 L153.492 670.024 L153.492 692.547 L158.422 692.547 L158.422 696.436 L153.492 696.436 L153.492 704.584 L148.839 704.584 L148.839 696.436 L133.237 696.436 L133.237 691.922 L147.612 670.024 Z" fill="#000000" fill-rule="nonzero" fill-opacity="1" /><path clip-path="url(#clip220)" d="M53.0754 361.911 L82.7512 361.911 L82.7512 365.846 L53.0754 365.846 L53.0754 361.911 Z" fill="#000000" fill-rule="nonzero" fill-opacity="1" /><path clip-path="url(#clip220)" d="M102.844 347.258 Q99.2326 347.258 97.4039 350.823 Q95.5984 354.365 95.5984 361.494 Q95.5984 368.601 97.4039 372.165 Q99.2326 375.707 102.844 375.707 Q106.478 375.707 108.283 372.165 Q110.112 368.601 110.112 361.494 Q110.112 354.365 108.283 350.823 Q106.478 347.258 102.844 347.258 M102.844 343.554 Q108.654 343.554 111.709 348.161 Q114.788 352.744 114.788 361.494 Q114.788 370.221 111.709 374.827 Q108.654 379.411 102.844 379.411 Q97.0335 379.411 93.9549 374.827 Q90.8993 370.221 90.8993 361.494 Q90.8993 352.744 93.9549 348.161 Q97.0335 343.554 102.844 343.554 Z" fill="#000000" fill-rule="nonzero" fill-opacity="1" /><path clip-path="url(#clip220)" d="M123.006 372.86 L127.89 372.86 L127.89 378.739 L123.006 378.739 L123.006 372.86 Z" fill="#000000" fill-rule="nonzero" fill-opacity="1" /><path clip-path="url(#clip220)" d="M142.103 374.804 L158.422 374.804 L158.422 378.739 L136.478 378.739 L136.478 374.804 Q139.14 372.05 143.723 367.42 Q148.33 362.767 149.51 361.425 Q151.755 358.902 152.635 357.166 Q153.538 355.406 153.538 353.716 Q153.538 350.962 151.593 349.226 Q149.672 347.49 146.57 347.49 Q144.371 347.49 141.918 348.254 Q139.487 349.017 136.709 350.568 L136.709 345.846 Q139.533 344.712 141.987 344.133 Q144.441 343.554 146.478 343.554 Q151.848 343.554 155.042 346.24 Q158.237 348.925 158.237 353.416 Q158.237 355.545 157.427 357.466 Q156.64 359.365 154.533 361.957 Q153.955 362.628 150.853 365.846 Q147.751 369.04 142.103 374.804 Z" fill="#000000" fill-rule="nonzero" fill-opacity="1" /><polyline clip-path="url(#clip222)" style="stroke:#009af9; stroke-linecap:round; stroke-linejoin:round; stroke-width:4; stroke-opacity:1; fill:none" points="255.507,1384.24 268.644,1370.82 281.78,1332.06 294.917,1262.77 308.053,1185.48 321.19,1116.43 334.326,1004.89 347.463,940.662 360.599,840.181 373.736,772.104 386.872,700.26 400.009,635.067 413.146,582.328 426.282,534.724 439.419,486.725 452.555,444.569 465.692,418.67 478.828,379.124 491.965,355.934 505.101,330.719 518.238,308.583 531.374,290.009 544.511,269.688 557.647,259.199 570.784,239.996 583.921,228.92 597.057,218.724 610.194,207.167 623.33,196.777 636.467,188.839 649.603,181.226 662.74,172.638 675.876,168.628 689.013,159.419 702.149,156.61 715.286,149.528 728.423,144.971 741.559,141.195 754.696,136.963 767.832,133.137 780.969,129.667 794.105,126.516 807.242,122.966 820.378,120.08 833.515,118.746 846.651,114.466 859.788,114.094 872.924,110.417 886.061,109.191 899.198,107.152 912.334,105.119 925.471,103.883 938.607,102.72 951.744,100.805 964.88,98.9973 978.017,99.2153 991.153,96.6045 1004.29,96.2631 1017.43,95.086 1030.56,94.1298 1043.7,93.4266 1056.84,91.9301 1069.97,92.4811 1083.11,90.4858 1096.25,90.2716 1109.38,90.0827 1122.52,89.2405 1135.66,88.4584 1148.79,88.2472 1161.93,87.9702 1175.06,87.1023 1188.2,87.8242 1201.34,86.3111 1214.47,87.2509 1227.61,86.2608 1240.75,86.1857 1253.88,86.3833 1267.02,86.2572 1280.16,86.2156 1293.29,86.2572 1306.43,86.3833 1319.57,86.1857 1332.7,86.2608 1345.84,87.2509 1358.98,86.3111 1372.11,87.8242 1385.25,87.1023 1398.39,87.9702 1411.52,88.2472 1424.66,88.4584 1437.8,89.2405 1450.93,90.0827 1464.07,90.2716 1477.21,90.4858 1490.34,92.4811 1503.48,91.9301 1516.62,93.4266 1529.75,94.1298 1542.89,95.086 1556.02,96.2631 1569.16,96.6045 1582.3,99.2153 1595.43,98.9973 1608.57,100.805 1621.71,102.72 1634.84,103.883 1647.98,105.119 1661.12,107.152 1674.25,109.191 1687.39,110.417 1700.53,114.094 1713.66,114.466 1726.8,118.746 1739.94,120.08 1753.07,122.966 1766.21,126.517 1779.35,129.667 1792.48,133.137 1805.62,136.963 1818.76,141.195 1831.89,144.971 1845.03,149.528 1858.17,156.61 1871.3,159.419 1884.44,168.628 1897.57,172.638 1910.71,181.226 1923.85,188.839 1936.98,196.777 1950.12,207.167 1963.26,218.724 1976.39,228.92 1989.53,239.996 2002.67,259.199 2015.8,269.688 2028.94,290.009 2042.08,308.583 2055.21,330.719 2068.35,355.934 2081.49,379.124 2094.62,418.67 2107.76,444.569 2120.9,486.725 2134.03,534.724 2147.17,582.328 2160.31,635.067 2173.44,700.26 2186.58,772.104 2199.72,840.181 2212.85,940.662 2225.99,1004.89 2239.12,1116.43 2252.26,1185.48 2265.4,1262.77 2278.53,1332.06 2291.67,1370.82 "/>
<polyline clip-path="url(#clip222)" style="stroke:#e26f46; stroke-linecap:round; stroke-linejoin:round; stroke-width:4; stroke-opacity:1; fill:none" points="255.507,1332.11 268.644,1319.61 281.78,1283.55 294.917,1227.8 308.053,1157.73 321.19,1079.06 334.326,996.908 347.463,915.32 360.599,837.126 373.736,764.062 386.872,697.008 400.009,636.234 413.146,581.616 426.282,532.795 439.419,489.296 452.555,450.6 465.692,416.188 478.828,385.57 491.965,358.297 505.101,333.963 518.238,312.212 531.374,292.727 544.511,275.234 557.647,259.492 570.784,245.294 583.921,232.459 597.057,220.828 610.194,210.266 623.33,200.654 636.467,191.887 649.603,183.875 662.74,176.539 675.876,169.808 689.013,163.623 702.149,157.929 715.286,152.679 728.423,147.831 741.559,143.347 754.696,139.195 767.832,135.345 780.969,131.771 794.105,128.45 807.242,125.36 820.378,122.483 833.515,119.801 846.651,117.3 859.788,114.967 872.924,112.787 886.061,110.751 899.198,108.848 912.334,107.07 925.471,105.407 938.607,103.852 951.744,102.398 964.88,101.039 978.017,99.7696 991.153,98.5842 1004.29,97.4781 1017.43,96.4471 1030.56,95.487 1043.7,94.5945 1056.84,93.7662 1069.97,92.999 1083.11,92.2904 1096.25,91.6378 1109.38,91.039 1122.52,90.492 1135.66,89.995 1148.79,89.5463 1161.93,89.1445 1175.06,88.7883 1188.2,88.4766 1201.34,88.2084 1214.47,87.9828 1227.61,87.7992 1240.75,87.6569 1253.88,87.5557 1267.02,87.495 1280.16,87.4748 1293.29,87.495 1306.43,87.5557 1319.57,87.6569 1332.7,87.7992 1345.84,87.9828 1358.98,88.2084 1372.11,88.4766 1385.25,88.7883 1398.39,89.1445 1411.52,89.5463 1424.66,89.995 1437.8,90.492 1450.93,91.039 1464.07,91.6378 1477.21,92.2904 1490.34,92.999 1503.48,93.7662 1516.62,94.5945 1529.75,95.487 1542.89,96.4471 1556.02,97.4781 1569.16,98.5842 1582.3,99.7696 1595.43,101.039 1608.57,102.398 1621.71,103.852 1634.84,105.407 1647.98,107.07 1661.12,108.848 1674.25,110.751 1687.39,112.787 1700.53,114.967 1713.66,117.3 1726.8,119.801 1739.94,122.483 1753.07,125.36 1766.21,128.45 1779.35,131.771 1792.48,135.345 1805.62,139.195 1818.76,143.347 1831.89,147.831 1845.03,152.679 1858.17,157.929 1871.3,163.623 1884.44,169.808 1897.57,176.539 1910.71,183.875 1923.85,191.887 1936.98,200.654 1950.12,210.266 1963.26,220.828 1976.39,232.459 1989.53,245.294 2002.67,259.492 2015.8,275.234 2028.94,292.727 2042.08,312.212 2055.21,333.963 2068.35,358.297 2081.49,385.57 2094.62,416.188 2107.76,450.6 2120.9,489.296 2134.03,532.795 2147.17,581.616 2160.31,636.234 2173.44,697.008 2186.58,764.062 2199.72,837.126 2212.85,915.32 2225.99,996.908 2239.12,1079.06 2252.26,1157.73 2265.4,1227.8 2278.53,1283.55 2291.67,1319.61 "/>
<path clip-path="url(#clip220)" d="M1891.34 1377.32 L2280.81 1377.32 L2280.81 1221.8 L1891.34 1221.8  Z" fill="#ffffff" fill-rule="evenodd" fill-opacity="1"/>
<polyline clip-path="url(#clip220)" style="stroke:#000000; stroke-linecap:round; stroke-linejoin:round; stroke-width:4; stroke-opacity:1; fill:none" points="1891.34,1377.32 2280.81,1377.32 2280.81,1221.8 1891.34,1221.8 1891.34,1377.32 "/>
<polyline clip-path="url(#clip220)" style="stroke:#009af9; stroke-linecap:round; stroke-linejoin:round; stroke-width:4; stroke-opacity:1; fill:none" points="1915.33,1273.64 2059.22,1273.64 "/>
<path clip-path="url(#clip220)" d="M2099.7 1254.9 L2099.7 1258.44 L2095.63 1258.44 Q2093.34 1258.44 2092.43 1259.36 Q2091.55 1260.29 2091.55 1262.7 L2091.55 1264.99 L2098.57 1264.99 L2098.57 1268.3 L2091.55 1268.3 L2091.55 1290.92 L2087.27 1290.92 L2087.27 1268.3 L2083.2 1268.3 L2083.2 1264.99 L2087.27 1264.99 L2087.27 1263.18 Q2087.27 1258.86 2089.28 1256.89 Q2091.3 1254.9 2095.67 1254.9 L2099.7 1254.9 Z" fill="#000000" fill-rule="nonzero" fill-opacity="1" /><path clip-path="url(#clip220)" d="M2110.84 1256.36 L2114.77 1256.36 L2102.73 1295.31 L2098.8 1295.31 L2110.84 1256.36 Z" fill="#000000" fill-rule="nonzero" fill-opacity="1" /><path clip-path="url(#clip220)" d="M2136.3 1268.92 L2136.3 1254.9 L2140.56 1254.9 L2140.56 1290.92 L2136.3 1290.92 L2136.3 1287.03 Q2134.96 1289.34 2132.9 1290.48 Q2130.86 1291.59 2127.99 1291.59 Q2123.29 1291.59 2120.33 1287.84 Q2117.39 1284.09 2117.39 1277.98 Q2117.39 1271.86 2120.33 1268.11 Q2123.29 1264.36 2127.99 1264.36 Q2130.86 1264.36 2132.9 1265.5 Q2134.96 1266.61 2136.3 1268.92 M2121.78 1277.98 Q2121.78 1282.67 2123.71 1285.36 Q2125.65 1288.02 2129.03 1288.02 Q2132.41 1288.02 2134.35 1285.36 Q2136.3 1282.67 2136.3 1277.98 Q2136.3 1273.28 2134.35 1270.61 Q2132.41 1267.93 2129.03 1267.93 Q2125.65 1267.93 2123.71 1270.61 Q2121.78 1273.28 2121.78 1277.98 Z" fill="#000000" fill-rule="nonzero" fill-opacity="1" /><path clip-path="url(#clip220)" d="M2165.86 1265.75 L2165.86 1269.78 Q2164.05 1268.86 2162.11 1268.39 Q2160.16 1267.93 2158.08 1267.93 Q2154.91 1267.93 2153.31 1268.9 Q2151.74 1269.87 2151.74 1271.82 Q2151.74 1273.3 2152.87 1274.16 Q2154.01 1274.99 2157.43 1275.75 L2158.89 1276.08 Q2163.43 1277.05 2165.33 1278.83 Q2167.25 1280.59 2167.25 1283.76 Q2167.25 1287.37 2164.38 1289.48 Q2161.53 1291.59 2156.53 1291.59 Q2154.45 1291.59 2152.18 1291.17 Q2149.93 1290.78 2147.43 1289.97 L2147.43 1285.57 Q2149.79 1286.79 2152.09 1287.42 Q2154.38 1288.02 2156.62 1288.02 Q2159.63 1288.02 2161.25 1287 Q2162.87 1285.96 2162.87 1284.09 Q2162.87 1282.35 2161.69 1281.42 Q2160.53 1280.5 2156.58 1279.64 L2155.09 1279.3 Q2151.14 1278.46 2149.38 1276.75 Q2147.62 1275.01 2147.62 1272 Q2147.62 1268.35 2150.21 1266.36 Q2152.8 1264.36 2157.57 1264.36 Q2159.93 1264.36 2162.02 1264.71 Q2164.1 1265.06 2165.86 1265.75 Z" fill="#000000" fill-rule="nonzero" fill-opacity="1" /><polyline clip-path="url(#clip220)" style="stroke:#e26f46; stroke-linecap:round; stroke-linejoin:round; stroke-width:4; stroke-opacity:1; fill:none" points="1915.33,1325.48 2059.22,1325.48 "/>
<path clip-path="url(#clip220)" d="M2102.11 1329.49 Q2102.11 1324.86 2100.19 1322.32 Q2098.29 1319.77 2094.84 1319.77 Q2091.41 1319.77 2089.49 1322.32 Q2087.59 1324.86 2087.59 1329.49 Q2087.59 1334.1 2089.49 1336.64 Q2091.41 1339.19 2094.84 1339.19 Q2098.29 1339.19 2100.19 1336.64 Q2102.11 1334.1 2102.11 1329.49 M2106.37 1339.54 Q2106.37 1346.16 2103.43 1349.38 Q2100.49 1352.62 2094.42 1352.62 Q2092.18 1352.62 2090.19 1352.27 Q2088.2 1351.95 2086.32 1351.25 L2086.32 1347.11 Q2088.2 1348.13 2090.03 1348.61 Q2091.85 1349.1 2093.75 1349.1 Q2097.94 1349.1 2100.03 1346.9 Q2102.11 1344.72 2102.11 1340.3 L2102.11 1338.2 Q2100.79 1340.49 2098.73 1341.62 Q2096.67 1342.76 2093.8 1342.76 Q2089.03 1342.76 2086.11 1339.12 Q2083.2 1335.49 2083.2 1329.49 Q2083.2 1323.47 2086.11 1319.84 Q2089.03 1316.2 2093.8 1316.2 Q2096.67 1316.2 2098.73 1317.34 Q2100.79 1318.47 2102.11 1320.76 L2102.11 1316.83 L2106.37 1316.83 L2106.37 1339.54 Z" fill="#000000" fill-rule="nonzero" fill-opacity="1" /><path clip-path="url(#clip220)" d="M2126.92 1329.72 Q2121.76 1329.72 2119.77 1330.9 Q2117.78 1332.08 2117.78 1334.93 Q2117.78 1337.2 2119.26 1338.54 Q2120.77 1339.86 2123.34 1339.86 Q2126.88 1339.86 2129.01 1337.36 Q2131.16 1334.84 2131.16 1330.67 L2131.16 1329.72 L2126.92 1329.72 M2135.42 1327.96 L2135.42 1342.76 L2131.16 1342.76 L2131.16 1338.82 Q2129.7 1341.18 2127.53 1342.32 Q2125.35 1343.43 2122.2 1343.43 Q2118.22 1343.43 2115.86 1341.2 Q2113.52 1338.96 2113.52 1335.21 Q2113.52 1330.83 2116.44 1328.61 Q2119.38 1326.39 2125.19 1326.39 L2131.16 1326.39 L2131.16 1325.97 Q2131.16 1323.03 2129.21 1321.44 Q2127.29 1319.82 2123.8 1319.82 Q2121.58 1319.82 2119.47 1320.35 Q2117.36 1320.88 2115.42 1321.95 L2115.42 1318.01 Q2117.76 1317.11 2119.96 1316.67 Q2122.15 1316.2 2124.24 1316.2 Q2129.86 1316.2 2132.64 1319.12 Q2135.42 1322.04 2135.42 1327.96 Z" fill="#000000" fill-rule="nonzero" fill-opacity="1" /><path clip-path="url(#clip220)" d="M2164.38 1321.81 Q2165.97 1318.94 2168.2 1317.57 Q2170.42 1316.2 2173.43 1316.2 Q2177.48 1316.2 2179.68 1319.05 Q2181.88 1321.88 2181.88 1327.11 L2181.88 1342.76 L2177.59 1342.76 L2177.59 1327.25 Q2177.59 1323.52 2176.27 1321.71 Q2174.96 1319.91 2172.25 1319.91 Q2168.94 1319.91 2167.02 1322.11 Q2165.09 1324.31 2165.09 1328.1 L2165.09 1342.76 L2160.81 1342.76 L2160.81 1327.25 Q2160.81 1323.5 2159.49 1321.71 Q2158.17 1319.91 2155.42 1319.91 Q2152.15 1319.91 2150.23 1322.13 Q2148.31 1324.33 2148.31 1328.1 L2148.31 1342.76 L2144.03 1342.76 L2144.03 1316.83 L2148.31 1316.83 L2148.31 1320.86 Q2149.77 1318.47 2151.81 1317.34 Q2153.84 1316.2 2156.65 1316.2 Q2159.47 1316.2 2161.44 1317.64 Q2163.43 1319.07 2164.38 1321.81 Z" fill="#000000" fill-rule="nonzero" fill-opacity="1" /><path clip-path="url(#clip220)" d="M2210.56 1321.81 Q2212.15 1318.94 2214.38 1317.57 Q2216.6 1316.2 2219.61 1316.2 Q2223.66 1316.2 2225.86 1319.05 Q2228.06 1321.88 2228.06 1327.11 L2228.06 1342.76 L2223.77 1342.76 L2223.77 1327.25 Q2223.77 1323.52 2222.46 1321.71 Q2221.14 1319.91 2218.43 1319.91 Q2215.12 1319.91 2213.2 1322.11 Q2211.27 1324.31 2211.27 1328.1 L2211.27 1342.76 L2206.99 1342.76 L2206.99 1327.25 Q2206.99 1323.5 2205.67 1321.71 Q2204.35 1319.91 2201.6 1319.91 Q2198.33 1319.91 2196.41 1322.13 Q2194.49 1324.33 2194.49 1328.1 L2194.49 1342.76 L2190.21 1342.76 L2190.21 1316.83 L2194.49 1316.83 L2194.49 1320.86 Q2195.95 1318.47 2197.99 1317.34 Q2200.02 1316.2 2202.83 1316.2 Q2205.65 1316.2 2207.62 1317.64 Q2209.61 1319.07 2210.56 1321.81 Z" fill="#000000" fill-rule="nonzero" fill-opacity="1" /><path clip-path="url(#clip220)" d="M2248.33 1329.72 Q2243.17 1329.72 2241.18 1330.9 Q2239.19 1332.08 2239.19 1334.93 Q2239.19 1337.2 2240.67 1338.54 Q2242.18 1339.86 2244.75 1339.86 Q2248.29 1339.86 2250.42 1337.36 Q2252.57 1334.84 2252.57 1330.67 L2252.57 1329.72 L2248.33 1329.72 M2256.83 1327.96 L2256.83 1342.76 L2252.57 1342.76 L2252.57 1338.82 Q2251.11 1341.18 2248.94 1342.32 Q2246.76 1343.43 2243.61 1343.43 Q2239.63 1343.43 2237.27 1341.2 Q2234.93 1338.96 2234.93 1335.21 Q2234.93 1330.83 2237.85 1328.61 Q2240.79 1326.39 2246.6 1326.39 L2252.57 1326.39 L2252.57 1325.97 Q2252.57 1323.03 2250.63 1321.44 Q2248.71 1319.82 2245.21 1319.82 Q2242.99 1319.82 2240.88 1320.35 Q2238.77 1320.88 2236.83 1321.95 L2236.83 1318.01 Q2239.17 1317.11 2241.37 1316.67 Q2243.57 1316.2 2245.65 1316.2 Q2251.27 1316.2 2254.05 1319.12 Q2256.83 1322.04 2256.83 1327.96 Z" fill="#000000" fill-rule="nonzero" fill-opacity="1" /></svg>
