<?xml version="1.0" encoding="utf-8"?>
<svg xmlns="http://www.w3.org/2000/svg" xmlns:xlink="http://www.w3.org/1999/xlink" width="600" height="400" viewBox="0 0 2400 1600">
<defs>
  <clipPath id="clip400">
    <rect x="0" y="0" width="2400" height="1600"/>
  </clipPath>
</defs>
<path clip-path="url(#clip400)" d="M0 1600 L2400 1600 L2400 0 L0 0  Z" fill="#ffffff" fill-rule="evenodd" fill-opacity="1"/>
<defs>
  <clipPath id="clip401">
    <rect x="480" y="0" width="1681" height="1600"/>
  </clipPath>
</defs>
<path clip-path="url(#clip400)" d="M147.478 1423.18 L2352.76 1423.18 L2352.76 47.2441 L147.478 47.2441  Z" fill="#ffffff" fill-rule="evenodd" fill-opacity="1"/>
<defs>
  <clipPath id="clip402">
    <rect x="147" y="47" width="2206" height="1377"/>
  </clipPath>
</defs>
<polyline clip-path="url(#clip402)" style="stroke:#000000; stroke-linecap:round; stroke-linejoin:round; stroke-width:2; stroke-opacity:0.1; fill:none" points="196.469,1423.18 196.469,47.2441 "/>
<polyline clip-path="url(#clip402)" style="stroke:#000000; stroke-linecap:round; stroke-linejoin:round; stroke-width:2; stroke-opacity:0.1; fill:none" points="867.582,1423.18 867.582,47.2441 "/>
<polyline clip-path="url(#clip402)" style="stroke:#000000; stroke-linecap:round; stroke-linejoin:round; stroke-width:2; stroke-opacity:0.1; fill:none" points="1538.7,1423.18 1538.7,47.2441 "/>
<polyline clip-path="url(#clip402)" style="stroke:#000000; stroke-linecap:round; stroke-linejoin:round; stroke-width:2; stroke-opacity:0.1; fill:none" points="2209.81,1423.18 2209.81,47.2441 "/>
<polyline clip-path="url(#clip402)" style="stroke:#000000; stroke-linecap:round; stroke-linejoin:round; stroke-width:2; stroke-opacity:0.1; fill:none" points="147.478,1371.76 2352.76,1371.76 "/>
<polyline clip-path="url(#clip402)" style="stroke:#000000; stroke-linecap:round; stroke-linejoin:round; stroke-width:2; stroke-opacity:0.1; fill:none" points="147.478,1053.48 2352.76,1053.48 "/>
<polyline clip-path="url(#clip402)" style="stroke:#000000; stroke-linecap:round; stroke-linejoin:round; stroke-width:2; stroke-opacity:0.1; fill:none" points="147.478,735.212 2352.76,735.212 "/>
<polyline clip-path="url(#clip402)" style="stroke:#000000; stroke-linecap:round; stroke-linejoin:round; stroke-width:2; stroke-opacity:0.1; fill:none" points="147.478,416.939 2352.76,416.939 "/>
<polyline clip-path="url(#clip402)" style="stroke:#000000; stroke-linecap:round; stroke-linejoin:round; stroke-width:2; stroke-opacity:0.1; fill:none" points="147.478,98.6665 2352.76,98.6665 "/>
<polyline clip-path="url(#clip400)" style="stroke:#000000; stroke-linecap:round; stroke-linejoin:round; stroke-width:4; stroke-opacity:1; fill:none" points="147.478,1423.18 2352.76,1423.18 "/>
<polyline clip-path="url(#clip400)" style="stroke:#000000; stroke-linecap:round; stroke-linejoin:round; stroke-width:4; stroke-opacity:1; fill:none" points="196.469,1423.18 196.469,1404.28 "/>
<polyline clip-path="url(#clip400)" style="stroke:#000000; stroke-linecap:round; stroke-linejoin:round; stroke-width:4; stroke-opacity:1; fill:none" points="867.582,1423.18 867.582,1404.28 "/>
<polyline clip-path="url(#clip400)" style="stroke:#000000; stroke-linecap:round; stroke-linejoin:round; stroke-width:4; stroke-opacity:1; fill:none" points="1538.7,1423.18 1538.7,1404.28 "/>
<polyline clip-path="url(#clip400)" style="stroke:#000000; stroke-linecap:round; stroke-linejoin:round; stroke-width:4; stroke-opacity:1; fill:none" points="2209.81,1423.18 2209.81,1404.28 "/>
<path clip-path="url(#clip400)" d="M196.469 1454.1 Q192.858 1454.1 191.029 1457.66 Q189.224 1461.2 189.224 1468.33 Q189.224 1475.44 191.029 1479.01 Q192.858 1482.55 196.469 1482.55 Q200.103 1482.55 201.909 1479.01 Q203.738 1475.44 203.738 1468.33 Q203.738 1461.2 201.909 1457.66 Q200.103 1454.1 196.469 1454.1 M196.469 1450.39 Q202.279 1450.39 205.335 1455 Q208.414 1459.58 208.414 1468.33 Q208.414 1477.06 205.335 1481.67 Q202.279 1486.25 196.469 1486.25 Q190.659 1486.25 187.58 1481.67 Q184.525 1477.06 184.525 1468.33 Q184.525 1459.58 187.58 1455 Q190.659 1450.39 196.469 1450.39 Z" fill="#000000" fill-rule="nonzero" fill-opacity="1" /><path clip-path="url(#clip400)" d="M842.282 1451.02 L860.638 1451.02 L860.638 1454.96 L846.564 1454.96 L846.564 1463.43 Q847.582 1463.08 848.601 1462.92 Q849.62 1462.73 850.638 1462.73 Q856.425 1462.73 859.805 1465.9 Q863.184 1469.08 863.184 1474.49 Q863.184 1480.07 859.712 1483.17 Q856.24 1486.25 849.92 1486.25 Q847.745 1486.25 845.476 1485.88 Q843.231 1485.51 840.823 1484.77 L840.823 1480.07 Q842.907 1481.2 845.129 1481.76 Q847.351 1482.32 849.828 1482.32 Q853.832 1482.32 856.17 1480.21 Q858.508 1478.1 858.508 1474.49 Q858.508 1470.88 856.17 1468.77 Q853.832 1466.67 849.828 1466.67 Q847.953 1466.67 846.078 1467.08 Q844.226 1467.5 842.282 1468.38 L842.282 1451.02 Z" fill="#000000" fill-rule="nonzero" fill-opacity="1" /><path clip-path="url(#clip400)" d="M882.397 1454.1 Q878.786 1454.1 876.957 1457.66 Q875.152 1461.2 875.152 1468.33 Q875.152 1475.44 876.957 1479.01 Q878.786 1482.55 882.397 1482.55 Q886.031 1482.55 887.837 1479.01 Q889.666 1475.44 889.666 1468.33 Q889.666 1461.2 887.837 1457.66 Q886.031 1454.1 882.397 1454.1 M882.397 1450.39 Q888.207 1450.39 891.263 1455 Q894.341 1459.58 894.341 1468.33 Q894.341 1477.06 891.263 1481.67 Q888.207 1486.25 882.397 1486.25 Q876.587 1486.25 873.508 1481.67 Q870.453 1477.06 870.453 1468.33 Q870.453 1459.58 873.508 1455 Q876.587 1450.39 882.397 1450.39 Z" fill="#000000" fill-rule="nonzero" fill-opacity="1" /><path clip-path="url(#clip400)" d="M1498.3 1481.64 L1505.94 1481.64 L1505.94 1455.28 L1497.63 1456.95 L1497.63 1452.69 L1505.89 1451.02 L1510.57 1451.02 L1510.57 1481.64 L1518.21 1481.64 L1518.21 1485.58 L1498.3 1485.58 L1498.3 1481.64 Z" fill="#000000" fill-rule="nonzero" fill-opacity="1" /><path clip-path="url(#clip400)" d="M1537.65 1454.1 Q1534.04 1454.1 1532.21 1457.66 Q1530.41 1461.2 1530.41 1468.33 Q1530.41 1475.44 1532.21 1479.01 Q1534.04 1482.55 1537.65 1482.55 Q1541.29 1482.55 1543.09 1479.01 Q1544.92 1475.44 1544.92 1468.33 Q1544.92 1461.2 1543.09 1457.66 Q1541.29 1454.1 1537.65 1454.1 M1537.65 1450.39 Q1543.46 1450.39 1546.52 1455 Q1549.6 1459.58 1549.6 1468.33 Q1549.6 1477.06 1546.52 1481.67 Q1543.46 1486.25 1537.65 1486.25 Q1531.84 1486.25 1528.77 1481.67 Q1525.71 1477.06 1525.71 1468.33 Q1525.71 1459.58 1528.77 1455 Q1531.84 1450.39 1537.65 1450.39 Z" fill="#000000" fill-rule="nonzero" fill-opacity="1" /><path clip-path="url(#clip400)" d="M1567.82 1454.1 Q1564.2 1454.1 1562.38 1457.66 Q1560.57 1461.2 1560.57 1468.33 Q1560.57 1475.44 1562.38 1479.01 Q1564.2 1482.55 1567.82 1482.55 Q1571.45 1482.55 1573.26 1479.01 Q1575.08 1475.44 1575.08 1468.33 Q1575.08 1461.2 1573.26 1457.66 Q1571.45 1454.1 1567.82 1454.1 M1567.82 1450.39 Q1573.63 1450.39 1576.68 1455 Q1579.76 1459.58 1579.76 1468.33 Q1579.76 1477.06 1576.68 1481.67 Q1573.63 1486.25 1567.82 1486.25 Q1562.01 1486.25 1558.93 1481.67 Q1555.87 1477.06 1555.87 1468.33 Q1555.87 1459.58 1558.93 1455 Q1562.01 1450.39 1567.82 1450.39 Z" fill="#000000" fill-rule="nonzero" fill-opacity="1" /><path clip-path="url(#clip400)" d="M2169.42 1481.64 L2177.05 1481.64 L2177.05 1455.28 L2168.74 1456.95 L2168.74 1452.69 L2177.01 1451.02 L2181.68 1451.02 L2181.68 1481.64 L2189.32 1481.64 L2189.32 1485.58 L2169.42 1485.58 L2169.42 1481.64 Z" fill="#000000" fill-rule="nonzero" fill-opacity="1" /><path clip-path="url(#clip400)" d="M2198.81 1451.02 L2217.17 1451.02 L2217.17 1454.96 L2203.1 1454.96 L2203.1 1463.43 Q2204.11 1463.08 2205.13 1462.92 Q2206.15 1462.73 2207.17 1462.73 Q2212.96 1462.73 2216.34 1465.9 Q2219.72 1469.08 2219.72 1474.49 Q2219.72 1480.07 2216.24 1483.17 Q2212.77 1486.25 2206.45 1486.25 Q2204.28 1486.25 2202.01 1485.88 Q2199.76 1485.51 2197.36 1484.77 L2197.36 1480.07 Q2199.44 1481.2 2201.66 1481.76 Q2203.88 1482.32 2206.36 1482.32 Q2210.36 1482.32 2212.7 1480.21 Q2215.04 1478.1 2215.04 1474.49 Q2215.04 1470.88 2212.7 1468.77 Q2210.36 1466.67 2206.36 1466.67 Q2204.48 1466.67 2202.61 1467.08 Q2200.76 1467.5 2198.81 1468.38 L2198.81 1451.02 Z" fill="#000000" fill-rule="nonzero" fill-opacity="1" /><path clip-path="url(#clip400)" d="M2238.93 1454.1 Q2235.32 1454.1 2233.49 1457.66 Q2231.68 1461.2 2231.68 1468.33 Q2231.68 1475.44 2233.49 1479.01 Q2235.32 1482.55 2238.93 1482.55 Q2242.56 1482.55 2244.37 1479.01 Q2246.2 1475.44 2246.2 1468.33 Q2246.2 1461.2 2244.37 1457.66 Q2242.56 1454.1 2238.93 1454.1 M2238.93 1450.39 Q2244.74 1450.39 2247.79 1455 Q2250.87 1459.58 2250.87 1468.33 Q2250.87 1477.06 2247.79 1481.67 Q2244.74 1486.25 2238.93 1486.25 Q2233.12 1486.25 2230.04 1481.67 Q2226.98 1477.06 2226.98 1468.33 Q2226.98 1459.58 2230.04 1455 Q2233.12 1450.39 2238.93 1450.39 Z" fill="#000000" fill-rule="nonzero" fill-opacity="1" /><path clip-path="url(#clip400)" d="M1006.34 1550.25 Q1006.34 1543.79 1003.67 1540.13 Q1001.03 1536.44 996.38 1536.44 Q991.733 1536.44 989.059 1540.13 Q986.418 1543.79 986.418 1550.25 Q986.418 1556.71 989.059 1560.4 Q991.733 1564.07 996.38 1564.07 Q1001.03 1564.07 1003.67 1560.4 Q1006.34 1556.71 1006.34 1550.25 M986.418 1537.81 Q988.264 1534.62 991.064 1533.1 Q993.897 1531.54 997.812 1531.54 Q1004.31 1531.54 1008.35 1536.69 Q1012.42 1541.85 1012.42 1550.25 Q1012.42 1558.65 1008.35 1563.81 Q1004.31 1568.97 997.812 1568.97 Q993.897 1568.97 991.064 1567.44 Q988.264 1565.88 986.418 1562.7 L986.418 1568.04 L980.529 1568.04 L980.529 1518.52 L986.418 1518.52 L986.418 1537.81 Z" fill="#000000" fill-rule="nonzero" fill-opacity="1" /><path clip-path="url(#clip400)" d="M1035.94 1536.5 Q1031.23 1536.5 1028.49 1540.19 Q1025.76 1543.85 1025.76 1550.25 Q1025.76 1556.65 1028.46 1560.34 Q1031.2 1564 1035.94 1564 Q1040.62 1564 1043.36 1560.31 Q1046.1 1556.62 1046.1 1550.25 Q1046.1 1543.92 1043.36 1540.23 Q1040.62 1536.5 1035.94 1536.5 M1035.94 1531.54 Q1043.58 1531.54 1047.94 1536.5 Q1052.3 1541.47 1052.3 1550.25 Q1052.3 1559 1047.94 1564 Q1043.58 1568.97 1035.94 1568.97 Q1028.27 1568.97 1023.91 1564 Q1019.58 1559 1019.58 1550.25 Q1019.58 1541.47 1023.91 1536.5 Q1028.27 1531.54 1035.94 1531.54 Z" fill="#000000" fill-rule="nonzero" fill-opacity="1" /><path clip-path="url(#clip400)" d="M1085.47 1537.81 L1085.47 1518.52 L1091.32 1518.52 L1091.32 1568.04 L1085.47 1568.04 L1085.47 1562.7 Q1083.62 1565.88 1080.79 1567.44 Q1077.99 1568.97 1074.04 1568.97 Q1067.58 1568.97 1063.51 1563.81 Q1059.46 1558.65 1059.46 1550.25 Q1059.46 1541.85 1063.51 1536.69 Q1067.58 1531.54 1074.04 1531.54 Q1077.99 1531.54 1080.79 1533.1 Q1083.62 1534.62 1085.47 1537.81 M1065.51 1550.25 Q1065.51 1556.71 1068.15 1560.4 Q1070.83 1564.07 1075.47 1564.07 Q1080.12 1564.07 1082.79 1560.4 Q1085.47 1556.71 1085.47 1550.25 Q1085.47 1543.79 1082.79 1540.13 Q1080.12 1536.44 1075.47 1536.44 Q1070.83 1536.44 1068.15 1540.13 Q1065.51 1543.79 1065.51 1550.25 Z" fill="#000000" fill-rule="nonzero" fill-opacity="1" /><path clip-path="url(#clip400)" d="M1118.22 1571.35 Q1115.74 1577.72 1113.38 1579.66 Q1111.03 1581.6 1107.08 1581.6 L1102.4 1581.6 L1102.4 1576.7 L1105.84 1576.7 Q1108.26 1576.7 1109.59 1575.56 Q1110.93 1574.41 1112.55 1570.14 L1113.6 1567.47 L1099.19 1532.4 L1105.39 1532.4 L1116.53 1560.28 L1127.67 1532.4 L1133.88 1532.4 L1118.22 1571.35 Z" fill="#000000" fill-rule="nonzero" fill-opacity="1" /><path clip-path="url(#clip400)" d="M1168.35 1562.7 L1168.35 1581.6 L1162.46 1581.6 L1162.46 1532.4 L1168.35 1532.4 L1168.35 1537.81 Q1170.2 1534.62 1173 1533.1 Q1175.83 1531.54 1179.74 1531.54 Q1186.24 1531.54 1190.28 1536.69 Q1194.35 1541.85 1194.35 1550.25 Q1194.35 1558.65 1190.28 1563.81 Q1186.24 1568.97 1179.74 1568.97 Q1175.83 1568.97 1173 1567.44 Q1170.2 1565.88 1168.35 1562.7 M1188.27 1550.25 Q1188.27 1543.79 1185.6 1540.13 Q1182.96 1536.44 1178.31 1536.44 Q1173.66 1536.44 1170.99 1540.13 Q1168.35 1543.79 1168.35 1550.25 Q1168.35 1556.71 1170.99 1560.4 Q1173.66 1564.07 1178.31 1564.07 Q1182.96 1564.07 1185.6 1560.4 Q1188.27 1556.71 1188.27 1550.25 Z" fill="#000000" fill-rule="nonzero" fill-opacity="1" /><path clip-path="url(#clip400)" d="M1217.87 1536.5 Q1213.16 1536.5 1210.43 1540.19 Q1207.69 1543.85 1207.69 1550.25 Q1207.69 1556.65 1210.39 1560.34 Q1213.13 1564 1217.87 1564 Q1222.55 1564 1225.29 1560.31 Q1228.03 1556.62 1228.03 1550.25 Q1228.03 1543.92 1225.29 1540.23 Q1222.55 1536.5 1217.87 1536.5 M1217.87 1531.54 Q1225.51 1531.54 1229.87 1536.5 Q1234.23 1541.47 1234.23 1550.25 Q1234.23 1559 1229.87 1564 Q1225.51 1568.97 1217.87 1568.97 Q1210.2 1568.97 1205.84 1564 Q1201.51 1559 1201.51 1550.25 Q1201.51 1541.47 1205.84 1536.5 Q1210.2 1531.54 1217.87 1531.54 Z" fill="#000000" fill-rule="nonzero" fill-opacity="1" /><path clip-path="url(#clip400)" d="M1243.94 1532.4 L1249.8 1532.4 L1249.8 1568.04 L1243.94 1568.04 L1243.94 1532.4 M1243.94 1518.52 L1249.8 1518.52 L1249.8 1525.93 L1243.94 1525.93 L1243.94 1518.52 Z" fill="#000000" fill-rule="nonzero" fill-opacity="1" /><path clip-path="url(#clip400)" d="M1291.68 1546.53 L1291.68 1568.04 L1285.83 1568.04 L1285.83 1546.72 Q1285.83 1541.66 1283.86 1539.14 Q1281.88 1536.63 1277.94 1536.63 Q1273.19 1536.63 1270.46 1539.65 Q1267.72 1542.68 1267.72 1547.9 L1267.72 1568.04 L1261.83 1568.04 L1261.83 1532.4 L1267.72 1532.4 L1267.72 1537.93 Q1269.82 1534.72 1272.65 1533.13 Q1275.52 1531.54 1279.24 1531.54 Q1285.38 1531.54 1288.53 1535.36 Q1291.68 1539.14 1291.68 1546.53 Z" fill="#000000" fill-rule="nonzero" fill-opacity="1" /><path clip-path="url(#clip400)" d="M1309.16 1522.27 L1309.16 1532.4 L1321.22 1532.4 L1321.22 1536.95 L1309.16 1536.95 L1309.16 1556.3 Q1309.16 1560.66 1310.34 1561.9 Q1311.55 1563.14 1315.21 1563.14 L1321.22 1563.14 L1321.22 1568.04 L1315.21 1568.04 Q1308.43 1568.04 1305.85 1565.53 Q1303.27 1562.98 1303.27 1556.3 L1303.27 1536.95 L1298.97 1536.95 L1298.97 1532.4 L1303.27 1532.4 L1303.27 1522.27 L1309.16 1522.27 Z" fill="#000000" fill-rule="nonzero" fill-opacity="1" /><path clip-path="url(#clip400)" d="M1349.64 1532.4 L1355.5 1532.4 L1355.5 1568.04 L1349.64 1568.04 L1349.64 1532.4 M1349.64 1518.52 L1355.5 1518.52 L1355.5 1525.93 L1349.64 1525.93 L1349.64 1518.52 Z" fill="#000000" fill-rule="nonzero" fill-opacity="1" /><path clip-path="url(#clip400)" d="M1397.39 1546.53 L1397.39 1568.04 L1391.53 1568.04 L1391.53 1546.72 Q1391.53 1541.66 1389.56 1539.14 Q1387.58 1536.63 1383.64 1536.63 Q1378.9 1536.63 1376.16 1539.65 Q1373.42 1542.68 1373.42 1547.9 L1373.42 1568.04 L1367.53 1568.04 L1367.53 1532.4 L1373.42 1532.4 L1373.42 1537.93 Q1375.52 1534.72 1378.35 1533.13 Q1381.22 1531.54 1384.94 1531.54 Q1391.09 1531.54 1394.24 1535.36 Q1397.39 1539.14 1397.39 1546.53 Z" fill="#000000" fill-rule="nonzero" fill-opacity="1" /><path clip-path="url(#clip400)" d="M1432.53 1537.81 L1432.53 1518.52 L1438.38 1518.52 L1438.38 1568.04 L1432.53 1568.04 L1432.53 1562.7 Q1430.68 1565.88 1427.85 1567.44 Q1425.05 1568.97 1421.1 1568.97 Q1414.64 1568.97 1410.56 1563.81 Q1406.52 1558.65 1406.52 1550.25 Q1406.52 1541.85 1410.56 1536.69 Q1414.64 1531.54 1421.1 1531.54 Q1425.05 1531.54 1427.85 1533.1 Q1430.68 1534.62 1432.53 1537.81 M1412.57 1550.25 Q1412.57 1556.71 1415.21 1560.4 Q1417.89 1564.07 1422.53 1564.07 Q1427.18 1564.07 1429.85 1560.4 Q1432.53 1556.71 1432.53 1550.25 Q1432.53 1543.79 1429.85 1540.13 Q1427.18 1536.44 1422.53 1536.44 Q1417.89 1536.44 1415.21 1540.13 Q1412.57 1543.79 1412.57 1550.25 Z" fill="#000000" fill-rule="nonzero" fill-opacity="1" /><path clip-path="url(#clip400)" d="M1480.94 1548.76 L1480.94 1551.62 L1454.01 1551.62 Q1454.39 1557.67 1457.64 1560.85 Q1460.92 1564 1466.74 1564 Q1470.12 1564 1473.27 1563.17 Q1476.45 1562.35 1479.57 1560.69 L1479.57 1566.23 Q1476.42 1567.57 1473.11 1568.27 Q1469.8 1568.97 1466.39 1568.97 Q1457.86 1568.97 1452.86 1564 Q1447.9 1559.04 1447.9 1550.57 Q1447.9 1541.82 1452.61 1536.69 Q1457.35 1531.54 1465.37 1531.54 Q1472.57 1531.54 1476.74 1536.18 Q1480.94 1540.8 1480.94 1548.76 M1475.08 1547.04 Q1475.02 1542.23 1472.38 1539.37 Q1469.77 1536.5 1465.44 1536.5 Q1460.54 1536.5 1457.58 1539.27 Q1454.65 1542.04 1454.2 1547.07 L1475.08 1547.04 Z" fill="#000000" fill-rule="nonzero" fill-opacity="1" /><path clip-path="url(#clip400)" d="M1519.04 1532.4 L1506.15 1549.74 L1519.7 1568.04 L1512.8 1568.04 L1502.42 1554.04 L1492.05 1568.04 L1485.14 1568.04 L1498.98 1549.39 L1486.32 1532.4 L1493.22 1532.4 L1502.68 1545.1 L1512.13 1532.4 L1519.04 1532.4 Z" fill="#000000" fill-rule="nonzero" fill-opacity="1" /><polyline clip-path="url(#clip400)" style="stroke:#000000; stroke-linecap:round; stroke-linejoin:round; stroke-width:4; stroke-opacity:1; fill:none" points="147.478,1423.18 147.478,47.2441 "/>
<polyline clip-path="url(#clip400)" style="stroke:#000000; stroke-linecap:round; stroke-linejoin:round; stroke-width:4; stroke-opacity:1; fill:none" points="147.478,1371.76 166.376,1371.76 "/>
<polyline clip-path="url(#clip400)" style="stroke:#000000; stroke-linecap:round; stroke-linejoin:round; stroke-width:4; stroke-opacity:1; fill:none" points="147.478,1053.48 166.376,1053.48 "/>
<polyline clip-path="url(#clip400)" style="stroke:#000000; stroke-linecap:round; stroke-linejoin:round; stroke-width:4; stroke-opacity:1; fill:none" points="147.478,735.212 166.376,735.212 "/>
<polyline clip-path="url(#clip400)" style="stroke:#000000; stroke-linecap:round; stroke-linejoin:round; stroke-width:4; stroke-opacity:1; fill:none" points="147.478,416.939 166.376,416.939 "/>
<polyline clip-path="url(#clip400)" style="stroke:#000000; stroke-linecap:round; stroke-linejoin:round; stroke-width:4; stroke-opacity:1; fill:none" points="147.478,98.6665 166.376,98.6665 "/>
<path clip-path="url(#clip400)" d="M51.3625 1372.21 L81.0383 1372.21 L81.0383 1376.14 L51.3625 1376.14 L51.3625 1372.21 Z" fill="#000000" fill-rule="nonzero" fill-opacity="1" /><path clip-path="url(#clip400)" d="M95.1586 1385.1 L111.478 1385.1 L111.478 1389.04 L89.5336 1389.04 L89.5336 1385.1 Q92.1956 1382.35 96.7789 1377.72 Q101.385 1373.07 102.566 1371.72 Q104.811 1369.2 105.691 1367.46 Q106.594 1365.7 106.594 1364.01 Q106.594 1361.26 104.649 1359.52 Q102.728 1357.79 99.6261 1357.79 Q97.4271 1357.79 94.9734 1358.55 Q92.5428 1359.32 89.7651 1360.87 L89.7651 1356.14 Q92.5891 1355.01 95.0428 1354.43 Q97.4965 1353.85 99.5335 1353.85 Q104.904 1353.85 108.098 1356.54 Q111.293 1359.22 111.293 1363.71 Q111.293 1365.84 110.483 1367.76 Q109.696 1369.66 107.589 1372.26 Q107.01 1372.93 103.909 1376.14 Q100.807 1379.34 95.1586 1385.1 Z" fill="#000000" fill-rule="nonzero" fill-opacity="1" /><path clip-path="url(#clip400)" d="M50.9921 1053.94 L80.6679 1053.94 L80.6679 1057.87 L50.9921 1057.87 L50.9921 1053.94 Z" fill="#000000" fill-rule="nonzero" fill-opacity="1" /><path clip-path="url(#clip400)" d="M91.5706 1066.83 L99.2095 1066.83 L99.2095 1040.46 L90.8993 1042.13 L90.8993 1037.87 L99.1632 1036.2 L103.839 1036.2 L103.839 1066.83 L111.478 1066.83 L111.478 1070.76 L91.5706 1070.76 L91.5706 1066.83 Z" fill="#000000" fill-rule="nonzero" fill-opacity="1" /><path clip-path="url(#clip400)" d="M99.5335 721.011 Q95.9224 721.011 94.0937 724.575 Q92.2882 728.117 92.2882 735.247 Q92.2882 742.353 94.0937 745.918 Q95.9224 749.46 99.5335 749.46 Q103.168 749.46 104.973 745.918 Q106.802 742.353 106.802 735.247 Q106.802 728.117 104.973 724.575 Q103.168 721.011 99.5335 721.011 M99.5335 717.307 Q105.344 717.307 108.399 721.913 Q111.478 726.497 111.478 735.247 Q111.478 743.973 108.399 748.58 Q105.344 753.163 99.5335 753.163 Q93.7234 753.163 90.6447 748.58 Q87.5892 743.973 87.5892 735.247 Q87.5892 726.497 90.6447 721.913 Q93.7234 717.307 99.5335 717.307 Z" fill="#000000" fill-rule="nonzero" fill-opacity="1" /><path clip-path="url(#clip400)" d="M91.5706 430.284 L99.2095 430.284 L99.2095 403.918 L90.8993 405.585 L90.8993 401.326 L99.1632 399.659 L103.839 399.659 L103.839 430.284 L111.478 430.284 L111.478 434.219 L91.5706 434.219 L91.5706 430.284 Z" fill="#000000" fill-rule="nonzero" fill-opacity="1" /><path clip-path="url(#clip400)" d="M95.1586 112.011 L111.478 112.011 L111.478 115.946 L89.5336 115.946 L89.5336 112.011 Q92.1956 109.257 96.7789 104.627 Q101.385 99.9743 102.566 98.6318 Q104.811 96.1086 105.691 94.3725 Q106.594 92.6133 106.594 90.9235 Q106.594 88.1689 104.649 86.4328 Q102.728 84.6967 99.6261 84.6967 Q97.4271 84.6967 94.9734 85.4605 Q92.5428 86.2244 89.7651 87.7753 L89.7651 83.0531 Q92.5891 81.9189 95.0428 81.3402 Q97.4965 80.7615 99.5335 80.7615 Q104.904 80.7615 108.098 83.4467 Q111.293 86.1318 111.293 90.6225 Q111.293 92.7522 110.483 94.6734 Q109.696 96.5716 107.589 99.1642 Q107.01 99.8355 103.909 103.053 Q100.807 106.247 95.1586 112.011 Z" fill="#000000" fill-rule="nonzero" fill-opacity="1" /><polyline clip-path="url(#clip402)" style="stroke:#009af9; stroke-linecap:round; stroke-linejoin:round; stroke-width:4; stroke-opacity:1; fill:none" points="209.891,735.212 223.314,709.068 236.736,682.834 250.158,657.237 263.58,631.868 277.003,604.025 290.425,581.84 303.847,552.55 317.27,531.216 330.692,504.671 344.114,480.835 357.536,458.281 370.959,433.383 384.381,408.485 397.803,388.481 411.225,369.612 424.648,339.389 438.07,327.91 451.492,303.055 464.914,285.169 478.337,266.361 491.759,247.372 505.181,236.469 518.604,208.372 532.026,205.201 545.448,186.837 558.87,169.178 572.293,159.613 585.715,151.243 599.137,138.061 612.559,126.902 625.982,124.351 639.404,104.188 652.826,112.665 666.248,92.6159 679.671,97.9632 693.093,93.578 706.515,87.1684 719.937,86.4321 733.36,86.1857 746.782,86.4319 760.204,87.1685 773.627,93.5779 787.049,97.9632 800.471,92.6159 813.893,112.665 827.316,104.188 840.738,124.351 854.16,126.902 867.582,138.061 881.005,151.243 894.427,159.613 907.849,169.178 921.271,186.837 934.694,205.201 948.116,208.372 961.538,236.469 974.96,247.372 988.383,266.361 1001.81,285.169 1015.23,303.055 1028.65,327.91 1042.07,339.389 1055.49,369.612 1068.92,388.481 1082.34,408.485 1095.76,433.383 1109.18,458.281 1122.61,480.835 1136.03,504.671 1149.45,531.216 1162.87,552.55 1176.29,581.84 1189.72,604.025 1203.14,631.868 1216.56,657.237 1229.98,682.834 1243.41,709.068 1256.83,735.212 1270.25,761.356 1283.67,787.59 1297.09,813.187 1310.52,838.556 1323.94,866.399 1337.36,888.584 1350.78,917.874 1364.21,939.208 1377.63,965.753 1391.05,989.588 1404.47,1012.14 1417.9,1037.04 1431.32,1061.94 1444.74,1081.94 1458.16,1100.81 1471.58,1131.03 1485.01,1142.51 1498.43,1167.37 1511.85,1185.26 1525.27,1204.06 1538.7,1223.05 1552.12,1233.95 1565.54,1262.05 1578.96,1265.22 1592.38,1283.59 1605.81,1301.25 1619.23,1310.81 1632.65,1319.18 1646.07,1332.36 1659.5,1343.52 1672.92,1346.07 1686.34,1366.24 1699.76,1357.76 1713.19,1377.81 1726.61,1372.46 1740.03,1376.85 1753.45,1383.26 1766.87,1383.99 1780.3,1384.24 1793.72,1383.99 1807.14,1383.26 1820.56,1376.85 1833.99,1372.46 1847.41,1377.81 1860.83,1357.76 1874.25,1366.24 1887.67,1346.07 1901.1,1343.52 1914.52,1332.36 1927.94,1319.18 1941.36,1310.81 1954.79,1301.25 1968.21,1283.59 1981.63,1265.22 1995.05,1262.05 2008.47,1233.95 2021.9,1223.05 2035.32,1204.06 2048.74,1185.26 2062.16,1167.37 2075.59,1142.51 2089.01,1131.03 2102.43,1100.81 2115.85,1081.94 2129.28,1061.94 2142.7,1037.04 2156.12,1012.14 2169.54,989.588 2182.96,965.753 2196.39,939.208 2209.81,917.874 2223.23,888.584 2236.65,866.399 2250.08,838.556 2263.5,813.187 2276.92,787.59 2290.34,761.356 "/>
<polyline clip-path="url(#clip402)" style="stroke:#e26f46; stroke-linecap:round; stroke-linejoin:round; stroke-width:4; stroke-opacity:1; fill:none" points="209.891,735.212 223.314,709.581 236.736,683.991 250.158,658.485 263.58,633.103 277.003,607.887 290.425,582.877 303.847,558.114 317.27,533.638 330.692,509.49 344.114,485.707 357.536,462.33 370.959,439.395 384.381,416.939 397.803,395 411.225,373.613 424.648,352.812 438.07,332.632 451.492,313.104 464.914,294.261 478.337,276.134 491.759,258.751 505.181,242.141 518.604,226.33 532.026,211.345 545.448,197.21 558.87,183.947 572.293,171.579 585.715,160.125 599.137,149.603 612.559,140.032 625.982,131.425 639.404,123.799 652.826,117.163 666.248,111.531 679.671,106.91 693.093,103.308 706.515,100.731 719.937,99.1827 733.36,98.6665 746.782,99.1827 760.204,100.731 773.627,103.308 787.049,106.91 800.471,111.531 813.893,117.163 827.316,123.799 840.738,131.425 854.16,140.032 867.582,149.603 881.005,160.125 894.427,171.579 907.849,183.947 921.271,197.21 934.694,211.345 948.116,226.33 961.538,242.141 974.96,258.751 988.383,276.134 1001.81,294.261 1015.23,313.104 1028.65,332.632 1042.07,352.812 1055.49,373.613 1068.92,395 1082.34,416.939 1095.76,439.395 1109.18,462.33 1122.61,485.707 1136.03,509.49 1149.45,533.638 1162.87,558.114 1176.29,582.877 1189.72,607.887 1203.14,633.103 1216.56,658.485 1229.98,683.991 1243.41,709.581 1256.83,735.212 1270.25,760.843 1283.67,786.433 1297.09,811.939 1310.52,837.321 1323.94,862.537 1337.36,887.547 1350.78,912.31 1364.21,936.786 1377.63,960.934 1391.05,984.717 1404.47,1008.09 1417.9,1031.03 1431.32,1053.48 1444.74,1075.42 1458.16,1096.81 1471.58,1117.61 1485.01,1137.79 1498.43,1157.32 1511.85,1176.16 1525.27,1194.29 1538.7,1211.67 1552.12,1228.28 1565.54,1244.09 1578.96,1259.08 1592.38,1273.21 1605.81,1286.48 1619.23,1298.85 1632.65,1310.3 1646.07,1320.82 1659.5,1330.39 1672.92,1339 1686.34,1346.63 1699.76,1353.26 1713.19,1358.89 1726.61,1363.51 1740.03,1367.12 1753.45,1369.69 1766.87,1371.24 1780.3,1371.76 1793.72,1371.24 1807.14,1369.69 1820.56,1367.12 1833.99,1363.51 1847.41,1358.89 1860.83,1353.26 1874.25,1346.63 1887.67,1339 1901.1,1330.39 1914.52,1320.82 1927.94,1310.3 1941.36,1298.85 1954.79,1286.48 1968.21,1273.21 1981.63,1259.08 1995.05,1244.09 2008.47,1228.28 2021.9,1211.67 2035.32,1194.29 2048.74,1176.16 2062.16,1157.32 2075.59,1137.79 2089.01,1117.61 2102.43,1096.81 2115.85,1075.42 2129.28,1053.48 2142.7,1031.03 2156.12,1008.09 2169.54,984.717 2182.96,960.934 2196.39,936.786 2209.81,912.31 2223.23,887.547 2236.65,862.537 2250.08,837.321 2263.5,811.939 2276.92,786.433 2290.34,760.843 "/>
<path clip-path="url(#clip400)" d="M1885.09 248.629 L2279.25 248.629 L2279.25 93.1086 L1885.09 93.1086  Z" fill="#ffffff" fill-rule="evenodd" fill-opacity="1"/>
<polyline clip-path="url(#clip400)" style="stroke:#000000; stroke-linecap:round; stroke-linejoin:round; stroke-width:4; stroke-opacity:1; fill:none" points="1885.09,248.629 2279.25,248.629 2279.25,93.1086 1885.09,93.1086 1885.09,248.629 "/>
<polyline clip-path="url(#clip400)" style="stroke:#009af9; stroke-linecap:round; stroke-linejoin:round; stroke-width:4; stroke-opacity:1; fill:none" points="1909.59,144.949 2056.61,144.949 "/>
<path clip-path="url(#clip400)" d="M2097.61 126.21 L2097.61 129.752 L2093.54 129.752 Q2091.25 129.752 2090.35 130.678 Q2089.47 131.604 2089.47 134.011 L2089.47 136.303 L2096.48 136.303 L2096.48 139.613 L2089.47 139.613 L2089.47 162.229 L2085.18 162.229 L2085.18 139.613 L2081.11 139.613 L2081.11 136.303 L2085.18 136.303 L2085.18 134.497 Q2085.18 130.169 2087.2 128.201 Q2089.21 126.21 2093.59 126.21 L2097.61 126.21 Z" fill="#000000" fill-rule="nonzero" fill-opacity="1" /><path clip-path="url(#clip400)" d="M2108.75 127.669 L2112.68 127.669 L2100.65 166.627 L2096.71 166.627 L2108.75 127.669 Z" fill="#000000" fill-rule="nonzero" fill-opacity="1" /><path clip-path="url(#clip400)" d="M2134.21 140.238 L2134.21 126.21 L2138.47 126.21 L2138.47 162.229 L2134.21 162.229 L2134.21 158.34 Q2132.87 160.655 2130.81 161.789 Q2128.77 162.9 2125.9 162.9 Q2121.2 162.9 2118.24 159.15 Q2115.3 155.4 2115.3 149.289 Q2115.3 143.178 2118.24 139.428 Q2121.2 135.678 2125.9 135.678 Q2128.77 135.678 2130.81 136.812 Q2132.87 137.923 2134.21 140.238 M2119.7 149.289 Q2119.7 153.988 2121.62 156.673 Q2123.56 159.335 2126.94 159.335 Q2130.32 159.335 2132.27 156.673 Q2134.21 153.988 2134.21 149.289 Q2134.21 144.59 2132.27 141.928 Q2130.32 139.243 2126.94 139.243 Q2123.56 139.243 2121.62 141.928 Q2119.7 144.59 2119.7 149.289 Z" fill="#000000" fill-rule="nonzero" fill-opacity="1" /><path clip-path="url(#clip400)" d="M2163.77 137.067 L2163.77 141.094 Q2161.97 140.169 2160.02 139.706 Q2158.08 139.243 2155.99 139.243 Q2152.82 139.243 2151.23 140.215 Q2149.65 141.187 2149.65 143.131 Q2149.65 144.613 2150.79 145.469 Q2151.92 146.303 2155.35 147.067 L2156.8 147.391 Q2161.34 148.363 2163.24 150.145 Q2165.16 151.905 2165.16 155.076 Q2165.16 158.687 2162.29 160.793 Q2159.44 162.9 2154.44 162.9 Q2152.36 162.9 2150.09 162.483 Q2147.85 162.09 2145.35 161.28 L2145.35 156.881 Q2147.71 158.108 2150 158.733 Q2152.29 159.335 2154.54 159.335 Q2157.54 159.335 2159.17 158.317 Q2160.79 157.275 2160.79 155.4 Q2160.79 153.664 2159.61 152.738 Q2158.45 151.812 2154.49 150.956 L2153.01 150.608 Q2149.05 149.775 2147.29 148.062 Q2145.53 146.326 2145.53 143.317 Q2145.53 139.659 2148.12 137.669 Q2150.72 135.678 2155.48 135.678 Q2157.85 135.678 2159.93 136.025 Q2162.01 136.372 2163.77 137.067 Z" fill="#000000" fill-rule="nonzero" fill-opacity="1" /><polyline clip-path="url(#clip400)" style="stroke:#e26f46; stroke-linecap:round; stroke-linejoin:round; stroke-width:4; stroke-opacity:1; fill:none" points="1909.59,196.789 2056.61,196.789 "/>
<path clip-path="url(#clip400)" d="M2100.02 200.805 Q2100.02 196.175 2098.1 193.629 Q2096.2 191.083 2092.75 191.083 Q2089.33 191.083 2087.41 193.629 Q2085.51 196.175 2085.51 200.805 Q2085.51 205.411 2087.41 207.958 Q2089.33 210.504 2092.75 210.504 Q2096.2 210.504 2098.1 207.958 Q2100.02 205.411 2100.02 200.805 M2104.28 210.851 Q2104.28 217.471 2101.34 220.689 Q2098.4 223.93 2092.34 223.93 Q2090.09 223.93 2088.1 223.582 Q2086.11 223.258 2084.24 222.564 L2084.24 218.42 Q2086.11 219.439 2087.94 219.925 Q2089.77 220.411 2091.67 220.411 Q2095.86 220.411 2097.94 218.212 Q2100.02 216.036 2100.02 211.615 L2100.02 209.508 Q2098.7 211.8 2096.64 212.934 Q2094.58 214.069 2091.71 214.069 Q2086.94 214.069 2084.03 210.434 Q2081.11 206.8 2081.11 200.805 Q2081.11 194.786 2084.03 191.152 Q2086.94 187.518 2091.71 187.518 Q2094.58 187.518 2096.64 188.652 Q2098.7 189.786 2100.02 192.078 L2100.02 188.143 L2104.28 188.143 L2104.28 210.851 Z" fill="#000000" fill-rule="nonzero" fill-opacity="1" /><path clip-path="url(#clip400)" d="M2124.84 201.036 Q2119.67 201.036 2117.68 202.217 Q2115.69 203.397 2115.69 206.245 Q2115.69 208.513 2117.17 209.856 Q2118.68 211.175 2121.25 211.175 Q2124.79 211.175 2126.92 208.675 Q2129.07 206.152 2129.07 201.985 L2129.07 201.036 L2124.84 201.036 M2133.33 199.277 L2133.33 214.069 L2129.07 214.069 L2129.07 210.133 Q2127.61 212.495 2125.44 213.629 Q2123.26 214.74 2120.11 214.74 Q2116.13 214.74 2113.77 212.518 Q2111.43 210.272 2111.43 206.522 Q2111.43 202.147 2114.35 199.925 Q2117.29 197.703 2123.1 197.703 L2129.07 197.703 L2129.07 197.286 Q2129.07 194.347 2127.13 192.749 Q2125.21 191.129 2121.71 191.129 Q2119.49 191.129 2117.38 191.661 Q2115.28 192.194 2113.33 193.259 L2113.33 189.323 Q2115.67 188.421 2117.87 187.981 Q2120.07 187.518 2122.15 187.518 Q2127.78 187.518 2130.55 190.434 Q2133.33 193.351 2133.33 199.277 Z" fill="#000000" fill-rule="nonzero" fill-opacity="1" /><path clip-path="url(#clip400)" d="M2162.29 193.12 Q2163.89 190.249 2166.11 188.884 Q2168.33 187.518 2171.34 187.518 Q2175.39 187.518 2177.59 190.365 Q2179.79 193.189 2179.79 198.421 L2179.79 214.069 L2175.51 214.069 L2175.51 198.559 Q2175.51 194.833 2174.19 193.027 Q2172.87 191.222 2170.16 191.222 Q2166.85 191.222 2164.93 193.421 Q2163.01 195.62 2163.01 199.416 L2163.01 214.069 L2158.73 214.069 L2158.73 198.559 Q2158.73 194.809 2157.41 193.027 Q2156.09 191.222 2153.33 191.222 Q2150.07 191.222 2148.15 193.444 Q2146.23 195.643 2146.23 199.416 L2146.23 214.069 L2141.94 214.069 L2141.94 188.143 L2146.23 188.143 L2146.23 192.171 Q2147.68 189.786 2149.72 188.652 Q2151.76 187.518 2154.56 187.518 Q2157.38 187.518 2159.35 188.953 Q2161.34 190.388 2162.29 193.12 Z" fill="#000000" fill-rule="nonzero" fill-opacity="1" /><path clip-path="url(#clip400)" d="M2208.47 193.12 Q2210.07 190.249 2212.29 188.884 Q2214.51 187.518 2217.52 187.518 Q2221.57 187.518 2223.77 190.365 Q2225.97 193.189 2225.97 198.421 L2225.97 214.069 L2221.69 214.069 L2221.69 198.559 Q2221.69 194.833 2220.37 193.027 Q2219.05 191.222 2216.34 191.222 Q2213.03 191.222 2211.11 193.421 Q2209.19 195.62 2209.19 199.416 L2209.19 214.069 L2204.91 214.069 L2204.91 198.559 Q2204.91 194.809 2203.59 193.027 Q2202.27 191.222 2199.51 191.222 Q2196.25 191.222 2194.33 193.444 Q2192.41 195.643 2192.41 199.416 L2192.41 214.069 L2188.12 214.069 L2188.12 188.143 L2192.41 188.143 L2192.41 192.171 Q2193.86 189.786 2195.9 188.652 Q2197.94 187.518 2200.74 187.518 Q2203.56 187.518 2205.53 188.953 Q2207.52 190.388 2208.47 193.12 Z" fill="#000000" fill-rule="nonzero" fill-opacity="1" /><path clip-path="url(#clip400)" d="M2246.25 201.036 Q2241.09 201.036 2239.1 202.217 Q2237.1 203.397 2237.1 206.245 Q2237.1 208.513 2238.59 209.856 Q2240.09 211.175 2242.66 211.175 Q2246.2 211.175 2248.33 208.675 Q2250.48 206.152 2250.48 201.985 L2250.48 201.036 L2246.25 201.036 M2254.74 199.277 L2254.74 214.069 L2250.48 214.069 L2250.48 210.133 Q2249.03 212.495 2246.85 213.629 Q2244.67 214.74 2241.53 214.74 Q2237.54 214.74 2235.18 212.518 Q2232.85 210.272 2232.85 206.522 Q2232.85 202.147 2235.76 199.925 Q2238.7 197.703 2244.51 197.703 L2250.48 197.703 L2250.48 197.286 Q2250.48 194.347 2248.54 192.749 Q2246.62 191.129 2243.12 191.129 Q2240.9 191.129 2238.79 191.661 Q2236.69 192.194 2234.74 193.259 L2234.74 189.323 Q2237.08 188.421 2239.28 187.981 Q2241.48 187.518 2243.56 187.518 Q2249.19 187.518 2251.97 190.434 Q2254.74 193.351 2254.74 199.277 Z" fill="#000000" fill-rule="nonzero" fill-opacity="1" /></svg>
